<svg width="235" height="19" viewBox="0 0 235 19" fill="none" xmlns="http://www.w3.org/2000/svg">
<path d="M0.828125 18V0.84375H5.33984L11.8203 9.66797C11.9844 9.91016 12.1914 10.2734 12.4414 10.7578C12.7617 11.3828 13.0742 12.0273 13.3789 12.6914C13.2617 11.793 13.1953 11.1641 13.1797 10.8047C13.1328 10.2422 13.1094 9.74609 13.1094 9.31641V0.84375H17.5977V18H13.1094L6.62891 9.14062C6.53516 9.01562 6.32812 8.64844 6.00781 8.03906C5.72656 7.53906 5.41406 6.90625 5.07031 6.14062C5.14844 6.75 5.22266 7.38281 5.29297 8.03906C5.32422 8.77344 5.33984 9.26953 5.33984 9.52734V18H0.828125Z" fill="url(#paint0_linear_208_205)"/>
<path d="M38.9023 9.45703C38.9023 10.6992 38.6797 11.8594 38.2344 12.9375C37.7891 13.9922 37.125 14.9531 36.2422 15.8203C35.3672 16.6641 34.3672 17.3125 33.2422 17.7656C32.0625 18.2266 30.8945 18.457 29.7383 18.457C28.5664 18.457 27.3984 18.2266 26.2344 17.7656C25.0859 17.3047 24.0938 16.6562 23.2578 15.8203C22.4141 15.0156 21.75 14.0469 21.2656 12.9141C20.7969 11.8047 20.5625 10.6523 20.5625 9.45703C20.5625 8.26172 20.7969 7.10938 21.2656 6C21.75 4.86719 22.4141 3.89844 23.2578 3.09375C24.1172 2.23438 25.1094 1.57813 26.2344 1.125C27.3281 0.679688 28.4961 0.457031 29.7383 0.457031C30.9805 0.457031 32.1562 0.683594 33.2656 1.13672C34.375 1.58203 35.3633 2.23438 36.2305 3.09375C37.1055 3.95312 37.7734 4.92188 38.2344 6C38.6797 7.07812 38.9023 8.23047 38.9023 9.45703ZM29.7383 14.4961C31.0273 14.4961 32.1055 14.0156 32.9727 13.0547C33.4023 12.5781 33.7188 12.043 33.9219 11.4492C34.125 10.8555 34.2266 10.1914 34.2266 9.45703C34.2266 8.02734 33.8008 6.82812 32.9492 5.85938C32.082 4.89844 31.0117 4.41797 29.7383 4.41797C28.4336 4.41797 27.3594 4.89844 26.5156 5.85938C25.6719 6.82031 25.25 8.01953 25.25 9.45703C25.25 10.9492 25.6641 12.1562 26.4922 13.0781C27.3438 14.0234 28.4258 14.4961 29.7383 14.4961ZM41.7148 0.84375H46.4023V9.1875C46.4023 10.4609 46.4336 11.3438 46.4961 11.8359C46.5742 12.4219 46.6797 12.8672 46.8125 13.1719C46.9766 13.6172 47.2852 13.9453 47.7383 14.1562C48.1914 14.3984 48.7383 14.5195 49.3789 14.5195C50.0117 14.5195 50.5547 14.3984 51.0078 14.1562C51.4219 13.9531 51.7344 13.625 51.9453 13.1719C52.0703 12.8594 52.1719 12.4141 52.25 11.8359C52.3203 11.3672 52.3555 10.4844 52.3555 9.1875V8.01562V0.84375H57.0078V9.91406C57.0078 11.7734 56.8945 13.1562 56.668 14.0625C56.457 14.9609 56.0742 15.7305 55.5195 16.3711C54.9102 17.082 54.1016 17.6016 53.0938 17.9297C52.0938 18.2812 50.8555 18.457 49.3789 18.457C47.8711 18.457 46.6289 18.2812 45.6523 17.9297C44.6602 17.6016 43.8516 17.082 43.2266 16.3711C42.6875 15.7461 42.3047 14.9766 42.0781 14.0625C41.8359 13.1406 41.7148 11.7578 41.7148 9.91406V8.13281V0.84375ZM60.5703 18V0.84375H65.457C66.4023 0.84375 67.1992 0.863281 67.8477 0.902344C68.5039 0.941406 69.043 1.00781 69.4648 1.10156C70.1914 1.27344 70.8398 1.57031 71.4102 1.99219C72.0352 2.46094 72.5078 3.0625 72.8281 3.79688C73.1641 4.5 73.332 5.29688 73.332 6.1875C73.332 7.50781 73.0039 8.58984 72.3477 9.43359C71.707 10.2773 70.7578 10.8281 69.5 11.0859L74.1758 18H68.8906L64.9531 11.2852V18H60.5703ZM64.9531 8.95312H65.8203C66.8438 8.95312 67.582 8.78516 68.0352 8.44922C68.4961 8.07422 68.7266 7.53125 68.7266 6.82031C68.7266 5.96094 68.5117 5.35156 68.082 4.99219C67.6445 4.625 66.9141 4.44141 65.8906 4.44141H64.9531V8.95312ZM76.0859 18V0.84375H80.8086V18H76.0859ZM85.3555 12.457C86.0742 13.2539 86.7617 13.8438 87.418 14.2266C88.1055 14.6172 88.7773 14.8125 89.4336 14.8125C90.0508 14.8125 90.5625 14.6445 90.9688 14.3086C91.375 13.9727 91.5781 13.5469 91.5781 13.0312C91.5781 12.4688 91.4102 12.0273 91.0742 11.707C90.7148 11.4023 89.9219 11.0859 88.6953 10.7578C87.0234 10.3047 85.8398 9.71875 85.1445 9C84.4414 8.26562 84.0898 7.26562 84.0898 6C84.0898 4.35938 84.6406 3.02344 85.7422 1.99219C86.8281 0.953125 88.25 0.433594 90.0078 0.433594C91 0.433594 91.8984 0.5625 92.7031 0.820312C93.5469 1.07812 94.3477 1.46094 95.1055 1.96875L93.6406 5.33203C93.125 4.88672 92.5781 4.54297 92 4.30078C91.4375 4.07422 90.8867 3.96094 90.3477 3.96094C89.8008 3.96094 89.3438 4.09766 88.9766 4.37109C88.625 4.62891 88.4492 4.97266 88.4492 5.40234C88.4492 5.81641 88.6016 6.16016 88.9062 6.43359C89.2266 6.69141 89.8281 6.9375 90.7109 7.17188C90.7422 7.17969 90.7695 7.1875 90.793 7.19531C90.8164 7.19531 90.8516 7.20312 90.8984 7.21875C92.8047 7.72656 94.0625 8.29688 94.6719 8.92969C95.0703 9.32812 95.3828 9.83203 95.6094 10.4414C95.8125 11.0195 95.9141 11.6758 95.9141 12.4102C95.9141 14.2227 95.3164 15.6875 94.1211 16.8047C92.918 17.9062 91.3242 18.457 89.3398 18.457C88.1211 18.457 87.0312 18.2578 86.0703 17.8594C85.1172 17.4609 84.1758 16.8203 83.2461 15.9375L85.3555 12.457ZM98.5391 18V0.84375H103.215V7.51172H109.449V0.84375H114.137V18H109.449V11.0156H103.215V18H98.5391Z" fill="white"/>
<path d="M131.691 5.01562C130.902 4.34375 130.066 3.83984 129.184 3.50391C128.309 3.16797 127.387 3 126.418 3C124.543 3 123.016 3.60156 121.836 4.80469C120.664 6.00781 120.078 7.56641 120.078 9.48047C120.078 11.332 120.648 12.8594 121.789 14.0625C122.938 15.2656 124.383 15.8672 126.125 15.8672C127.141 15.8672 128.105 15.6875 129.02 15.3281C129.941 14.9688 130.824 14.4258 131.668 13.6992V16.8516C130.918 17.3906 130.102 17.793 129.219 18.0586C128.336 18.3242 127.379 18.457 126.348 18.457C125.035 18.457 123.82 18.2422 122.703 17.8125C121.594 17.3828 120.617 16.75 119.773 15.9141C118.938 15.0938 118.293 14.1289 117.84 13.0195C117.395 11.9023 117.172 10.7148 117.172 9.45703C117.172 8.19922 117.395 7.01953 117.84 5.91797C118.293 4.80859 118.945 3.83594 119.797 3C120.648 2.15625 121.625 1.51953 122.727 1.08984C123.828 0.652344 125.02 0.433594 126.301 0.433594C127.309 0.433594 128.27 0.582031 129.184 0.878906C130.098 1.16797 130.984 1.60937 131.844 2.20312L131.691 5.01562ZM149.832 9.45703C149.832 8.58984 149.672 7.76562 149.352 6.98438C149.039 6.20312 148.586 5.50781 147.992 4.89844C147.414 4.29688 146.742 3.83594 145.977 3.51562C145.219 3.1875 144.418 3.02344 143.574 3.02344C142.73 3.02344 141.926 3.18359 141.16 3.50391C140.402 3.82422 139.727 4.28906 139.133 4.89844C138.539 5.5 138.086 6.19141 137.773 6.97266C137.461 7.75391 137.305 8.58203 137.305 9.45703C137.305 10.3242 137.461 11.1445 137.773 11.918C138.086 12.6914 138.539 13.3828 139.133 13.9922C139.727 14.6016 140.402 15.0664 141.16 15.3867C141.918 15.707 142.723 15.8672 143.574 15.8672C144.41 15.8672 145.203 15.707 145.953 15.3867C146.711 15.0664 147.391 14.6016 147.992 13.9922C148.586 13.3828 149.039 12.6914 149.352 11.918C149.672 11.1367 149.832 10.3164 149.832 9.45703ZM152.738 9.45703C152.738 10.6758 152.508 11.8281 152.047 12.9141C151.594 14 150.93 14.9688 150.055 15.8203C149.172 16.6719 148.176 17.3242 147.066 17.7773C145.957 18.2305 144.793 18.457 143.574 18.457C142.34 18.457 141.16 18.2305 140.035 17.7773C138.918 17.3164 137.93 16.6641 137.07 15.8203C136.195 14.9688 135.531 14.0039 135.078 12.9258C134.625 11.8477 134.398 10.6914 134.398 9.45703C134.398 8.23047 134.625 7.07422 135.078 5.98828C135.531 4.90234 136.195 3.92969 137.07 3.07031C137.945 2.21875 138.938 1.57031 140.047 1.125C141.156 0.679688 142.332 0.457031 143.574 0.457031C144.809 0.457031 145.977 0.679688 147.078 1.125C148.188 1.57031 149.18 2.21875 150.055 3.07031C150.93 3.9375 151.594 4.91797 152.047 6.01172C152.508 7.09766 152.738 8.24609 152.738 9.45703ZM155.938 18V0.164062L166.836 10.6523C167.133 10.9492 167.434 11.2656 167.738 11.6016C168.043 11.9375 168.363 12.3164 168.699 12.7383V0.84375H171.277V18.668L160.156 7.99219C159.859 7.70312 159.57 7.39844 159.289 7.07812C159.016 6.75781 158.754 6.42188 158.504 6.07031V18H155.938ZM175.227 18V0.164062L186.125 10.6523C186.422 10.9492 186.723 11.2656 187.027 11.6016C187.332 11.9375 187.652 12.3164 187.988 12.7383V0.84375H190.566V18.668L179.445 7.99219C179.148 7.70312 178.859 7.39844 178.578 7.07812C178.305 6.75781 178.043 6.42188 177.793 6.07031V18H175.227ZM194.516 18V0.84375H204.09V3.21094H197.305V7.51172H204.09V9.96094H197.305V15.5039H204.09V18H194.516ZM221.059 5.01562C220.27 4.34375 219.434 3.83984 218.551 3.50391C217.676 3.16797 216.754 3 215.785 3C213.91 3 212.383 3.60156 211.203 4.80469C210.031 6.00781 209.445 7.56641 209.445 9.48047C209.445 11.332 210.016 12.8594 211.156 14.0625C212.305 15.2656 213.75 15.8672 215.492 15.8672C216.508 15.8672 217.473 15.6875 218.387 15.3281C219.309 14.9688 220.191 14.4258 221.035 13.6992V16.8516C220.285 17.3906 219.469 17.793 218.586 18.0586C217.703 18.3242 216.746 18.457 215.715 18.457C214.402 18.457 213.188 18.2422 212.07 17.8125C210.961 17.3828 209.984 16.75 209.141 15.9141C208.305 15.0938 207.66 14.1289 207.207 13.0195C206.762 11.9023 206.539 10.7148 206.539 9.45703C206.539 8.19922 206.762 7.01953 207.207 5.91797C207.66 4.80859 208.312 3.83594 209.164 3C210.016 2.15625 210.992 1.51953 212.094 1.08984C213.195 0.652344 214.387 0.433594 215.668 0.433594C216.676 0.433594 217.637 0.582031 218.551 0.878906C219.465 1.16797 220.352 1.60937 221.211 2.20312L221.059 5.01562ZM230.059 3.21094V18H227.27V3.21094H222.711V0.84375H234.594V3.21094H230.059Z" fill="white" fill-opacity="0.5"/>
<defs>
<linearGradient id="paint0_linear_208_205" x1="41.3881" y1="19.863" x2="45.0287" y2="-19.478" gradientUnits="userSpaceOnUse">
<stop stop-color="#01965E"/>
<stop offset="1" stop-color="#1B2A24"/>
<stop offset="1" stop-color="#ABFFDD"/>
</linearGradient>
</defs>
</svg>
