<svg width="688" height="286" viewBox="0 0 688 286" fill="none" xmlns="http://www.w3.org/2000/svg">
<path d="M511.988 59.9908C511.988 79.2919 527.635 94.9385 546.931 94.9385H687.497V25.0517H546.931C527.635 25.0517 511.988 40.694 511.988 59.9908Z" fill="#3ECA65"/>
<path d="M413.65 59.3922C413.65 82.662 432.512 101.528 455.786 101.528C479.056 101.528 497.922 82.662 497.922 59.3922C497.922 36.1181 479.056 17.2561 455.786 17.2561C432.512 17.2561 413.65 36.1181 413.65 59.3922Z" fill="#1F1F1F"/>
<path d="M453.176 66.7402H369.635" stroke="#1F1F1F" stroke-width="15.8886" stroke-linecap="round" stroke-linejoin="round"/>
<path d="M454.252 89.9404H389.582" stroke="#1F1F1F" stroke-width="15.8886" stroke-linecap="round" stroke-linejoin="round"/>
<path d="M454.252 43.1562H383.702" stroke="#1F1F1F" stroke-width="15.8886" stroke-linecap="round" stroke-linejoin="round"/>
<path d="M530.239 59.3926H480.484" stroke="#1F1F1F" stroke-width="31.7772" stroke-linecap="round" stroke-linejoin="round"/>
<path d="M175.509 59.9908C175.509 79.2919 159.862 94.9385 140.566 94.9385H0V25.0517H140.566C159.862 25.0517 175.509 40.694 175.509 59.9908Z" fill="#006942"/>
<path d="M273.847 59.3922C273.847 82.662 254.985 101.528 231.711 101.528C208.442 101.528 189.575 82.662 189.575 59.3922C189.575 36.1181 208.442 17.2561 231.711 17.2561C254.985 17.2561 273.847 36.1181 273.847 59.3922Z" fill="#1F1F1F"/>
<path d="M234.321 66.7402H317.862" stroke="#1F1F1F" stroke-width="15.8886" stroke-linecap="round" stroke-linejoin="round"/>
<path d="M233.245 89.9404H297.915" stroke="#1F1F1F" stroke-width="15.8886" stroke-linecap="round" stroke-linejoin="round"/>
<path d="M233.245 43.1562H303.795" stroke="#1F1F1F" stroke-width="15.8886" stroke-linecap="round" stroke-linejoin="round"/>
<path d="M157.257 59.3926H207.012" stroke="#1F1F1F" stroke-width="31.7772" stroke-linecap="round" stroke-linejoin="round"/>
<path d="M415.724 285.937L231.641 285.717L231.804 150.011C231.822 134.92 235.175 120.013 241.631 106.371L257.939 71.8909L258.021 3.29977L432.652 3.50909C437.985 3.51549 442.306 7.85092 442.3 13.1841L442.231 70.2867L425.305 106.962C419.117 120.367 415.905 134.959 415.888 149.724L415.724 285.937Z" fill="#006942"/>
<path d="M431.971 1.23988C426.634 1.23348 422.281 5.5327 422.275 10.8702L422.252 51.6332L403.56 38.6975L385.81 51.5895L368.092 38.655L350.389 51.5471L332.666 38.6125L314.916 51.5045L297.198 38.57L279.491 51.4621L261.772 38.5275L246.866 49.3999L246.912 10.66C246.919 5.3225 251.228 1.02323 256.566 1.02962L431.971 1.23988Z" fill="#36B787"/>
<path d="M431.971 1.23988C426.634 1.23348 422.281 5.5327 422.275 10.8702L422.252 51.6332L403.56 38.6975L385.81 51.5895L368.092 38.655L350.389 51.5471L332.666 38.6125L314.916 51.5045L297.198 38.57L279.491 51.4621L261.772 38.5275L246.866 49.3999L246.912 10.66C246.919 5.3225 251.228 1.02323 256.566 1.02962L431.971 1.23988Z" stroke="white" stroke-width="2.037" stroke-linecap="round" stroke-linejoin="round"/>
<path d="M322.248 172.971C322.181 181.55 316.7 186.498 309.994 186.447C303.283 186.391 297.883 181.362 297.949 172.783C298.016 164.204 303.527 155.322 310.238 155.373C316.948 155.429 322.318 164.393 322.248 172.971Z" fill="white"/>
<path d="M310.035 181.062L309.689 225.178Z" fill="white"/>
<path d="M310.035 181.062L309.689 225.178" stroke="white" stroke-width="1.86531" stroke-miterlimit="10"/>
<path d="M327.823 200.776L328.17 155.399Z" fill="white"/>
<path d="M327.823 200.776L328.17 155.399" stroke="white" stroke-width="1.86531" stroke-miterlimit="10"/>
<path d="M318.465 225.12L318.483 209.973C318.489 204.889 322.622 200.775 327.706 200.781C332.789 200.787 336.904 204.911 336.897 209.995L336.879 225.142" stroke="white" stroke-width="1.86531" stroke-miterlimit="10"/>
<path d="M327.677 225.127L327.705 201.762" stroke="white" stroke-width="1.86531" stroke-miterlimit="10"/>
<path d="M458.987 107.123L443.524 73.1337L427.978 107.086C421.876 120.418 418.703 134.907 418.686 149.568L418.522 285.941L468.015 286L468.178 149.627C468.196 134.966 465.062 120.47 458.987 107.123Z" fill="#1F1F1F"/>
<path d="M446.157 17.2439L406.591 25.459C400.574 26.7084 396.702 32.6084 397.952 38.6258C399.201 44.6432 405.101 48.5145 411.119 47.2651L450.685 39.0499C456.702 37.8005 460.573 31.9005 459.324 25.8831C458.075 19.8657 452.175 15.9945 446.157 17.2439Z" fill="#F48C8C"/>
<path d="M241.642 17.3867L280.923 26.873C286.897 28.3158 290.576 34.3375 289.134 40.3115C287.691 46.2855 281.669 49.9645 275.695 48.5218L236.414 39.0355C230.44 37.5928 226.761 31.571 228.204 25.597C229.647 19.623 235.668 15.944 241.642 17.3867Z" fill="#F48C8C"/>
</svg>
