<svg width="1363" height="163" viewBox="0 0 1363 163" fill="none" xmlns="http://www.w3.org/2000/svg">
<path d="M0 15C0 6.71573 6.71573 0 15 0H37V163H15C6.71573 163 0 156.284 0 148V15Z" fill="#424242"/>
<rect width="1097" height="163" transform="translate(37)" fill="#F0F0F0"/>
<path d="M101.906 53.9219L94.3945 51.2383V48.0859L104.602 52.375V54.6367L101.906 53.9219ZM94.3945 56.1719L101.918 53.4297L104.602 52.7852V55.0352L94.3945 59.3242V56.1719ZM126.785 43.9375V61H123.27L116.414 49.5625V61H112.898V43.9375H116.414L123.281 55.3867V43.9375H126.785ZM129.094 54.7891V54.543C129.094 53.6133 129.227 52.7578 129.492 51.9766C129.758 51.1875 130.145 50.5039 130.652 49.9258C131.16 49.3477 131.785 48.8984 132.527 48.5781C133.27 48.25 134.121 48.0859 135.082 48.0859C136.043 48.0859 136.898 48.25 137.648 48.5781C138.398 48.8984 139.027 49.3477 139.535 49.9258C140.051 50.5039 140.441 51.1875 140.707 51.9766C140.973 52.7578 141.105 53.6133 141.105 54.543V54.7891C141.105 55.7109 140.973 56.5664 140.707 57.3555C140.441 58.1367 140.051 58.8203 139.535 59.4062C139.027 59.9844 138.402 60.4336 137.66 60.7539C136.918 61.0742 136.066 61.2344 135.105 61.2344C134.145 61.2344 133.289 61.0742 132.539 60.7539C131.797 60.4336 131.168 59.9844 130.652 59.4062C130.145 58.8203 129.758 58.1367 129.492 57.3555C129.227 56.5664 129.094 55.7109 129.094 54.7891ZM132.469 54.543V54.7891C132.469 55.3203 132.516 55.8164 132.609 56.2773C132.703 56.7383 132.852 57.1445 133.055 57.4961C133.266 57.8398 133.539 58.1094 133.875 58.3047C134.211 58.5 134.621 58.5977 135.105 58.5977C135.574 58.5977 135.977 58.5 136.312 58.3047C136.648 58.1094 136.918 57.8398 137.121 57.4961C137.324 57.1445 137.473 56.7383 137.566 56.2773C137.668 55.8164 137.719 55.3203 137.719 54.7891V54.543C137.719 54.0273 137.668 53.543 137.566 53.0898C137.473 52.6289 137.32 52.2227 137.109 51.8711C136.906 51.5117 136.637 51.2305 136.301 51.0273C135.965 50.8242 135.559 50.7227 135.082 50.7227C134.605 50.7227 134.199 50.8242 133.863 51.0273C133.535 51.2305 133.266 51.5117 133.055 51.8711C132.852 52.2227 132.703 52.6289 132.609 53.0898C132.516 53.543 132.469 54.0273 132.469 54.543ZM150.68 57.9648V48.3203H154.055V61H150.879L150.68 57.9648ZM151.055 55.3633L152.051 55.3398C152.051 56.1836 151.953 56.9688 151.758 57.6953C151.562 58.4141 151.27 59.0391 150.879 59.5703C150.488 60.0938 149.996 60.5039 149.402 60.8008C148.809 61.0898 148.109 61.2344 147.305 61.2344C146.688 61.2344 146.117 61.1484 145.594 60.9766C145.078 60.7969 144.633 60.5195 144.258 60.1445C143.891 59.7617 143.602 59.2734 143.391 58.6797C143.188 58.0781 143.086 57.3555 143.086 56.5117V48.3203H146.461V56.5352C146.461 56.9102 146.504 57.2266 146.59 57.4844C146.684 57.7422 146.812 57.9531 146.977 58.1172C147.141 58.2812 147.332 58.3984 147.551 58.4688C147.777 58.5391 148.027 58.5742 148.301 58.5742C148.996 58.5742 149.543 58.4336 149.941 58.1523C150.348 57.8711 150.633 57.4883 150.797 57.0039C150.969 56.5117 151.055 55.9648 151.055 55.3633ZM160.008 51.0859V61H156.633V48.3203H159.809L160.008 51.0859ZM163.828 48.2383L163.77 51.3672C163.605 51.3438 163.406 51.3242 163.172 51.3086C162.945 51.2852 162.738 51.2734 162.551 51.2734C162.074 51.2734 161.66 51.3359 161.309 51.4609C160.965 51.5781 160.676 51.7539 160.441 51.9883C160.215 52.2227 160.043 52.5078 159.926 52.8438C159.816 53.1797 159.754 53.5625 159.738 53.9922L159.059 53.7812C159.059 52.9609 159.141 52.207 159.305 51.5195C159.469 50.8242 159.707 50.2188 160.02 49.7031C160.34 49.1875 160.73 48.7891 161.191 48.5078C161.652 48.2266 162.18 48.0859 162.773 48.0859C162.961 48.0859 163.152 48.1016 163.348 48.1328C163.543 48.1562 163.703 48.1914 163.828 48.2383ZM168.984 48.3203V61H165.598V48.3203H168.984ZM165.387 45.0156C165.387 44.5234 165.559 44.1172 165.902 43.7969C166.246 43.4766 166.707 43.3164 167.285 43.3164C167.855 43.3164 168.312 43.4766 168.656 43.7969C169.008 44.1172 169.184 44.5234 169.184 45.0156C169.184 45.5078 169.008 45.9141 168.656 46.2344C168.312 46.5547 167.855 46.7148 167.285 46.7148C166.707 46.7148 166.246 46.5547 165.902 46.2344C165.559 45.9141 165.387 45.5078 165.387 45.0156ZM178.629 57.4961C178.629 57.2539 178.559 57.0352 178.418 56.8398C178.277 56.6445 178.016 56.4648 177.633 56.3008C177.258 56.1289 176.715 55.9727 176.004 55.832C175.363 55.6914 174.766 55.5156 174.211 55.3047C173.664 55.0859 173.188 54.8242 172.781 54.5195C172.383 54.2148 172.07 53.8555 171.844 53.4414C171.617 53.0195 171.504 52.5391 171.504 52C171.504 51.4688 171.617 50.9688 171.844 50.5C172.078 50.0312 172.41 49.6172 172.84 49.2578C173.277 48.8906 173.809 48.6055 174.434 48.4023C175.066 48.1914 175.777 48.0859 176.566 48.0859C177.668 48.0859 178.613 48.2617 179.402 48.6133C180.199 48.9648 180.809 49.4492 181.23 50.0664C181.66 50.6758 181.875 51.3711 181.875 52.1523H178.5C178.5 51.8242 178.43 51.5312 178.289 51.2734C178.156 51.0078 177.945 50.8008 177.656 50.6523C177.375 50.4961 177.008 50.418 176.555 50.418C176.18 50.418 175.855 50.4844 175.582 50.6172C175.309 50.7422 175.098 50.9141 174.949 51.1328C174.809 51.3438 174.738 51.5781 174.738 51.8359C174.738 52.0312 174.777 52.207 174.855 52.3633C174.941 52.5117 175.078 52.6484 175.266 52.7734C175.453 52.8984 175.695 53.0156 175.992 53.125C176.297 53.2266 176.672 53.3203 177.117 53.4062C178.031 53.5938 178.848 53.8398 179.566 54.1445C180.285 54.4414 180.855 54.8477 181.277 55.3633C181.699 55.8711 181.91 56.5391 181.91 57.3672C181.91 57.9297 181.785 58.4453 181.535 58.9141C181.285 59.3828 180.926 59.793 180.457 60.1445C179.988 60.4883 179.426 60.7578 178.77 60.9531C178.121 61.1406 177.391 61.2344 176.578 61.2344C175.398 61.2344 174.398 61.0234 173.578 60.6016C172.766 60.1797 172.148 59.6445 171.727 58.9961C171.312 58.3398 171.105 57.668 171.105 56.9805H174.305C174.32 57.4414 174.438 57.8125 174.656 58.0938C174.883 58.375 175.168 58.5781 175.512 58.7031C175.863 58.8281 176.242 58.8906 176.648 58.8906C177.086 58.8906 177.449 58.832 177.738 58.7148C178.027 58.5898 178.246 58.4258 178.395 58.2227C178.551 58.0117 178.629 57.7695 178.629 57.4961ZM187.395 43V61H184.02V43H187.395ZM186.914 54.2148H185.988C185.996 53.332 186.113 52.5195 186.34 51.7773C186.566 51.0273 186.891 50.3789 187.312 49.832C187.734 49.2773 188.238 48.8477 188.824 48.543C189.418 48.2383 190.074 48.0859 190.793 48.0859C191.418 48.0859 191.984 48.1758 192.492 48.3555C193.008 48.5273 193.449 48.8086 193.816 49.1992C194.191 49.582 194.48 50.0859 194.684 50.7109C194.887 51.3359 194.988 52.0938 194.988 52.9844V61H191.59V52.9609C191.59 52.3984 191.508 51.957 191.344 51.6367C191.188 51.3086 190.957 51.0781 190.652 50.9453C190.355 50.8047 189.988 50.7344 189.551 50.7344C189.066 50.7344 188.652 50.8242 188.309 51.0039C187.973 51.1836 187.703 51.4336 187.5 51.7539C187.297 52.0664 187.148 52.4336 187.055 52.8555C186.961 53.2773 186.914 53.7305 186.914 54.2148ZM213.633 55.3398H217.137C217.066 56.4883 216.75 57.5078 216.188 58.3984C215.633 59.2891 214.855 59.9844 213.855 60.4844C212.863 60.9844 211.668 61.2344 210.27 61.2344C209.176 61.2344 208.195 61.0469 207.328 60.6719C206.461 60.2891 205.719 59.7422 205.102 59.0312C204.492 58.3203 204.027 57.4609 203.707 56.4531C203.387 55.4453 203.227 54.3164 203.227 53.0664V51.8828C203.227 50.6328 203.391 49.5039 203.719 48.4961C204.055 47.4805 204.531 46.6172 205.148 45.9062C205.773 45.1953 206.52 44.6484 207.387 44.2656C208.254 43.8828 209.223 43.6914 210.293 43.6914C211.715 43.6914 212.914 43.9492 213.891 44.4648C214.875 44.9805 215.637 45.6914 216.176 46.5977C216.723 47.5039 217.051 48.5352 217.16 49.6914H213.645C213.605 49.0039 213.469 48.4219 213.234 47.9453C213 47.4609 212.645 47.0977 212.168 46.8555C211.699 46.6055 211.074 46.4805 210.293 46.4805C209.707 46.4805 209.195 46.5898 208.758 46.8086C208.32 47.0273 207.953 47.3594 207.656 47.8047C207.359 48.25 207.137 48.8125 206.988 49.4922C206.848 50.1641 206.777 50.9531 206.777 51.8594V53.0664C206.777 53.9492 206.844 54.7266 206.977 55.3984C207.109 56.0625 207.312 56.625 207.586 57.0859C207.867 57.5391 208.227 57.8828 208.664 58.1172C209.109 58.3438 209.645 58.457 210.27 58.457C211.004 58.457 211.609 58.3398 212.086 58.1055C212.562 57.8711 212.926 57.5234 213.176 57.0625C213.434 56.6016 213.586 56.0273 213.633 55.3398ZM218.695 54.7891V54.543C218.695 53.6133 218.828 52.7578 219.094 51.9766C219.359 51.1875 219.746 50.5039 220.254 49.9258C220.762 49.3477 221.387 48.8984 222.129 48.5781C222.871 48.25 223.723 48.0859 224.684 48.0859C225.645 48.0859 226.5 48.25 227.25 48.5781C228 48.8984 228.629 49.3477 229.137 49.9258C229.652 50.5039 230.043 51.1875 230.309 51.9766C230.574 52.7578 230.707 53.6133 230.707 54.543V54.7891C230.707 55.7109 230.574 56.5664 230.309 57.3555C230.043 58.1367 229.652 58.8203 229.137 59.4062C228.629 59.9844 228.004 60.4336 227.262 60.7539C226.52 61.0742 225.668 61.2344 224.707 61.2344C223.746 61.2344 222.891 61.0742 222.141 60.7539C221.398 60.4336 220.77 59.9844 220.254 59.4062C219.746 58.8203 219.359 58.1367 219.094 57.3555C218.828 56.5664 218.695 55.7109 218.695 54.7891ZM222.07 54.543V54.7891C222.07 55.3203 222.117 55.8164 222.211 56.2773C222.305 56.7383 222.453 57.1445 222.656 57.4961C222.867 57.8398 223.141 58.1094 223.477 58.3047C223.812 58.5 224.223 58.5977 224.707 58.5977C225.176 58.5977 225.578 58.5 225.914 58.3047C226.25 58.1094 226.52 57.8398 226.723 57.4961C226.926 57.1445 227.074 56.7383 227.168 56.2773C227.27 55.8164 227.32 55.3203 227.32 54.7891V54.543C227.32 54.0273 227.27 53.543 227.168 53.0898C227.074 52.6289 226.922 52.2227 226.711 51.8711C226.508 51.5117 226.238 51.2305 225.902 51.0273C225.566 50.8242 225.16 50.7227 224.684 50.7227C224.207 50.7227 223.801 50.8242 223.465 51.0273C223.137 51.2305 222.867 51.5117 222.656 51.8711C222.453 52.2227 222.305 52.6289 222.211 53.0898C222.117 53.543 222.07 54.0273 222.07 54.543ZM236.086 51.0273V61H232.711V48.3203H235.875L236.086 51.0273ZM235.594 54.2148H234.68C234.68 53.2773 234.801 52.4336 235.043 51.6836C235.285 50.9258 235.625 50.2812 236.062 49.75C236.5 49.2109 237.02 48.8008 237.621 48.5195C238.23 48.2305 238.91 48.0859 239.66 48.0859C240.254 48.0859 240.797 48.1719 241.289 48.3438C241.781 48.5156 242.203 48.7891 242.555 49.1641C242.914 49.5391 243.188 50.0352 243.375 50.6523C243.57 51.2695 243.668 52.0234 243.668 52.9141V61H240.27V52.9023C240.27 52.3398 240.191 51.9023 240.035 51.5898C239.879 51.2773 239.648 51.0586 239.344 50.9336C239.047 50.8008 238.68 50.7344 238.242 50.7344C237.789 50.7344 237.395 50.8242 237.059 51.0039C236.73 51.1836 236.457 51.4336 236.238 51.7539C236.027 52.0664 235.867 52.4336 235.758 52.8555C235.648 53.2773 235.594 53.7305 235.594 54.2148ZM249.539 51.0273V61H246.164V48.3203H249.328L249.539 51.0273ZM249.047 54.2148H248.133C248.133 53.2773 248.254 52.4336 248.496 51.6836C248.738 50.9258 249.078 50.2812 249.516 49.75C249.953 49.2109 250.473 48.8008 251.074 48.5195C251.684 48.2305 252.363 48.0859 253.113 48.0859C253.707 48.0859 254.25 48.1719 254.742 48.3438C255.234 48.5156 255.656 48.7891 256.008 49.1641C256.367 49.5391 256.641 50.0352 256.828 50.6523C257.023 51.2695 257.121 52.0234 257.121 52.9141V61H253.723V52.9023C253.723 52.3398 253.645 51.9023 253.488 51.5898C253.332 51.2773 253.102 51.0586 252.797 50.9336C252.5 50.8008 252.133 50.7344 251.695 50.7344C251.242 50.7344 250.848 50.8242 250.512 51.0039C250.184 51.1836 249.91 51.4336 249.691 51.7539C249.48 52.0664 249.32 52.4336 249.211 52.8555C249.102 53.2773 249.047 53.7305 249.047 54.2148ZM265.523 61.2344C264.539 61.2344 263.656 61.0781 262.875 60.7656C262.094 60.4453 261.43 60.0039 260.883 59.4414C260.344 58.8789 259.93 58.2266 259.641 57.4844C259.352 56.7344 259.207 55.9375 259.207 55.0938V54.625C259.207 53.6641 259.344 52.7852 259.617 51.9883C259.891 51.1914 260.281 50.5 260.789 49.9141C261.305 49.3281 261.93 48.8789 262.664 48.5664C263.398 48.2461 264.227 48.0859 265.148 48.0859C266.047 48.0859 266.844 48.2344 267.539 48.5312C268.234 48.8281 268.816 49.25 269.285 49.7969C269.762 50.3438 270.121 51 270.363 51.7656C270.605 52.5234 270.727 53.3672 270.727 54.2969V55.7031H260.648V53.4531H267.41V53.1953C267.41 52.7266 267.324 52.3086 267.152 51.9414C266.988 51.5664 266.738 51.2695 266.402 51.0508C266.066 50.832 265.637 50.7227 265.113 50.7227C264.668 50.7227 264.285 50.8203 263.965 51.0156C263.645 51.2109 263.383 51.4844 263.18 51.8359C262.984 52.1875 262.836 52.6016 262.734 53.0781C262.641 53.5469 262.594 54.0625 262.594 54.625V55.0938C262.594 55.6016 262.664 56.0703 262.805 56.5C262.953 56.9297 263.16 57.3008 263.426 57.6133C263.699 57.9258 264.027 58.168 264.41 58.3398C264.801 58.5117 265.242 58.5977 265.734 58.5977C266.344 58.5977 266.91 58.4805 267.434 58.2461C267.965 58.0039 268.422 57.6406 268.805 57.1562L270.445 58.9375C270.18 59.3203 269.816 59.6875 269.355 60.0391C268.902 60.3906 268.355 60.6797 267.715 60.9062C267.074 61.125 266.344 61.2344 265.523 61.2344ZM277.887 58.5977C278.301 58.5977 278.668 58.5195 278.988 58.3633C279.309 58.1992 279.559 57.9727 279.738 57.6836C279.926 57.3867 280.023 57.0391 280.031 56.6406H283.207C283.199 57.5312 282.961 58.3242 282.492 59.0195C282.023 59.707 281.395 60.25 280.605 60.6484C279.816 61.0391 278.934 61.2344 277.957 61.2344C276.973 61.2344 276.113 61.0703 275.379 60.7422C274.652 60.4141 274.047 59.9609 273.562 59.3828C273.078 58.7969 272.715 58.1172 272.473 57.3438C272.23 56.5625 272.109 55.7266 272.109 54.8359V54.4961C272.109 53.5977 272.23 52.7617 272.473 51.9883C272.715 51.207 273.078 50.5273 273.562 49.9492C274.047 49.3633 274.652 48.9062 275.379 48.5781C276.105 48.25 276.957 48.0859 277.934 48.0859C278.973 48.0859 279.883 48.2852 280.664 48.6836C281.453 49.082 282.07 49.6523 282.516 50.3945C282.969 51.1289 283.199 52 283.207 53.0078H280.031C280.023 52.5859 279.934 52.2031 279.762 51.8594C279.598 51.5156 279.355 51.2422 279.035 51.0391C278.723 50.8281 278.336 50.7227 277.875 50.7227C277.383 50.7227 276.98 50.8281 276.668 51.0391C276.355 51.2422 276.113 51.5234 275.941 51.8828C275.77 52.2344 275.648 52.6367 275.578 53.0898C275.516 53.5352 275.484 54.0039 275.484 54.4961V54.8359C275.484 55.3281 275.516 55.8008 275.578 56.2539C275.641 56.707 275.758 57.1094 275.93 57.4609C276.109 57.8125 276.355 58.0898 276.668 58.293C276.98 58.4961 277.387 58.5977 277.887 58.5977ZM291.375 48.3203V50.7109H283.992V48.3203H291.375ZM285.82 45.1914H289.195V57.1797C289.195 57.5469 289.242 57.8281 289.336 58.0234C289.438 58.2188 289.586 58.3555 289.781 58.4336C289.977 58.5039 290.223 58.5391 290.52 58.5391C290.73 58.5391 290.918 58.5312 291.082 58.5156C291.254 58.4922 291.398 58.4688 291.516 58.4453L291.527 60.9297C291.238 61.0234 290.926 61.0977 290.59 61.1523C290.254 61.207 289.883 61.2344 289.477 61.2344C288.734 61.2344 288.086 61.1133 287.531 60.8711C286.984 60.6211 286.562 60.2227 286.266 59.6758C285.969 59.1289 285.82 58.4102 285.82 57.5195V45.1914Z" fill="#888888"/>
<path d="M109.219 107.422H100.734V101.07H109.219C110.375 101.07 111.312 100.875 112.031 100.484C112.75 100.094 113.273 99.5547 113.602 98.8672C113.945 98.1641 114.117 97.375 114.117 96.5C114.117 95.5625 113.945 94.6953 113.602 93.8984C113.273 93.1016 112.75 92.4609 112.031 91.9766C111.312 91.4766 110.375 91.2266 109.219 91.2266H103.828V119H95.6016V84.875H109.219C111.953 84.875 114.305 85.375 116.273 86.375C118.258 87.375 119.781 88.75 120.844 90.5C121.906 92.2344 122.438 94.2188 122.438 96.4531C122.438 98.6562 121.906 100.578 120.844 102.219C119.781 103.859 118.258 105.141 116.273 106.062C114.305 106.969 111.953 107.422 109.219 107.422ZM134.461 99.9219V119H126.562V93.6406H133.945L134.461 99.9219ZM141.961 93.4531L141.82 100.789C141.508 100.758 141.086 100.719 140.555 100.672C140.023 100.625 139.578 100.602 139.219 100.602C138.297 100.602 137.5 100.711 136.828 100.93C136.172 101.133 135.625 101.445 135.188 101.867C134.766 102.273 134.453 102.789 134.25 103.414C134.062 104.039 133.977 104.766 133.992 105.594L132.562 104.656C132.562 102.953 132.727 101.406 133.055 100.016C133.398 98.6094 133.883 97.3984 134.508 96.3828C135.133 95.3516 135.891 94.5625 136.781 94.0156C137.672 93.4531 138.672 93.1719 139.781 93.1719C140.172 93.1719 140.555 93.1953 140.93 93.2422C141.32 93.2891 141.664 93.3594 141.961 93.4531ZM142.852 106.578V106.086C142.852 104.227 143.117 102.516 143.648 100.953C144.18 99.375 144.961 98.0078 145.992 96.8516C147.023 95.6953 148.297 94.7969 149.812 94.1562C151.328 93.5 153.078 93.1719 155.062 93.1719C157.062 93.1719 158.82 93.5 160.336 94.1562C161.867 94.7969 163.148 95.6953 164.18 96.8516C165.211 98.0078 165.992 99.375 166.523 100.953C167.055 102.516 167.32 104.227 167.32 106.086V106.578C167.32 108.422 167.055 110.133 166.523 111.711C165.992 113.273 165.211 114.641 164.18 115.812C163.148 116.969 161.875 117.867 160.359 118.508C158.844 119.148 157.094 119.469 155.109 119.469C153.125 119.469 151.367 119.148 149.836 118.508C148.305 117.867 147.023 116.969 145.992 115.812C144.961 114.641 144.18 113.273 143.648 111.711C143.117 110.133 142.852 108.422 142.852 106.578ZM150.75 106.086V106.578C150.75 107.531 150.82 108.422 150.961 109.25C151.102 110.078 151.336 110.805 151.664 111.43C151.992 112.039 152.438 112.516 153 112.859C153.562 113.203 154.266 113.375 155.109 113.375C155.938 113.375 156.625 113.203 157.172 112.859C157.734 112.516 158.18 112.039 158.508 111.43C158.836 110.805 159.07 110.078 159.211 109.25C159.352 108.422 159.422 107.531 159.422 106.578V106.086C159.422 105.164 159.352 104.297 159.211 103.484C159.07 102.656 158.836 101.93 158.508 101.305C158.18 100.664 157.734 100.164 157.172 99.8047C156.609 99.4453 155.906 99.2656 155.062 99.2656C154.234 99.2656 153.539 99.4453 152.977 99.8047C152.43 100.164 151.992 100.664 151.664 101.305C151.336 101.93 151.102 102.656 150.961 103.484C150.82 104.297 150.75 105.164 150.75 106.086ZM171.422 93.6406H179.344V119.82C179.344 121.852 178.953 123.562 178.172 124.953C177.391 126.359 176.273 127.422 174.82 128.141C173.367 128.875 171.633 129.242 169.617 129.242C168.945 129.242 168.328 129.211 167.766 129.148C167.188 129.102 166.555 129 165.867 128.844V122.867C166.273 122.93 166.648 122.977 166.992 123.008C167.336 123.055 167.711 123.078 168.117 123.078C168.836 123.078 169.438 122.961 169.922 122.727C170.406 122.492 170.773 122.133 171.023 121.648C171.289 121.164 171.422 120.555 171.422 119.82V93.6406ZM170.836 87.1016C170.836 85.9766 171.242 85.0547 172.055 84.3359C172.867 83.6172 173.922 83.2578 175.219 83.2578C176.516 83.2578 177.57 83.6172 178.383 84.3359C179.195 85.0547 179.602 85.9766 179.602 87.1016C179.602 88.2266 179.195 89.1484 178.383 89.8672C177.57 90.5859 176.516 90.9453 175.219 90.9453C173.922 90.9453 172.867 90.5859 172.055 89.8672C171.242 89.1484 170.836 88.2266 170.836 87.1016ZM196.102 119.469C194.039 119.469 192.195 119.148 190.57 118.508C188.945 117.852 187.57 116.953 186.445 115.812C185.336 114.672 184.484 113.359 183.891 111.875C183.312 110.391 183.023 108.82 183.023 107.164V106.273C183.023 104.414 183.281 102.695 183.797 101.117C184.312 99.5234 185.078 98.1328 186.094 96.9453C187.109 95.7578 188.383 94.8359 189.914 94.1797C191.445 93.5078 193.227 93.1719 195.258 93.1719C197.055 93.1719 198.664 93.4609 200.086 94.0391C201.508 94.6172 202.711 95.4453 203.695 96.5234C204.695 97.6016 205.453 98.9062 205.969 100.438C206.5 101.969 206.766 103.688 206.766 105.594V108.805H186.047V103.859H199.055V103.25C199.07 102.406 198.922 101.688 198.609 101.094C198.312 100.5 197.875 100.047 197.297 99.7344C196.719 99.4219 196.016 99.2656 195.188 99.2656C194.328 99.2656 193.617 99.4531 193.055 99.8281C192.508 100.203 192.078 100.719 191.766 101.375C191.469 102.016 191.258 102.758 191.133 103.602C191.008 104.445 190.945 105.336 190.945 106.273V107.164C190.945 108.102 191.07 108.953 191.32 109.719C191.586 110.484 191.961 111.141 192.445 111.688C192.945 112.219 193.539 112.633 194.227 112.93C194.93 113.227 195.727 113.375 196.617 113.375C197.695 113.375 198.758 113.172 199.805 112.766C200.852 112.359 201.75 111.688 202.5 110.75L206.086 115.016C205.57 115.75 204.836 116.461 203.883 117.148C202.945 117.836 201.82 118.398 200.508 118.836C199.195 119.258 197.727 119.469 196.102 119.469ZM220.688 113.375C221.422 113.375 222.047 113.242 222.562 112.977C223.094 112.695 223.492 112.305 223.758 111.805C224.039 111.289 224.172 110.672 224.156 109.953H231.586C231.602 111.859 231.133 113.531 230.18 114.969C229.242 116.391 227.961 117.5 226.336 118.297C224.727 119.078 222.906 119.469 220.875 119.469C218.891 119.469 217.156 119.148 215.672 118.508C214.188 117.852 212.945 116.945 211.945 115.789C210.961 114.617 210.219 113.25 209.719 111.688C209.234 110.125 208.992 108.43 208.992 106.602V106.062C208.992 104.234 209.234 102.539 209.719 100.977C210.219 99.3984 210.961 98.0312 211.945 96.875C212.945 95.7031 214.18 94.7969 215.648 94.1562C217.133 93.5 218.859 93.1719 220.828 93.1719C222.938 93.1719 224.797 93.5703 226.406 94.3672C228.031 95.1641 229.305 96.3203 230.227 97.8359C231.148 99.3516 231.602 101.188 231.586 103.344H224.156C224.172 102.578 224.055 101.891 223.805 101.281C223.555 100.672 223.164 100.188 222.633 99.8281C222.117 99.4531 221.453 99.2656 220.641 99.2656C219.828 99.2656 219.172 99.4453 218.672 99.8047C218.172 100.164 217.789 100.664 217.523 101.305C217.273 101.93 217.102 102.648 217.008 103.461C216.93 104.273 216.891 105.141 216.891 106.062V106.602C216.891 107.539 216.93 108.422 217.008 109.25C217.102 110.062 217.281 110.781 217.547 111.406C217.812 112.016 218.195 112.5 218.695 112.859C219.195 113.203 219.859 113.375 220.688 113.375ZM248.32 93.6406V99.125H233.039V93.6406H248.32ZM236.25 87.3359H244.148V110.727C244.148 111.398 244.227 111.922 244.383 112.297C244.539 112.656 244.805 112.914 245.18 113.07C245.57 113.211 246.086 113.281 246.727 113.281C247.18 113.281 247.555 113.273 247.852 113.258C248.148 113.227 248.43 113.188 248.695 113.141V118.789C248.023 119.008 247.32 119.172 246.586 119.281C245.852 119.406 245.07 119.469 244.242 119.469C242.555 119.469 241.109 119.203 239.906 118.672C238.719 118.141 237.812 117.305 237.188 116.164C236.562 115.023 236.25 113.539 236.25 111.711V87.3359ZM277.406 107.422H268.922V101.07H277.406C278.562 101.07 279.5 100.875 280.219 100.484C280.938 100.094 281.461 99.5547 281.789 98.8672C282.133 98.1641 282.305 97.375 282.305 96.5C282.305 95.5625 282.133 94.6953 281.789 93.8984C281.461 93.1016 280.938 92.4609 280.219 91.9766C279.5 91.4766 278.562 91.2266 277.406 91.2266H272.016V119H263.789V84.875H277.406C280.141 84.875 282.492 85.375 284.461 86.375C286.445 87.375 287.969 88.75 289.031 90.5C290.094 92.2344 290.625 94.2188 290.625 96.4531C290.625 98.6562 290.094 100.578 289.031 102.219C287.969 103.859 286.445 105.141 284.461 106.062C282.492 106.969 280.141 107.422 277.406 107.422ZM302.414 83V119H294.516V83H302.414ZM301.477 105.453L299.625 105.5C299.625 103.719 299.844 102.078 300.281 100.578C300.719 99.0781 301.344 97.7734 302.156 96.6641C302.969 95.5547 303.945 94.6953 305.086 94.0859C306.227 93.4766 307.492 93.1719 308.883 93.1719C310.133 93.1719 311.273 93.3516 312.305 93.7109C313.352 94.0703 314.25 94.6484 315 95.4453C315.766 96.2422 316.352 97.2812 316.758 98.5625C317.18 99.8438 317.391 101.406 317.391 103.25V119H309.445V103.203C309.445 102.172 309.297 101.375 309 100.812C308.719 100.234 308.312 99.8359 307.781 99.6172C307.25 99.3828 306.602 99.2656 305.836 99.2656C304.914 99.2656 304.164 99.4219 303.586 99.7344C303.008 100.047 302.562 100.484 302.25 101.047C301.953 101.594 301.75 102.242 301.641 102.992C301.531 103.742 301.477 104.562 301.477 105.453ZM330.117 93.6406V119H322.195V93.6406H330.117ZM321.727 87.1016C321.727 85.9766 322.133 85.0547 322.945 84.3359C323.758 83.6172 324.812 83.2578 326.109 83.2578C327.406 83.2578 328.461 83.6172 329.273 84.3359C330.086 85.0547 330.492 85.9766 330.492 87.1016C330.492 88.2266 330.086 89.1484 329.273 89.8672C328.461 90.5859 327.406 90.9453 326.109 90.9453C324.812 90.9453 323.758 90.5859 322.945 89.8672C322.133 89.1484 321.727 88.2266 321.727 87.1016ZM343.336 83V119H335.414V83H343.336ZM347.227 106.578V106.086C347.227 104.227 347.492 102.516 348.023 100.953C348.555 99.375 349.336 98.0078 350.367 96.8516C351.398 95.6953 352.672 94.7969 354.188 94.1562C355.703 93.5 357.453 93.1719 359.438 93.1719C361.438 93.1719 363.195 93.5 364.711 94.1562C366.242 94.7969 367.523 95.6953 368.555 96.8516C369.586 98.0078 370.367 99.375 370.898 100.953C371.43 102.516 371.695 104.227 371.695 106.086V106.578C371.695 108.422 371.43 110.133 370.898 111.711C370.367 113.273 369.586 114.641 368.555 115.812C367.523 116.969 366.25 117.867 364.734 118.508C363.219 119.148 361.469 119.469 359.484 119.469C357.5 119.469 355.742 119.148 354.211 118.508C352.68 117.867 351.398 116.969 350.367 115.812C349.336 114.641 348.555 113.273 348.023 111.711C347.492 110.133 347.227 108.422 347.227 106.578ZM355.125 106.086V106.578C355.125 107.531 355.195 108.422 355.336 109.25C355.477 110.078 355.711 110.805 356.039 111.43C356.367 112.039 356.812 112.516 357.375 112.859C357.938 113.203 358.641 113.375 359.484 113.375C360.312 113.375 361 113.203 361.547 112.859C362.109 112.516 362.555 112.039 362.883 111.43C363.211 110.805 363.445 110.078 363.586 109.25C363.727 108.422 363.797 107.531 363.797 106.578V106.086C363.797 105.164 363.727 104.297 363.586 103.484C363.445 102.656 363.211 101.93 362.883 101.305C362.555 100.664 362.109 100.164 361.547 99.8047C360.984 99.4453 360.281 99.2656 359.438 99.2656C358.609 99.2656 357.914 99.4453 357.352 99.8047C356.805 100.164 356.367 100.664 356.039 101.305C355.711 101.93 355.477 102.656 355.336 103.484C355.195 104.297 355.125 105.164 355.125 106.086ZM388.5 111.875C388.5 111.438 388.352 111.062 388.055 110.75C387.773 110.422 387.273 110.125 386.555 109.859C385.836 109.578 384.828 109.297 383.531 109.016C382.297 108.75 381.133 108.398 380.039 107.961C378.961 107.523 378.016 106.992 377.203 106.367C376.391 105.742 375.75 105 375.281 104.141C374.828 103.281 374.602 102.297 374.602 101.188C374.602 100.109 374.828 99.0938 375.281 98.1406C375.75 97.1719 376.43 96.3203 377.32 95.5859C378.227 94.8359 379.328 94.25 380.625 93.8281C381.922 93.3906 383.398 93.1719 385.055 93.1719C387.336 93.1719 389.305 93.5234 390.961 94.2266C392.617 94.9141 393.891 95.8828 394.781 97.1328C395.688 98.3672 396.141 99.7969 396.141 101.422H388.242C388.242 100.781 388.133 100.234 387.914 99.7812C387.711 99.3281 387.375 98.9844 386.906 98.75C386.438 98.5 385.812 98.375 385.031 98.375C384.484 98.375 383.984 98.4766 383.531 98.6797C383.094 98.8828 382.742 99.1641 382.477 99.5234C382.211 99.8828 382.078 100.305 382.078 100.789C382.078 101.133 382.156 101.445 382.312 101.727C382.484 101.992 382.742 102.242 383.086 102.477C383.43 102.695 383.867 102.898 384.398 103.086C384.93 103.258 385.57 103.414 386.32 103.555C388.023 103.867 389.617 104.312 391.102 104.891C392.586 105.469 393.789 106.289 394.711 107.352C395.648 108.414 396.117 109.844 396.117 111.641C396.117 112.766 395.859 113.805 395.344 114.758C394.828 115.695 394.086 116.523 393.117 117.242C392.148 117.945 390.984 118.492 389.625 118.883C388.266 119.273 386.734 119.469 385.031 119.469C382.609 119.469 380.562 119.039 378.891 118.18C377.219 117.305 375.953 116.211 375.094 114.898C374.25 113.57 373.828 112.227 373.828 110.867H381.188C381.219 111.648 381.406 112.289 381.75 112.789C382.109 113.289 382.586 113.656 383.18 113.891C383.773 114.125 384.461 114.242 385.242 114.242C385.961 114.242 386.555 114.141 387.023 113.938C387.508 113.734 387.875 113.461 388.125 113.117C388.375 112.758 388.5 112.344 388.5 111.875ZM398.836 106.578V106.086C398.836 104.227 399.102 102.516 399.633 100.953C400.164 99.375 400.945 98.0078 401.977 96.8516C403.008 95.6953 404.281 94.7969 405.797 94.1562C407.312 93.5 409.062 93.1719 411.047 93.1719C413.047 93.1719 414.805 93.5 416.32 94.1562C417.852 94.7969 419.133 95.6953 420.164 96.8516C421.195 98.0078 421.977 99.375 422.508 100.953C423.039 102.516 423.305 104.227 423.305 106.086V106.578C423.305 108.422 423.039 110.133 422.508 111.711C421.977 113.273 421.195 114.641 420.164 115.812C419.133 116.969 417.859 117.867 416.344 118.508C414.828 119.148 413.078 119.469 411.094 119.469C409.109 119.469 407.352 119.148 405.82 118.508C404.289 117.867 403.008 116.969 401.977 115.812C400.945 114.641 400.164 113.273 399.633 111.711C399.102 110.133 398.836 108.422 398.836 106.578ZM406.734 106.086V106.578C406.734 107.531 406.805 108.422 406.945 109.25C407.086 110.078 407.32 110.805 407.648 111.43C407.977 112.039 408.422 112.516 408.984 112.859C409.547 113.203 410.25 113.375 411.094 113.375C411.922 113.375 412.609 113.203 413.156 112.859C413.719 112.516 414.164 112.039 414.492 111.43C414.82 110.805 415.055 110.078 415.195 109.25C415.336 108.422 415.406 107.531 415.406 106.578V106.086C415.406 105.164 415.336 104.297 415.195 103.484C415.055 102.656 414.82 101.93 414.492 101.305C414.164 100.664 413.719 100.164 413.156 99.8047C412.594 99.4453 411.891 99.2656 411.047 99.2656C410.219 99.2656 409.523 99.4453 408.961 99.8047C408.414 100.164 407.977 100.664 407.648 101.305C407.32 101.93 407.086 102.656 406.945 103.484C406.805 104.297 406.734 105.164 406.734 106.086ZM434.789 98.5156V128.75H426.891V93.6406H434.25L434.789 98.5156ZM450.352 106.016V106.508C450.352 108.352 450.141 110.062 449.719 111.641C449.297 113.219 448.672 114.594 447.844 115.766C447.016 116.938 445.984 117.852 444.75 118.508C443.531 119.148 442.117 119.469 440.508 119.469C438.992 119.469 437.688 119.133 436.594 118.461C435.5 117.789 434.586 116.859 433.852 115.672C433.117 114.484 432.523 113.125 432.07 111.594C431.617 110.062 431.258 108.445 430.992 106.742V106.109C431.258 104.281 431.617 102.586 432.07 101.023C432.523 99.4453 433.117 98.0703 433.852 96.8984C434.586 95.7266 435.492 94.8125 436.57 94.1562C437.664 93.5 438.969 93.1719 440.484 93.1719C442.094 93.1719 443.508 93.4766 444.727 94.0859C445.961 94.6953 446.992 95.5703 447.82 96.7109C448.664 97.8359 449.297 99.1875 449.719 100.766C450.141 102.344 450.352 104.094 450.352 106.016ZM442.453 106.508V106.016C442.453 105.031 442.383 104.133 442.242 103.32C442.102 102.492 441.875 101.773 441.562 101.164C441.266 100.555 440.867 100.086 440.367 99.7578C439.867 99.4297 439.25 99.2656 438.516 99.2656C437.672 99.2656 436.961 99.3984 436.383 99.6641C435.82 99.9141 435.367 100.305 435.023 100.836C434.695 101.352 434.461 102 434.32 102.781C434.195 103.547 434.141 104.445 434.156 105.477V107.398C434.125 108.586 434.242 109.633 434.508 110.539C434.773 111.43 435.234 112.125 435.891 112.625C436.547 113.125 437.438 113.375 438.562 113.375C439.312 113.375 439.938 113.203 440.438 112.859C440.938 112.5 441.336 112.008 441.633 111.383C441.93 110.742 442.141 110.008 442.266 109.18C442.391 108.352 442.453 107.461 442.453 106.508ZM461.602 83V119H453.703V83H461.602ZM460.664 105.453L458.812 105.5C458.812 103.719 459.031 102.078 459.469 100.578C459.906 99.0781 460.531 97.7734 461.344 96.6641C462.156 95.5547 463.133 94.6953 464.273 94.0859C465.414 93.4766 466.68 93.1719 468.07 93.1719C469.32 93.1719 470.461 93.3516 471.492 93.7109C472.539 94.0703 473.438 94.6484 474.188 95.4453C474.953 96.2422 475.539 97.2812 475.945 98.5625C476.367 99.8438 476.578 101.406 476.578 103.25V119H468.633V103.203C468.633 102.172 468.484 101.375 468.188 100.812C467.906 100.234 467.5 99.8359 466.969 99.6172C466.438 99.3828 465.789 99.2656 465.023 99.2656C464.102 99.2656 463.352 99.4219 462.773 99.7344C462.195 100.047 461.75 100.484 461.438 101.047C461.141 101.594 460.938 102.242 460.828 102.992C460.719 103.742 460.664 104.562 460.664 105.453ZM488.742 116.023L495.305 93.6406H503.789L493.594 122.773C493.375 123.414 493.086 124.102 492.727 124.836C492.367 125.586 491.875 126.297 491.25 126.969C490.625 127.641 489.82 128.188 488.836 128.609C487.867 129.031 486.664 129.242 485.227 129.242C484.461 129.242 483.898 129.203 483.539 129.125C483.195 129.062 482.664 128.945 481.945 128.773V123.125C482.148 123.125 482.32 123.125 482.461 123.125C482.617 123.125 482.789 123.125 482.977 123.125C483.82 123.125 484.492 123.039 484.992 122.867C485.508 122.695 485.898 122.445 486.164 122.117C486.445 121.789 486.664 121.391 486.82 120.922L488.742 116.023ZM487.078 93.6406L492.07 111.383L492.938 119.75H487.641L478.617 93.6406H487.078Z" fill="black"/>
<path d="M1134 0H1348C1356.28 0 1363 6.71573 1363 15V148C1363 156.284 1356.28 163 1348 163H1134V0Z" fill="#006942"/>
<path d="M1234.26 103.786H1262.74V109.357H1234.26V103.786ZM1239.96 114.929H1257.04V120.5H1239.96V114.929ZM1248.5 42.5C1240.95 42.5 1233.71 45.4349 1228.37 50.6592C1223.03 55.8834 1220.03 62.969 1220.03 70.3571C1219.84 74.4057 1220.63 78.4412 1222.34 82.1315C1224.05 85.8219 1226.64 89.0616 1229.88 91.5843C1232.73 94.175 1234.26 95.6514 1234.26 98.2143H1239.96C1239.96 93.0886 1236.8 90.2193 1233.72 87.4614C1231.06 85.4676 1228.94 82.8658 1227.55 79.8838C1226.15 76.9019 1225.53 73.6308 1225.72 70.3571C1225.72 64.4466 1228.12 58.7781 1232.39 54.5988C1236.67 50.4194 1242.46 48.0714 1248.5 48.0714C1254.54 48.0714 1260.33 50.4194 1264.61 54.5988C1268.88 58.7781 1271.28 64.4466 1271.28 70.3571C1271.47 73.6333 1270.84 76.9059 1269.44 79.888C1268.04 82.8701 1265.92 85.4706 1263.25 87.4614C1260.2 90.2471 1257.04 93.0329 1257.04 98.2143H1262.74C1262.74 95.6514 1264.25 94.175 1267.12 91.5564C1270.36 89.0381 1272.94 85.8031 1274.66 82.1176C1276.37 78.4321 1277.16 74.4014 1276.97 70.3571C1276.97 66.6989 1276.24 63.0765 1274.81 59.6967C1273.37 56.3169 1271.28 53.2459 1268.63 50.6592C1265.99 48.0724 1262.85 46.0205 1259.4 44.6205C1255.94 43.2205 1252.24 42.5 1248.5 42.5Z" fill="white"/>
</svg>
