<svg width="1363" height="163" viewBox="0 0 1363 163" fill="none" xmlns="http://www.w3.org/2000/svg">
<path d="M0 15C0 6.71573 6.71573 0 15 0H37V163H15C6.71573 163 0 156.284 0 148V15Z" fill="#424242"/>
<rect width="1097" height="163" transform="translate(37)" fill="#F0F0F0"/>
<path d="M101.906 53.9219L94.3945 51.2383V48.0859L104.602 52.375V54.6367L101.906 53.9219ZM94.3945 56.1719L101.918 53.4297L104.602 52.7852V55.0352L94.3945 59.3242V56.1719ZM126.785 43.9375V61H123.27L116.414 49.5625V61H112.898V43.9375H116.414L123.281 55.3867V43.9375H126.785ZM129.094 54.7891V54.543C129.094 53.6133 129.227 52.7578 129.492 51.9766C129.758 51.1875 130.145 50.5039 130.652 49.9258C131.16 49.3477 131.785 48.8984 132.527 48.5781C133.27 48.25 134.121 48.0859 135.082 48.0859C136.043 48.0859 136.898 48.25 137.648 48.5781C138.398 48.8984 139.027 49.3477 139.535 49.9258C140.051 50.5039 140.441 51.1875 140.707 51.9766C140.973 52.7578 141.105 53.6133 141.105 54.543V54.7891C141.105 55.7109 140.973 56.5664 140.707 57.3555C140.441 58.1367 140.051 58.8203 139.535 59.4062C139.027 59.9844 138.402 60.4336 137.66 60.7539C136.918 61.0742 136.066 61.2344 135.105 61.2344C134.145 61.2344 133.289 61.0742 132.539 60.7539C131.797 60.4336 131.168 59.9844 130.652 59.4062C130.145 58.8203 129.758 58.1367 129.492 57.3555C129.227 56.5664 129.094 55.7109 129.094 54.7891ZM132.469 54.543V54.7891C132.469 55.3203 132.516 55.8164 132.609 56.2773C132.703 56.7383 132.852 57.1445 133.055 57.4961C133.266 57.8398 133.539 58.1094 133.875 58.3047C134.211 58.5 134.621 58.5977 135.105 58.5977C135.574 58.5977 135.977 58.5 136.312 58.3047C136.648 58.1094 136.918 57.8398 137.121 57.4961C137.324 57.1445 137.473 56.7383 137.566 56.2773C137.668 55.8164 137.719 55.3203 137.719 54.7891V54.543C137.719 54.0273 137.668 53.543 137.566 53.0898C137.473 52.6289 137.32 52.2227 137.109 51.8711C136.906 51.5117 136.637 51.2305 136.301 51.0273C135.965 50.8242 135.559 50.7227 135.082 50.7227C134.605 50.7227 134.199 50.8242 133.863 51.0273C133.535 51.2305 133.266 51.5117 133.055 51.8711C132.852 52.2227 132.703 52.6289 132.609 53.0898C132.516 53.543 132.469 54.0273 132.469 54.543ZM150.68 57.9648V48.3203H154.055V61H150.879L150.68 57.9648ZM151.055 55.3633L152.051 55.3398C152.051 56.1836 151.953 56.9688 151.758 57.6953C151.562 58.4141 151.27 59.0391 150.879 59.5703C150.488 60.0938 149.996 60.5039 149.402 60.8008C148.809 61.0898 148.109 61.2344 147.305 61.2344C146.688 61.2344 146.117 61.1484 145.594 60.9766C145.078 60.7969 144.633 60.5195 144.258 60.1445C143.891 59.7617 143.602 59.2734 143.391 58.6797C143.188 58.0781 143.086 57.3555 143.086 56.5117V48.3203H146.461V56.5352C146.461 56.9102 146.504 57.2266 146.59 57.4844C146.684 57.7422 146.812 57.9531 146.977 58.1172C147.141 58.2812 147.332 58.3984 147.551 58.4688C147.777 58.5391 148.027 58.5742 148.301 58.5742C148.996 58.5742 149.543 58.4336 149.941 58.1523C150.348 57.8711 150.633 57.4883 150.797 57.0039C150.969 56.5117 151.055 55.9648 151.055 55.3633ZM160.008 51.0859V61H156.633V48.3203H159.809L160.008 51.0859ZM163.828 48.2383L163.77 51.3672C163.605 51.3438 163.406 51.3242 163.172 51.3086C162.945 51.2852 162.738 51.2734 162.551 51.2734C162.074 51.2734 161.66 51.3359 161.309 51.4609C160.965 51.5781 160.676 51.7539 160.441 51.9883C160.215 52.2227 160.043 52.5078 159.926 52.8438C159.816 53.1797 159.754 53.5625 159.738 53.9922L159.059 53.7812C159.059 52.9609 159.141 52.207 159.305 51.5195C159.469 50.8242 159.707 50.2188 160.02 49.7031C160.34 49.1875 160.73 48.7891 161.191 48.5078C161.652 48.2266 162.18 48.0859 162.773 48.0859C162.961 48.0859 163.152 48.1016 163.348 48.1328C163.543 48.1562 163.703 48.1914 163.828 48.2383ZM168.984 48.3203V61H165.598V48.3203H168.984ZM165.387 45.0156C165.387 44.5234 165.559 44.1172 165.902 43.7969C166.246 43.4766 166.707 43.3164 167.285 43.3164C167.855 43.3164 168.312 43.4766 168.656 43.7969C169.008 44.1172 169.184 44.5234 169.184 45.0156C169.184 45.5078 169.008 45.9141 168.656 46.2344C168.312 46.5547 167.855 46.7148 167.285 46.7148C166.707 46.7148 166.246 46.5547 165.902 46.2344C165.559 45.9141 165.387 45.5078 165.387 45.0156ZM178.629 57.4961C178.629 57.2539 178.559 57.0352 178.418 56.8398C178.277 56.6445 178.016 56.4648 177.633 56.3008C177.258 56.1289 176.715 55.9727 176.004 55.832C175.363 55.6914 174.766 55.5156 174.211 55.3047C173.664 55.0859 173.188 54.8242 172.781 54.5195C172.383 54.2148 172.07 53.8555 171.844 53.4414C171.617 53.0195 171.504 52.5391 171.504 52C171.504 51.4688 171.617 50.9688 171.844 50.5C172.078 50.0312 172.41 49.6172 172.84 49.2578C173.277 48.8906 173.809 48.6055 174.434 48.4023C175.066 48.1914 175.777 48.0859 176.566 48.0859C177.668 48.0859 178.613 48.2617 179.402 48.6133C180.199 48.9648 180.809 49.4492 181.23 50.0664C181.66 50.6758 181.875 51.3711 181.875 52.1523H178.5C178.5 51.8242 178.43 51.5312 178.289 51.2734C178.156 51.0078 177.945 50.8008 177.656 50.6523C177.375 50.4961 177.008 50.418 176.555 50.418C176.18 50.418 175.855 50.4844 175.582 50.6172C175.309 50.7422 175.098 50.9141 174.949 51.1328C174.809 51.3438 174.738 51.5781 174.738 51.8359C174.738 52.0312 174.777 52.207 174.855 52.3633C174.941 52.5117 175.078 52.6484 175.266 52.7734C175.453 52.8984 175.695 53.0156 175.992 53.125C176.297 53.2266 176.672 53.3203 177.117 53.4062C178.031 53.5938 178.848 53.8398 179.566 54.1445C180.285 54.4414 180.855 54.8477 181.277 55.3633C181.699 55.8711 181.91 56.5391 181.91 57.3672C181.91 57.9297 181.785 58.4453 181.535 58.9141C181.285 59.3828 180.926 59.793 180.457 60.1445C179.988 60.4883 179.426 60.7578 178.77 60.9531C178.121 61.1406 177.391 61.2344 176.578 61.2344C175.398 61.2344 174.398 61.0234 173.578 60.6016C172.766 60.1797 172.148 59.6445 171.727 58.9961C171.312 58.3398 171.105 57.668 171.105 56.9805H174.305C174.32 57.4414 174.438 57.8125 174.656 58.0938C174.883 58.375 175.168 58.5781 175.512 58.7031C175.863 58.8281 176.242 58.8906 176.648 58.8906C177.086 58.8906 177.449 58.832 177.738 58.7148C178.027 58.5898 178.246 58.4258 178.395 58.2227C178.551 58.0117 178.629 57.7695 178.629 57.4961ZM187.395 43V61H184.02V43H187.395ZM186.914 54.2148H185.988C185.996 53.332 186.113 52.5195 186.34 51.7773C186.566 51.0273 186.891 50.3789 187.312 49.832C187.734 49.2773 188.238 48.8477 188.824 48.543C189.418 48.2383 190.074 48.0859 190.793 48.0859C191.418 48.0859 191.984 48.1758 192.492 48.3555C193.008 48.5273 193.449 48.8086 193.816 49.1992C194.191 49.582 194.48 50.0859 194.684 50.7109C194.887 51.3359 194.988 52.0938 194.988 52.9844V61H191.59V52.9609C191.59 52.3984 191.508 51.957 191.344 51.6367C191.188 51.3086 190.957 51.0781 190.652 50.9453C190.355 50.8047 189.988 50.7344 189.551 50.7344C189.066 50.7344 188.652 50.8242 188.309 51.0039C187.973 51.1836 187.703 51.4336 187.5 51.7539C187.297 52.0664 187.148 52.4336 187.055 52.8555C186.961 53.2773 186.914 53.7305 186.914 54.2148ZM213.633 55.3398H217.137C217.066 56.4883 216.75 57.5078 216.188 58.3984C215.633 59.2891 214.855 59.9844 213.855 60.4844C212.863 60.9844 211.668 61.2344 210.27 61.2344C209.176 61.2344 208.195 61.0469 207.328 60.6719C206.461 60.2891 205.719 59.7422 205.102 59.0312C204.492 58.3203 204.027 57.4609 203.707 56.4531C203.387 55.4453 203.227 54.3164 203.227 53.0664V51.8828C203.227 50.6328 203.391 49.5039 203.719 48.4961C204.055 47.4805 204.531 46.6172 205.148 45.9062C205.773 45.1953 206.52 44.6484 207.387 44.2656C208.254 43.8828 209.223 43.6914 210.293 43.6914C211.715 43.6914 212.914 43.9492 213.891 44.4648C214.875 44.9805 215.637 45.6914 216.176 46.5977C216.723 47.5039 217.051 48.5352 217.16 49.6914H213.645C213.605 49.0039 213.469 48.4219 213.234 47.9453C213 47.4609 212.645 47.0977 212.168 46.8555C211.699 46.6055 211.074 46.4805 210.293 46.4805C209.707 46.4805 209.195 46.5898 208.758 46.8086C208.32 47.0273 207.953 47.3594 207.656 47.8047C207.359 48.25 207.137 48.8125 206.988 49.4922C206.848 50.1641 206.777 50.9531 206.777 51.8594V53.0664C206.777 53.9492 206.844 54.7266 206.977 55.3984C207.109 56.0625 207.312 56.625 207.586 57.0859C207.867 57.5391 208.227 57.8828 208.664 58.1172C209.109 58.3438 209.645 58.457 210.27 58.457C211.004 58.457 211.609 58.3398 212.086 58.1055C212.562 57.8711 212.926 57.5234 213.176 57.0625C213.434 56.6016 213.586 56.0273 213.633 55.3398ZM218.695 54.7891V54.543C218.695 53.6133 218.828 52.7578 219.094 51.9766C219.359 51.1875 219.746 50.5039 220.254 49.9258C220.762 49.3477 221.387 48.8984 222.129 48.5781C222.871 48.25 223.723 48.0859 224.684 48.0859C225.645 48.0859 226.5 48.25 227.25 48.5781C228 48.8984 228.629 49.3477 229.137 49.9258C229.652 50.5039 230.043 51.1875 230.309 51.9766C230.574 52.7578 230.707 53.6133 230.707 54.543V54.7891C230.707 55.7109 230.574 56.5664 230.309 57.3555C230.043 58.1367 229.652 58.8203 229.137 59.4062C228.629 59.9844 228.004 60.4336 227.262 60.7539C226.52 61.0742 225.668 61.2344 224.707 61.2344C223.746 61.2344 222.891 61.0742 222.141 60.7539C221.398 60.4336 220.77 59.9844 220.254 59.4062C219.746 58.8203 219.359 58.1367 219.094 57.3555C218.828 56.5664 218.695 55.7109 218.695 54.7891ZM222.07 54.543V54.7891C222.07 55.3203 222.117 55.8164 222.211 56.2773C222.305 56.7383 222.453 57.1445 222.656 57.4961C222.867 57.8398 223.141 58.1094 223.477 58.3047C223.812 58.5 224.223 58.5977 224.707 58.5977C225.176 58.5977 225.578 58.5 225.914 58.3047C226.25 58.1094 226.52 57.8398 226.723 57.4961C226.926 57.1445 227.074 56.7383 227.168 56.2773C227.27 55.8164 227.32 55.3203 227.32 54.7891V54.543C227.32 54.0273 227.27 53.543 227.168 53.0898C227.074 52.6289 226.922 52.2227 226.711 51.8711C226.508 51.5117 226.238 51.2305 225.902 51.0273C225.566 50.8242 225.16 50.7227 224.684 50.7227C224.207 50.7227 223.801 50.8242 223.465 51.0273C223.137 51.2305 222.867 51.5117 222.656 51.8711C222.453 52.2227 222.305 52.6289 222.211 53.0898C222.117 53.543 222.07 54.0273 222.07 54.543ZM236.086 51.0273V61H232.711V48.3203H235.875L236.086 51.0273ZM235.594 54.2148H234.68C234.68 53.2773 234.801 52.4336 235.043 51.6836C235.285 50.9258 235.625 50.2812 236.062 49.75C236.5 49.2109 237.02 48.8008 237.621 48.5195C238.23 48.2305 238.91 48.0859 239.66 48.0859C240.254 48.0859 240.797 48.1719 241.289 48.3438C241.781 48.5156 242.203 48.7891 242.555 49.1641C242.914 49.5391 243.188 50.0352 243.375 50.6523C243.57 51.2695 243.668 52.0234 243.668 52.9141V61H240.27V52.9023C240.27 52.3398 240.191 51.9023 240.035 51.5898C239.879 51.2773 239.648 51.0586 239.344 50.9336C239.047 50.8008 238.68 50.7344 238.242 50.7344C237.789 50.7344 237.395 50.8242 237.059 51.0039C236.73 51.1836 236.457 51.4336 236.238 51.7539C236.027 52.0664 235.867 52.4336 235.758 52.8555C235.648 53.2773 235.594 53.7305 235.594 54.2148ZM249.539 51.0273V61H246.164V48.3203H249.328L249.539 51.0273ZM249.047 54.2148H248.133C248.133 53.2773 248.254 52.4336 248.496 51.6836C248.738 50.9258 249.078 50.2812 249.516 49.75C249.953 49.2109 250.473 48.8008 251.074 48.5195C251.684 48.2305 252.363 48.0859 253.113 48.0859C253.707 48.0859 254.25 48.1719 254.742 48.3438C255.234 48.5156 255.656 48.7891 256.008 49.1641C256.367 49.5391 256.641 50.0352 256.828 50.6523C257.023 51.2695 257.121 52.0234 257.121 52.9141V61H253.723V52.9023C253.723 52.3398 253.645 51.9023 253.488 51.5898C253.332 51.2773 253.102 51.0586 252.797 50.9336C252.5 50.8008 252.133 50.7344 251.695 50.7344C251.242 50.7344 250.848 50.8242 250.512 51.0039C250.184 51.1836 249.91 51.4336 249.691 51.7539C249.48 52.0664 249.32 52.4336 249.211 52.8555C249.102 53.2773 249.047 53.7305 249.047 54.2148ZM265.523 61.2344C264.539 61.2344 263.656 61.0781 262.875 60.7656C262.094 60.4453 261.43 60.0039 260.883 59.4414C260.344 58.8789 259.93 58.2266 259.641 57.4844C259.352 56.7344 259.207 55.9375 259.207 55.0938V54.625C259.207 53.6641 259.344 52.7852 259.617 51.9883C259.891 51.1914 260.281 50.5 260.789 49.9141C261.305 49.3281 261.93 48.8789 262.664 48.5664C263.398 48.2461 264.227 48.0859 265.148 48.0859C266.047 48.0859 266.844 48.2344 267.539 48.5312C268.234 48.8281 268.816 49.25 269.285 49.7969C269.762 50.3438 270.121 51 270.363 51.7656C270.605 52.5234 270.727 53.3672 270.727 54.2969V55.7031H260.648V53.4531H267.41V53.1953C267.41 52.7266 267.324 52.3086 267.152 51.9414C266.988 51.5664 266.738 51.2695 266.402 51.0508C266.066 50.832 265.637 50.7227 265.113 50.7227C264.668 50.7227 264.285 50.8203 263.965 51.0156C263.645 51.2109 263.383 51.4844 263.18 51.8359C262.984 52.1875 262.836 52.6016 262.734 53.0781C262.641 53.5469 262.594 54.0625 262.594 54.625V55.0938C262.594 55.6016 262.664 56.0703 262.805 56.5C262.953 56.9297 263.16 57.3008 263.426 57.6133C263.699 57.9258 264.027 58.168 264.41 58.3398C264.801 58.5117 265.242 58.5977 265.734 58.5977C266.344 58.5977 266.91 58.4805 267.434 58.2461C267.965 58.0039 268.422 57.6406 268.805 57.1562L270.445 58.9375C270.18 59.3203 269.816 59.6875 269.355 60.0391C268.902 60.3906 268.355 60.6797 267.715 60.9062C267.074 61.125 266.344 61.2344 265.523 61.2344ZM277.887 58.5977C278.301 58.5977 278.668 58.5195 278.988 58.3633C279.309 58.1992 279.559 57.9727 279.738 57.6836C279.926 57.3867 280.023 57.0391 280.031 56.6406H283.207C283.199 57.5312 282.961 58.3242 282.492 59.0195C282.023 59.707 281.395 60.25 280.605 60.6484C279.816 61.0391 278.934 61.2344 277.957 61.2344C276.973 61.2344 276.113 61.0703 275.379 60.7422C274.652 60.4141 274.047 59.9609 273.562 59.3828C273.078 58.7969 272.715 58.1172 272.473 57.3438C272.23 56.5625 272.109 55.7266 272.109 54.8359V54.4961C272.109 53.5977 272.23 52.7617 272.473 51.9883C272.715 51.207 273.078 50.5273 273.562 49.9492C274.047 49.3633 274.652 48.9062 275.379 48.5781C276.105 48.25 276.957 48.0859 277.934 48.0859C278.973 48.0859 279.883 48.2852 280.664 48.6836C281.453 49.082 282.07 49.6523 282.516 50.3945C282.969 51.1289 283.199 52 283.207 53.0078H280.031C280.023 52.5859 279.934 52.2031 279.762 51.8594C279.598 51.5156 279.355 51.2422 279.035 51.0391C278.723 50.8281 278.336 50.7227 277.875 50.7227C277.383 50.7227 276.98 50.8281 276.668 51.0391C276.355 51.2422 276.113 51.5234 275.941 51.8828C275.77 52.2344 275.648 52.6367 275.578 53.0898C275.516 53.5352 275.484 54.0039 275.484 54.4961V54.8359C275.484 55.3281 275.516 55.8008 275.578 56.2539C275.641 56.707 275.758 57.1094 275.93 57.4609C276.109 57.8125 276.355 58.0898 276.668 58.293C276.98 58.4961 277.387 58.5977 277.887 58.5977ZM291.375 48.3203V50.7109H283.992V48.3203H291.375ZM285.82 45.1914H289.195V57.1797C289.195 57.5469 289.242 57.8281 289.336 58.0234C289.438 58.2188 289.586 58.3555 289.781 58.4336C289.977 58.5039 290.223 58.5391 290.52 58.5391C290.73 58.5391 290.918 58.5312 291.082 58.5156C291.254 58.4922 291.398 58.4688 291.516 58.4453L291.527 60.9297C291.238 61.0234 290.926 61.0977 290.59 61.1523C290.254 61.207 289.883 61.2344 289.477 61.2344C288.734 61.2344 288.086 61.1133 287.531 60.8711C286.984 60.6211 286.562 60.2227 286.266 59.6758C285.969 59.1289 285.82 58.4102 285.82 57.5195V45.1914Z" fill="#888888"/>
<path d="M124.477 101.258V102.641C124.477 105.25 124.109 107.594 123.375 109.672C122.656 111.734 121.633 113.5 120.305 114.969C118.977 116.422 117.406 117.539 115.594 118.32C113.781 119.086 111.781 119.469 109.594 119.469C107.391 119.469 105.375 119.086 103.547 118.32C101.734 117.539 100.156 116.422 98.8125 114.969C97.4844 113.5 96.4531 111.734 95.7188 109.672C95 107.594 94.6406 105.25 94.6406 102.641V101.258C94.6406 98.6484 95 96.3047 95.7188 94.2266C96.4531 92.1484 97.4766 90.3828 98.7891 88.9297C100.117 87.4609 101.688 86.3438 103.5 85.5781C105.328 84.7969 107.344 84.4062 109.547 84.4062C111.734 84.4062 113.734 84.7969 115.547 85.5781C117.375 86.3438 118.953 87.4609 120.281 88.9297C121.609 90.3828 122.641 92.1484 123.375 94.2266C124.109 96.3047 124.477 98.6484 124.477 101.258ZM116.133 102.641V101.211C116.133 99.5234 115.984 98.0391 115.688 96.7578C115.406 95.4609 114.984 94.375 114.422 93.5C113.859 92.625 113.164 91.9688 112.336 91.5312C111.523 91.0781 110.594 90.8516 109.547 90.8516C108.453 90.8516 107.5 91.0781 106.688 91.5312C105.875 91.9688 105.195 92.625 104.648 93.5C104.102 94.375 103.688 95.4609 103.406 96.7578C103.141 98.0391 103.008 99.5234 103.008 101.211V102.641C103.008 104.312 103.141 105.797 103.406 107.094C103.688 108.375 104.102 109.461 104.648 110.352C105.211 111.242 105.898 111.914 106.711 112.367C107.539 112.82 108.5 113.047 109.594 113.047C110.641 113.047 111.57 112.82 112.383 112.367C113.195 111.914 113.875 111.242 114.422 110.352C114.984 109.461 115.406 108.375 115.688 107.094C115.984 105.797 116.133 104.312 116.133 102.641ZM136.336 98.5156V128.75H128.438V93.6406H135.797L136.336 98.5156ZM151.898 106.016V106.508C151.898 108.352 151.688 110.062 151.266 111.641C150.844 113.219 150.219 114.594 149.391 115.766C148.562 116.938 147.531 117.852 146.297 118.508C145.078 119.148 143.664 119.469 142.055 119.469C140.539 119.469 139.234 119.133 138.141 118.461C137.047 117.789 136.133 116.859 135.398 115.672C134.664 114.484 134.07 113.125 133.617 111.594C133.164 110.062 132.805 108.445 132.539 106.742V106.109C132.805 104.281 133.164 102.586 133.617 101.023C134.07 99.4453 134.664 98.0703 135.398 96.8984C136.133 95.7266 137.039 94.8125 138.117 94.1562C139.211 93.5 140.516 93.1719 142.031 93.1719C143.641 93.1719 145.055 93.4766 146.273 94.0859C147.508 94.6953 148.539 95.5703 149.367 96.7109C150.211 97.8359 150.844 99.1875 151.266 100.766C151.688 102.344 151.898 104.094 151.898 106.016ZM144 106.508V106.016C144 105.031 143.93 104.133 143.789 103.32C143.648 102.492 143.422 101.773 143.109 101.164C142.812 100.555 142.414 100.086 141.914 99.7578C141.414 99.4297 140.797 99.2656 140.062 99.2656C139.219 99.2656 138.508 99.3984 137.93 99.6641C137.367 99.9141 136.914 100.305 136.57 100.836C136.242 101.352 136.008 102 135.867 102.781C135.742 103.547 135.688 104.445 135.703 105.477V107.398C135.672 108.586 135.789 109.633 136.055 110.539C136.32 111.43 136.781 112.125 137.438 112.625C138.094 113.125 138.984 113.375 140.109 113.375C140.859 113.375 141.484 113.203 141.984 112.859C142.484 112.5 142.883 112.008 143.18 111.383C143.477 110.742 143.688 110.008 143.812 109.18C143.938 108.352 144 107.461 144 106.508ZM167.695 119.469C165.633 119.469 163.789 119.148 162.164 118.508C160.539 117.852 159.164 116.953 158.039 115.812C156.93 114.672 156.078 113.359 155.484 111.875C154.906 110.391 154.617 108.82 154.617 107.164V106.273C154.617 104.414 154.875 102.695 155.391 101.117C155.906 99.5234 156.672 98.1328 157.688 96.9453C158.703 95.7578 159.977 94.8359 161.508 94.1797C163.039 93.5078 164.82 93.1719 166.852 93.1719C168.648 93.1719 170.258 93.4609 171.68 94.0391C173.102 94.6172 174.305 95.4453 175.289 96.5234C176.289 97.6016 177.047 98.9062 177.562 100.438C178.094 101.969 178.359 103.688 178.359 105.594V108.805H157.641V103.859H170.648V103.25C170.664 102.406 170.516 101.688 170.203 101.094C169.906 100.5 169.469 100.047 168.891 99.7344C168.312 99.4219 167.609 99.2656 166.781 99.2656C165.922 99.2656 165.211 99.4531 164.648 99.8281C164.102 100.203 163.672 100.719 163.359 101.375C163.062 102.016 162.852 102.758 162.727 103.602C162.602 104.445 162.539 105.336 162.539 106.273V107.164C162.539 108.102 162.664 108.953 162.914 109.719C163.18 110.484 163.555 111.141 164.039 111.688C164.539 112.219 165.133 112.633 165.82 112.93C166.523 113.227 167.32 113.375 168.211 113.375C169.289 113.375 170.352 113.172 171.398 112.766C172.445 112.359 173.344 111.688 174.094 110.75L177.68 115.016C177.164 115.75 176.43 116.461 175.477 117.148C174.539 117.836 173.414 118.398 172.102 118.836C170.789 119.258 169.32 119.469 167.695 119.469ZM189.328 99.0547V119H181.43V93.6406H188.836L189.328 99.0547ZM188.391 105.453L186.539 105.5C186.539 103.562 186.773 101.836 187.242 100.32C187.711 98.7891 188.375 97.4922 189.234 96.4297C190.094 95.3672 191.117 94.5625 192.305 94.0156C193.508 93.4531 194.844 93.1719 196.312 93.1719C197.484 93.1719 198.555 93.3438 199.523 93.6875C200.508 94.0312 201.352 94.5859 202.055 95.3516C202.773 96.1172 203.32 97.1328 203.695 98.3984C204.086 99.6484 204.281 101.195 204.281 103.039V119H196.336V103.016C196.336 102 196.195 101.227 195.914 100.695C195.633 100.148 195.227 99.7734 194.695 99.5703C194.164 99.3672 193.516 99.2656 192.75 99.2656C191.938 99.2656 191.25 99.4219 190.688 99.7344C190.125 100.047 189.672 100.484 189.328 101.047C189 101.594 188.758 102.242 188.602 102.992C188.461 103.742 188.391 104.562 188.391 105.453ZM223.5 92.0469L215.18 119H206.344L218.883 84.875H224.484L223.5 92.0469ZM230.391 119L222.047 92.0469L220.969 84.875H226.641L239.25 119H230.391ZM230.062 106.273V112.625H212.555V106.273H230.062ZM250.5 84.875V119H242.297V84.875H250.5Z" fill="black"/>
<path d="M1134 0H1348C1356.28 0 1363 6.71573 1363 15V148C1363 156.284 1356.28 163 1348 163H1134V0Z" fill="#006942"/>
<path d="M1240.01 87.451V65.701L1256.91 55.9437C1266.28 50.5364 1283.04 63.8734 1276 76.0776" stroke="white" stroke-width="4" stroke-linejoin="round"/>
<path d="M1240.01 76.8781L1258.85 66.0031L1275.75 75.7604C1285.11 81.1677 1281.94 102.359 1267.85 102.359" stroke="white" stroke-width="4" stroke-linejoin="round"/>
<path d="M1249.16 71.5917L1268 82.4667V101.996C1268 112.811 1248.06 120.665 1241.02 108.461" stroke="white" stroke-width="4" stroke-linejoin="round"/>
<path d="M1258.32 77.2708V98.6281L1241.42 108.385C1232.05 113.793 1215.29 100.456 1222.32 88.2515" stroke="white" stroke-width="4" stroke-linejoin="round"/>
<path d="M1258.32 87.4511L1239.48 98.3261L1222.58 88.5688C1213.2 83.1464 1216.37 61.9703 1230.47 61.9703" stroke="white" stroke-width="4" stroke-linejoin="round"/>
<path d="M1249.16 92.7375L1230.33 81.8625V62.3328C1230.33 51.5182 1250.27 43.6641 1257.31 55.8682" stroke="white" stroke-width="4" stroke-linejoin="round"/>
</svg>
