<svg width="1363" height="163" viewBox="0 0 1363 163" fill="none" xmlns="http://www.w3.org/2000/svg">
<path d="M0 15C0 6.71573 6.71573 0 15 0H37V163H15C6.71573 163 0 156.284 0 148V15Z" fill="#424242"/>
<rect width="1097" height="163" transform="translate(37)" fill="#F0F0F0"/>
<path d="M101.906 53.9219L94.3945 51.2383V48.0859L104.602 52.375V54.6367L101.906 53.9219ZM94.3945 56.1719L101.918 53.4297L104.602 52.7852V55.0352L94.3945 59.3242V56.1719ZM126.785 43.9375V61H123.27L116.414 49.5625V61H112.898V43.9375H116.414L123.281 55.3867V43.9375H126.785ZM129.094 54.7891V54.543C129.094 53.6133 129.227 52.7578 129.492 51.9766C129.758 51.1875 130.145 50.5039 130.652 49.9258C131.16 49.3477 131.785 48.8984 132.527 48.5781C133.27 48.25 134.121 48.0859 135.082 48.0859C136.043 48.0859 136.898 48.25 137.648 48.5781C138.398 48.8984 139.027 49.3477 139.535 49.9258C140.051 50.5039 140.441 51.1875 140.707 51.9766C140.973 52.7578 141.105 53.6133 141.105 54.543V54.7891C141.105 55.7109 140.973 56.5664 140.707 57.3555C140.441 58.1367 140.051 58.8203 139.535 59.4062C139.027 59.9844 138.402 60.4336 137.66 60.7539C136.918 61.0742 136.066 61.2344 135.105 61.2344C134.145 61.2344 133.289 61.0742 132.539 60.7539C131.797 60.4336 131.168 59.9844 130.652 59.4062C130.145 58.8203 129.758 58.1367 129.492 57.3555C129.227 56.5664 129.094 55.7109 129.094 54.7891ZM132.469 54.543V54.7891C132.469 55.3203 132.516 55.8164 132.609 56.2773C132.703 56.7383 132.852 57.1445 133.055 57.4961C133.266 57.8398 133.539 58.1094 133.875 58.3047C134.211 58.5 134.621 58.5977 135.105 58.5977C135.574 58.5977 135.977 58.5 136.312 58.3047C136.648 58.1094 136.918 57.8398 137.121 57.4961C137.324 57.1445 137.473 56.7383 137.566 56.2773C137.668 55.8164 137.719 55.3203 137.719 54.7891V54.543C137.719 54.0273 137.668 53.543 137.566 53.0898C137.473 52.6289 137.32 52.2227 137.109 51.8711C136.906 51.5117 136.637 51.2305 136.301 51.0273C135.965 50.8242 135.559 50.7227 135.082 50.7227C134.605 50.7227 134.199 50.8242 133.863 51.0273C133.535 51.2305 133.266 51.5117 133.055 51.8711C132.852 52.2227 132.703 52.6289 132.609 53.0898C132.516 53.543 132.469 54.0273 132.469 54.543ZM150.68 57.9648V48.3203H154.055V61H150.879L150.68 57.9648ZM151.055 55.3633L152.051 55.3398C152.051 56.1836 151.953 56.9688 151.758 57.6953C151.562 58.4141 151.27 59.0391 150.879 59.5703C150.488 60.0938 149.996 60.5039 149.402 60.8008C148.809 61.0898 148.109 61.2344 147.305 61.2344C146.688 61.2344 146.117 61.1484 145.594 60.9766C145.078 60.7969 144.633 60.5195 144.258 60.1445C143.891 59.7617 143.602 59.2734 143.391 58.6797C143.188 58.0781 143.086 57.3555 143.086 56.5117V48.3203H146.461V56.5352C146.461 56.9102 146.504 57.2266 146.59 57.4844C146.684 57.7422 146.812 57.9531 146.977 58.1172C147.141 58.2812 147.332 58.3984 147.551 58.4688C147.777 58.5391 148.027 58.5742 148.301 58.5742C148.996 58.5742 149.543 58.4336 149.941 58.1523C150.348 57.8711 150.633 57.4883 150.797 57.0039C150.969 56.5117 151.055 55.9648 151.055 55.3633ZM160.008 51.0859V61H156.633V48.3203H159.809L160.008 51.0859ZM163.828 48.2383L163.77 51.3672C163.605 51.3438 163.406 51.3242 163.172 51.3086C162.945 51.2852 162.738 51.2734 162.551 51.2734C162.074 51.2734 161.66 51.3359 161.309 51.4609C160.965 51.5781 160.676 51.7539 160.441 51.9883C160.215 52.2227 160.043 52.5078 159.926 52.8438C159.816 53.1797 159.754 53.5625 159.738 53.9922L159.059 53.7812C159.059 52.9609 159.141 52.207 159.305 51.5195C159.469 50.8242 159.707 50.2188 160.02 49.7031C160.34 49.1875 160.73 48.7891 161.191 48.5078C161.652 48.2266 162.18 48.0859 162.773 48.0859C162.961 48.0859 163.152 48.1016 163.348 48.1328C163.543 48.1562 163.703 48.1914 163.828 48.2383ZM168.984 48.3203V61H165.598V48.3203H168.984ZM165.387 45.0156C165.387 44.5234 165.559 44.1172 165.902 43.7969C166.246 43.4766 166.707 43.3164 167.285 43.3164C167.855 43.3164 168.312 43.4766 168.656 43.7969C169.008 44.1172 169.184 44.5234 169.184 45.0156C169.184 45.5078 169.008 45.9141 168.656 46.2344C168.312 46.5547 167.855 46.7148 167.285 46.7148C166.707 46.7148 166.246 46.5547 165.902 46.2344C165.559 45.9141 165.387 45.5078 165.387 45.0156ZM178.629 57.4961C178.629 57.2539 178.559 57.0352 178.418 56.8398C178.277 56.6445 178.016 56.4648 177.633 56.3008C177.258 56.1289 176.715 55.9727 176.004 55.832C175.363 55.6914 174.766 55.5156 174.211 55.3047C173.664 55.0859 173.188 54.8242 172.781 54.5195C172.383 54.2148 172.07 53.8555 171.844 53.4414C171.617 53.0195 171.504 52.5391 171.504 52C171.504 51.4688 171.617 50.9688 171.844 50.5C172.078 50.0312 172.41 49.6172 172.84 49.2578C173.277 48.8906 173.809 48.6055 174.434 48.4023C175.066 48.1914 175.777 48.0859 176.566 48.0859C177.668 48.0859 178.613 48.2617 179.402 48.6133C180.199 48.9648 180.809 49.4492 181.23 50.0664C181.66 50.6758 181.875 51.3711 181.875 52.1523H178.5C178.5 51.8242 178.43 51.5312 178.289 51.2734C178.156 51.0078 177.945 50.8008 177.656 50.6523C177.375 50.4961 177.008 50.418 176.555 50.418C176.18 50.418 175.855 50.4844 175.582 50.6172C175.309 50.7422 175.098 50.9141 174.949 51.1328C174.809 51.3438 174.738 51.5781 174.738 51.8359C174.738 52.0312 174.777 52.207 174.855 52.3633C174.941 52.5117 175.078 52.6484 175.266 52.7734C175.453 52.8984 175.695 53.0156 175.992 53.125C176.297 53.2266 176.672 53.3203 177.117 53.4062C178.031 53.5938 178.848 53.8398 179.566 54.1445C180.285 54.4414 180.855 54.8477 181.277 55.3633C181.699 55.8711 181.91 56.5391 181.91 57.3672C181.91 57.9297 181.785 58.4453 181.535 58.9141C181.285 59.3828 180.926 59.793 180.457 60.1445C179.988 60.4883 179.426 60.7578 178.77 60.9531C178.121 61.1406 177.391 61.2344 176.578 61.2344C175.398 61.2344 174.398 61.0234 173.578 60.6016C172.766 60.1797 172.148 59.6445 171.727 58.9961C171.312 58.3398 171.105 57.668 171.105 56.9805H174.305C174.32 57.4414 174.438 57.8125 174.656 58.0938C174.883 58.375 175.168 58.5781 175.512 58.7031C175.863 58.8281 176.242 58.8906 176.648 58.8906C177.086 58.8906 177.449 58.832 177.738 58.7148C178.027 58.5898 178.246 58.4258 178.395 58.2227C178.551 58.0117 178.629 57.7695 178.629 57.4961ZM187.395 43V61H184.02V43H187.395ZM186.914 54.2148H185.988C185.996 53.332 186.113 52.5195 186.34 51.7773C186.566 51.0273 186.891 50.3789 187.312 49.832C187.734 49.2773 188.238 48.8477 188.824 48.543C189.418 48.2383 190.074 48.0859 190.793 48.0859C191.418 48.0859 191.984 48.1758 192.492 48.3555C193.008 48.5273 193.449 48.8086 193.816 49.1992C194.191 49.582 194.48 50.0859 194.684 50.7109C194.887 51.3359 194.988 52.0938 194.988 52.9844V61H191.59V52.9609C191.59 52.3984 191.508 51.957 191.344 51.6367C191.188 51.3086 190.957 51.0781 190.652 50.9453C190.355 50.8047 189.988 50.7344 189.551 50.7344C189.066 50.7344 188.652 50.8242 188.309 51.0039C187.973 51.1836 187.703 51.4336 187.5 51.7539C187.297 52.0664 187.148 52.4336 187.055 52.8555C186.961 53.2773 186.914 53.7305 186.914 54.2148ZM213.633 55.3398H217.137C217.066 56.4883 216.75 57.5078 216.188 58.3984C215.633 59.2891 214.855 59.9844 213.855 60.4844C212.863 60.9844 211.668 61.2344 210.27 61.2344C209.176 61.2344 208.195 61.0469 207.328 60.6719C206.461 60.2891 205.719 59.7422 205.102 59.0312C204.492 58.3203 204.027 57.4609 203.707 56.4531C203.387 55.4453 203.227 54.3164 203.227 53.0664V51.8828C203.227 50.6328 203.391 49.5039 203.719 48.4961C204.055 47.4805 204.531 46.6172 205.148 45.9062C205.773 45.1953 206.52 44.6484 207.387 44.2656C208.254 43.8828 209.223 43.6914 210.293 43.6914C211.715 43.6914 212.914 43.9492 213.891 44.4648C214.875 44.9805 215.637 45.6914 216.176 46.5977C216.723 47.5039 217.051 48.5352 217.16 49.6914H213.645C213.605 49.0039 213.469 48.4219 213.234 47.9453C213 47.4609 212.645 47.0977 212.168 46.8555C211.699 46.6055 211.074 46.4805 210.293 46.4805C209.707 46.4805 209.195 46.5898 208.758 46.8086C208.32 47.0273 207.953 47.3594 207.656 47.8047C207.359 48.25 207.137 48.8125 206.988 49.4922C206.848 50.1641 206.777 50.9531 206.777 51.8594V53.0664C206.777 53.9492 206.844 54.7266 206.977 55.3984C207.109 56.0625 207.312 56.625 207.586 57.0859C207.867 57.5391 208.227 57.8828 208.664 58.1172C209.109 58.3438 209.645 58.457 210.27 58.457C211.004 58.457 211.609 58.3398 212.086 58.1055C212.562 57.8711 212.926 57.5234 213.176 57.0625C213.434 56.6016 213.586 56.0273 213.633 55.3398ZM218.695 54.7891V54.543C218.695 53.6133 218.828 52.7578 219.094 51.9766C219.359 51.1875 219.746 50.5039 220.254 49.9258C220.762 49.3477 221.387 48.8984 222.129 48.5781C222.871 48.25 223.723 48.0859 224.684 48.0859C225.645 48.0859 226.5 48.25 227.25 48.5781C228 48.8984 228.629 49.3477 229.137 49.9258C229.652 50.5039 230.043 51.1875 230.309 51.9766C230.574 52.7578 230.707 53.6133 230.707 54.543V54.7891C230.707 55.7109 230.574 56.5664 230.309 57.3555C230.043 58.1367 229.652 58.8203 229.137 59.4062C228.629 59.9844 228.004 60.4336 227.262 60.7539C226.52 61.0742 225.668 61.2344 224.707 61.2344C223.746 61.2344 222.891 61.0742 222.141 60.7539C221.398 60.4336 220.77 59.9844 220.254 59.4062C219.746 58.8203 219.359 58.1367 219.094 57.3555C218.828 56.5664 218.695 55.7109 218.695 54.7891ZM222.07 54.543V54.7891C222.07 55.3203 222.117 55.8164 222.211 56.2773C222.305 56.7383 222.453 57.1445 222.656 57.4961C222.867 57.8398 223.141 58.1094 223.477 58.3047C223.812 58.5 224.223 58.5977 224.707 58.5977C225.176 58.5977 225.578 58.5 225.914 58.3047C226.25 58.1094 226.52 57.8398 226.723 57.4961C226.926 57.1445 227.074 56.7383 227.168 56.2773C227.27 55.8164 227.32 55.3203 227.32 54.7891V54.543C227.32 54.0273 227.27 53.543 227.168 53.0898C227.074 52.6289 226.922 52.2227 226.711 51.8711C226.508 51.5117 226.238 51.2305 225.902 51.0273C225.566 50.8242 225.16 50.7227 224.684 50.7227C224.207 50.7227 223.801 50.8242 223.465 51.0273C223.137 51.2305 222.867 51.5117 222.656 51.8711C222.453 52.2227 222.305 52.6289 222.211 53.0898C222.117 53.543 222.07 54.0273 222.07 54.543ZM236.086 51.0273V61H232.711V48.3203H235.875L236.086 51.0273ZM235.594 54.2148H234.68C234.68 53.2773 234.801 52.4336 235.043 51.6836C235.285 50.9258 235.625 50.2812 236.062 49.75C236.5 49.2109 237.02 48.8008 237.621 48.5195C238.23 48.2305 238.91 48.0859 239.66 48.0859C240.254 48.0859 240.797 48.1719 241.289 48.3438C241.781 48.5156 242.203 48.7891 242.555 49.1641C242.914 49.5391 243.188 50.0352 243.375 50.6523C243.57 51.2695 243.668 52.0234 243.668 52.9141V61H240.27V52.9023C240.27 52.3398 240.191 51.9023 240.035 51.5898C239.879 51.2773 239.648 51.0586 239.344 50.9336C239.047 50.8008 238.68 50.7344 238.242 50.7344C237.789 50.7344 237.395 50.8242 237.059 51.0039C236.73 51.1836 236.457 51.4336 236.238 51.7539C236.027 52.0664 235.867 52.4336 235.758 52.8555C235.648 53.2773 235.594 53.7305 235.594 54.2148ZM249.539 51.0273V61H246.164V48.3203H249.328L249.539 51.0273ZM249.047 54.2148H248.133C248.133 53.2773 248.254 52.4336 248.496 51.6836C248.738 50.9258 249.078 50.2812 249.516 49.75C249.953 49.2109 250.473 48.8008 251.074 48.5195C251.684 48.2305 252.363 48.0859 253.113 48.0859C253.707 48.0859 254.25 48.1719 254.742 48.3438C255.234 48.5156 255.656 48.7891 256.008 49.1641C256.367 49.5391 256.641 50.0352 256.828 50.6523C257.023 51.2695 257.121 52.0234 257.121 52.9141V61H253.723V52.9023C253.723 52.3398 253.645 51.9023 253.488 51.5898C253.332 51.2773 253.102 51.0586 252.797 50.9336C252.5 50.8008 252.133 50.7344 251.695 50.7344C251.242 50.7344 250.848 50.8242 250.512 51.0039C250.184 51.1836 249.91 51.4336 249.691 51.7539C249.48 52.0664 249.32 52.4336 249.211 52.8555C249.102 53.2773 249.047 53.7305 249.047 54.2148ZM265.523 61.2344C264.539 61.2344 263.656 61.0781 262.875 60.7656C262.094 60.4453 261.43 60.0039 260.883 59.4414C260.344 58.8789 259.93 58.2266 259.641 57.4844C259.352 56.7344 259.207 55.9375 259.207 55.0938V54.625C259.207 53.6641 259.344 52.7852 259.617 51.9883C259.891 51.1914 260.281 50.5 260.789 49.9141C261.305 49.3281 261.93 48.8789 262.664 48.5664C263.398 48.2461 264.227 48.0859 265.148 48.0859C266.047 48.0859 266.844 48.2344 267.539 48.5312C268.234 48.8281 268.816 49.25 269.285 49.7969C269.762 50.3438 270.121 51 270.363 51.7656C270.605 52.5234 270.727 53.3672 270.727 54.2969V55.7031H260.648V53.4531H267.41V53.1953C267.41 52.7266 267.324 52.3086 267.152 51.9414C266.988 51.5664 266.738 51.2695 266.402 51.0508C266.066 50.832 265.637 50.7227 265.113 50.7227C264.668 50.7227 264.285 50.8203 263.965 51.0156C263.645 51.2109 263.383 51.4844 263.18 51.8359C262.984 52.1875 262.836 52.6016 262.734 53.0781C262.641 53.5469 262.594 54.0625 262.594 54.625V55.0938C262.594 55.6016 262.664 56.0703 262.805 56.5C262.953 56.9297 263.16 57.3008 263.426 57.6133C263.699 57.9258 264.027 58.168 264.41 58.3398C264.801 58.5117 265.242 58.5977 265.734 58.5977C266.344 58.5977 266.91 58.4805 267.434 58.2461C267.965 58.0039 268.422 57.6406 268.805 57.1562L270.445 58.9375C270.18 59.3203 269.816 59.6875 269.355 60.0391C268.902 60.3906 268.355 60.6797 267.715 60.9062C267.074 61.125 266.344 61.2344 265.523 61.2344ZM277.887 58.5977C278.301 58.5977 278.668 58.5195 278.988 58.3633C279.309 58.1992 279.559 57.9727 279.738 57.6836C279.926 57.3867 280.023 57.0391 280.031 56.6406H283.207C283.199 57.5312 282.961 58.3242 282.492 59.0195C282.023 59.707 281.395 60.25 280.605 60.6484C279.816 61.0391 278.934 61.2344 277.957 61.2344C276.973 61.2344 276.113 61.0703 275.379 60.7422C274.652 60.4141 274.047 59.9609 273.562 59.3828C273.078 58.7969 272.715 58.1172 272.473 57.3438C272.23 56.5625 272.109 55.7266 272.109 54.8359V54.4961C272.109 53.5977 272.23 52.7617 272.473 51.9883C272.715 51.207 273.078 50.5273 273.562 49.9492C274.047 49.3633 274.652 48.9062 275.379 48.5781C276.105 48.25 276.957 48.0859 277.934 48.0859C278.973 48.0859 279.883 48.2852 280.664 48.6836C281.453 49.082 282.07 49.6523 282.516 50.3945C282.969 51.1289 283.199 52 283.207 53.0078H280.031C280.023 52.5859 279.934 52.2031 279.762 51.8594C279.598 51.5156 279.355 51.2422 279.035 51.0391C278.723 50.8281 278.336 50.7227 277.875 50.7227C277.383 50.7227 276.98 50.8281 276.668 51.0391C276.355 51.2422 276.113 51.5234 275.941 51.8828C275.77 52.2344 275.648 52.6367 275.578 53.0898C275.516 53.5352 275.484 54.0039 275.484 54.4961V54.8359C275.484 55.3281 275.516 55.8008 275.578 56.2539C275.641 56.707 275.758 57.1094 275.93 57.4609C276.109 57.8125 276.355 58.0898 276.668 58.293C276.98 58.4961 277.387 58.5977 277.887 58.5977ZM291.375 48.3203V50.7109H283.992V48.3203H291.375ZM285.82 45.1914H289.195V57.1797C289.195 57.5469 289.242 57.8281 289.336 58.0234C289.438 58.2188 289.586 58.3555 289.781 58.4336C289.977 58.5039 290.223 58.5391 290.52 58.5391C290.73 58.5391 290.918 58.5312 291.082 58.5156C291.254 58.4922 291.398 58.4688 291.516 58.4453L291.527 60.9297C291.238 61.0234 290.926 61.0977 290.59 61.1523C290.254 61.207 289.883 61.2344 289.477 61.2344C288.734 61.2344 288.086 61.1133 287.531 60.8711C286.984 60.6211 286.562 60.2227 286.266 59.6758C285.969 59.1289 285.82 58.4102 285.82 57.5195V45.1914Z" fill="#888888"/>
<path d="M109.219 107.422H100.734V101.07H109.219C110.375 101.07 111.312 100.875 112.031 100.484C112.75 100.094 113.273 99.5547 113.602 98.8672C113.945 98.1641 114.117 97.375 114.117 96.5C114.117 95.5625 113.945 94.6953 113.602 93.8984C113.273 93.1016 112.75 92.4609 112.031 91.9766C111.312 91.4766 110.375 91.2266 109.219 91.2266H103.828V119H95.6016V84.875H109.219C111.953 84.875 114.305 85.375 116.273 86.375C118.258 87.375 119.781 88.75 120.844 90.5C121.906 92.2344 122.438 94.2188 122.438 96.4531C122.438 98.6562 121.906 100.578 120.844 102.219C119.781 103.859 118.258 105.141 116.273 106.062C114.305 106.969 111.953 107.422 109.219 107.422ZM138.445 119.469C136.383 119.469 134.539 119.148 132.914 118.508C131.289 117.852 129.914 116.953 128.789 115.812C127.68 114.672 126.828 113.359 126.234 111.875C125.656 110.391 125.367 108.82 125.367 107.164V106.273C125.367 104.414 125.625 102.695 126.141 101.117C126.656 99.5234 127.422 98.1328 128.438 96.9453C129.453 95.7578 130.727 94.8359 132.258 94.1797C133.789 93.5078 135.57 93.1719 137.602 93.1719C139.398 93.1719 141.008 93.4609 142.43 94.0391C143.852 94.6172 145.055 95.4453 146.039 96.5234C147.039 97.6016 147.797 98.9062 148.312 100.438C148.844 101.969 149.109 103.688 149.109 105.594V108.805H128.391V103.859H141.398V103.25C141.414 102.406 141.266 101.688 140.953 101.094C140.656 100.5 140.219 100.047 139.641 99.7344C139.062 99.4219 138.359 99.2656 137.531 99.2656C136.672 99.2656 135.961 99.4531 135.398 99.8281C134.852 100.203 134.422 100.719 134.109 101.375C133.812 102.016 133.602 102.758 133.477 103.602C133.352 104.445 133.289 105.336 133.289 106.273V107.164C133.289 108.102 133.414 108.953 133.664 109.719C133.93 110.484 134.305 111.141 134.789 111.688C135.289 112.219 135.883 112.633 136.57 112.93C137.273 113.227 138.07 113.375 138.961 113.375C140.039 113.375 141.102 113.172 142.148 112.766C143.195 112.359 144.094 111.688 144.844 110.75L148.43 115.016C147.914 115.75 147.18 116.461 146.227 117.148C145.289 117.836 144.164 118.398 142.852 118.836C141.539 119.258 140.07 119.469 138.445 119.469ZM160.289 99.9219V119H152.391V93.6406H159.773L160.289 99.9219ZM167.789 93.4531L167.648 100.789C167.336 100.758 166.914 100.719 166.383 100.672C165.852 100.625 165.406 100.602 165.047 100.602C164.125 100.602 163.328 100.711 162.656 100.93C162 101.133 161.453 101.445 161.016 101.867C160.594 102.273 160.281 102.789 160.078 103.414C159.891 104.039 159.805 104.766 159.82 105.594L158.391 104.656C158.391 102.953 158.555 101.406 158.883 100.016C159.227 98.6094 159.711 97.3984 160.336 96.3828C160.961 95.3516 161.719 94.5625 162.609 94.0156C163.5 93.4531 164.5 93.1719 165.609 93.1719C166 93.1719 166.383 93.1953 166.758 93.2422C167.148 93.2891 167.492 93.3594 167.789 93.4531ZM180.703 119H172.758V91.5781C172.758 89.6094 173.156 87.9531 173.953 86.6094C174.75 85.2656 175.875 84.25 177.328 83.5625C178.781 82.8594 180.5 82.5078 182.484 82.5078C183.172 82.5078 183.82 82.5547 184.43 82.6484C185.039 82.7422 185.633 82.8594 186.211 83L186.234 88.8125C185.953 88.7344 185.664 88.6797 185.367 88.6484C185.07 88.6172 184.703 88.6016 184.266 88.6016C183.5 88.6016 182.852 88.7188 182.32 88.9531C181.789 89.1719 181.383 89.5078 181.102 89.9609C180.836 90.3984 180.703 90.9375 180.703 91.5781V119ZM185.625 93.6406V99.125H169.102V93.6406H185.625ZM187.477 106.578V106.086C187.477 104.227 187.742 102.516 188.273 100.953C188.805 99.375 189.586 98.0078 190.617 96.8516C191.648 95.6953 192.922 94.7969 194.438 94.1562C195.953 93.5 197.703 93.1719 199.688 93.1719C201.688 93.1719 203.445 93.5 204.961 94.1562C206.492 94.7969 207.773 95.6953 208.805 96.8516C209.836 98.0078 210.617 99.375 211.148 100.953C211.68 102.516 211.945 104.227 211.945 106.086V106.578C211.945 108.422 211.68 110.133 211.148 111.711C210.617 113.273 209.836 114.641 208.805 115.812C207.773 116.969 206.5 117.867 204.984 118.508C203.469 119.148 201.719 119.469 199.734 119.469C197.75 119.469 195.992 119.148 194.461 118.508C192.93 117.867 191.648 116.969 190.617 115.812C189.586 114.641 188.805 113.273 188.273 111.711C187.742 110.133 187.477 108.422 187.477 106.578ZM195.375 106.086V106.578C195.375 107.531 195.445 108.422 195.586 109.25C195.727 110.078 195.961 110.805 196.289 111.43C196.617 112.039 197.062 112.516 197.625 112.859C198.188 113.203 198.891 113.375 199.734 113.375C200.562 113.375 201.25 113.203 201.797 112.859C202.359 112.516 202.805 112.039 203.133 111.43C203.461 110.805 203.695 110.078 203.836 109.25C203.977 108.422 204.047 107.531 204.047 106.578V106.086C204.047 105.164 203.977 104.297 203.836 103.484C203.695 102.656 203.461 101.93 203.133 101.305C202.805 100.664 202.359 100.164 201.797 99.8047C201.234 99.4453 200.531 99.2656 199.688 99.2656C198.859 99.2656 198.164 99.4453 197.602 99.8047C197.055 100.164 196.617 100.664 196.289 101.305C195.961 101.93 195.727 102.656 195.586 103.484C195.445 104.297 195.375 105.164 195.375 106.086ZM223.43 99.9219V119H215.531V93.6406H222.914L223.43 99.9219ZM230.93 93.4531L230.789 100.789C230.477 100.758 230.055 100.719 229.523 100.672C228.992 100.625 228.547 100.602 228.188 100.602C227.266 100.602 226.469 100.711 225.797 100.93C225.141 101.133 224.594 101.445 224.156 101.867C223.734 102.273 223.422 102.789 223.219 103.414C223.031 104.039 222.945 104.766 222.961 105.594L221.531 104.656C221.531 102.953 221.695 101.406 222.023 100.016C222.367 98.6094 222.852 97.3984 223.477 96.3828C224.102 95.3516 224.859 94.5625 225.75 94.0156C226.641 93.4531 227.641 93.1719 228.75 93.1719C229.141 93.1719 229.523 93.1953 229.898 93.2422C230.289 93.2891 230.633 93.3594 230.93 93.4531ZM241.617 99.0078V119H233.719V93.6406H241.125L241.617 99.0078ZM240.656 105.453L238.852 105.5C238.852 103.719 239.062 102.078 239.484 100.578C239.906 99.0781 240.531 97.7734 241.359 96.6641C242.188 95.5547 243.203 94.6953 244.406 94.0859C245.625 93.4766 247.031 93.1719 248.625 93.1719C249.734 93.1719 250.742 93.3438 251.648 93.6875C252.555 94.0156 253.336 94.5391 253.992 95.2578C254.648 95.9609 255.148 96.8828 255.492 98.0234C255.852 99.1484 256.031 100.5 256.031 102.078V119H248.133V103.086C248.133 102.008 248.008 101.195 247.758 100.648C247.523 100.102 247.18 99.7344 246.727 99.5469C246.273 99.3594 245.719 99.2656 245.062 99.2656C244.375 99.2656 243.758 99.4219 243.211 99.7344C242.664 100.047 242.195 100.484 241.805 101.047C241.43 101.594 241.141 102.242 240.938 102.992C240.75 103.742 240.656 104.562 240.656 105.453ZM255.141 105.453L252.938 105.5C252.938 103.719 253.133 102.078 253.523 100.578C253.93 99.0781 254.531 97.7734 255.328 96.6641C256.141 95.5547 257.148 94.6953 258.352 94.0859C259.555 93.4766 260.953 93.1719 262.547 93.1719C263.703 93.1719 264.766 93.3438 265.734 93.6875C266.703 94.0312 267.539 94.5859 268.242 95.3516C268.945 96.1172 269.492 97.1328 269.883 98.3984C270.273 99.6484 270.469 101.195 270.469 103.039V119H262.547V103.039C262.547 101.992 262.422 101.203 262.172 100.672C261.938 100.125 261.594 99.7578 261.141 99.5703C260.688 99.3672 260.148 99.2656 259.523 99.2656C258.773 99.2656 258.125 99.4219 257.578 99.7344C257.031 100.047 256.57 100.484 256.195 101.047C255.836 101.594 255.57 102.242 255.398 102.992C255.227 103.742 255.141 104.562 255.141 105.453ZM288.164 112.625V102.172C288.164 101.453 288.062 100.836 287.859 100.32C287.656 99.8047 287.336 99.4062 286.898 99.125C286.461 98.8281 285.875 98.6797 285.141 98.6797C284.547 98.6797 284.039 98.7812 283.617 98.9844C283.195 99.1875 282.875 99.4922 282.656 99.8984C282.438 100.305 282.328 100.82 282.328 101.445H274.43C274.43 100.273 274.688 99.1875 275.203 98.1875C275.734 97.1719 276.484 96.2891 277.453 95.5391C278.438 94.7891 279.609 94.2109 280.969 93.8047C282.344 93.3828 283.875 93.1719 285.562 93.1719C287.578 93.1719 289.375 93.5078 290.953 94.1797C292.547 94.8516 293.805 95.8594 294.727 97.2031C295.648 98.5312 296.109 100.203 296.109 102.219V112.602C296.109 114.258 296.203 115.516 296.391 116.375C296.578 117.219 296.844 117.961 297.188 118.602V119H289.266C288.891 118.219 288.609 117.266 288.422 116.141C288.25 115 288.164 113.828 288.164 112.625ZM289.125 103.508L289.172 107.727H285.68C284.945 107.727 284.32 107.828 283.805 108.031C283.305 108.234 282.898 108.516 282.586 108.875C282.289 109.219 282.07 109.609 281.93 110.047C281.805 110.484 281.742 110.945 281.742 111.43C281.742 111.898 281.852 112.32 282.07 112.695C282.305 113.055 282.617 113.336 283.008 113.539C283.398 113.742 283.836 113.844 284.32 113.844C285.195 113.844 285.938 113.68 286.547 113.352C287.172 113.008 287.648 112.594 287.977 112.109C288.305 111.625 288.469 111.172 288.469 110.75L290.203 113.984C289.891 114.609 289.531 115.242 289.125 115.883C288.734 116.523 288.242 117.117 287.648 117.664C287.07 118.195 286.359 118.633 285.516 118.977C284.672 119.305 283.648 119.469 282.445 119.469C280.883 119.469 279.445 119.148 278.133 118.508C276.836 117.867 275.797 116.977 275.016 115.836C274.234 114.68 273.844 113.352 273.844 111.852C273.844 110.539 274.078 109.367 274.547 108.336C275.031 107.305 275.758 106.43 276.727 105.711C277.695 104.992 278.93 104.445 280.43 104.07C281.93 103.695 283.695 103.508 285.727 103.508H289.125ZM308.25 99.0547V119H300.352V93.6406H307.758L308.25 99.0547ZM307.312 105.453L305.461 105.5C305.461 103.562 305.695 101.836 306.164 100.32C306.633 98.7891 307.297 97.4922 308.156 96.4297C309.016 95.3672 310.039 94.5625 311.227 94.0156C312.43 93.4531 313.766 93.1719 315.234 93.1719C316.406 93.1719 317.477 93.3438 318.445 93.6875C319.43 94.0312 320.273 94.5859 320.977 95.3516C321.695 96.1172 322.242 97.1328 322.617 98.3984C323.008 99.6484 323.203 101.195 323.203 103.039V119H315.258V103.016C315.258 102 315.117 101.227 314.836 100.695C314.555 100.148 314.148 99.7734 313.617 99.5703C313.086 99.3672 312.438 99.2656 311.672 99.2656C310.859 99.2656 310.172 99.4219 309.609 99.7344C309.047 100.047 308.594 100.484 308.25 101.047C307.922 101.594 307.68 102.242 307.523 102.992C307.383 103.742 307.312 104.562 307.312 105.453ZM338.297 113.375C339.031 113.375 339.656 113.242 340.172 112.977C340.703 112.695 341.102 112.305 341.367 111.805C341.648 111.289 341.781 110.672 341.766 109.953H349.195C349.211 111.859 348.742 113.531 347.789 114.969C346.852 116.391 345.57 117.5 343.945 118.297C342.336 119.078 340.516 119.469 338.484 119.469C336.5 119.469 334.766 119.148 333.281 118.508C331.797 117.852 330.555 116.945 329.555 115.789C328.57 114.617 327.828 113.25 327.328 111.688C326.844 110.125 326.602 108.43 326.602 106.602V106.062C326.602 104.234 326.844 102.539 327.328 100.977C327.828 99.3984 328.57 98.0312 329.555 96.875C330.555 95.7031 331.789 94.7969 333.258 94.1562C334.742 93.5 336.469 93.1719 338.438 93.1719C340.547 93.1719 342.406 93.5703 344.016 94.3672C345.641 95.1641 346.914 96.3203 347.836 97.8359C348.758 99.3516 349.211 101.188 349.195 103.344H341.766C341.781 102.578 341.664 101.891 341.414 101.281C341.164 100.672 340.773 100.188 340.242 99.8281C339.727 99.4531 339.062 99.2656 338.25 99.2656C337.438 99.2656 336.781 99.4453 336.281 99.8047C335.781 100.164 335.398 100.664 335.133 101.305C334.883 101.93 334.711 102.648 334.617 103.461C334.539 104.273 334.5 105.141 334.5 106.062V106.602C334.5 107.539 334.539 108.422 334.617 109.25C334.711 110.062 334.891 110.781 335.156 111.406C335.422 112.016 335.805 112.5 336.305 112.859C336.805 113.203 337.469 113.375 338.297 113.375ZM364.852 119.469C362.789 119.469 360.945 119.148 359.32 118.508C357.695 117.852 356.32 116.953 355.195 115.812C354.086 114.672 353.234 113.359 352.641 111.875C352.062 110.391 351.773 108.82 351.773 107.164V106.273C351.773 104.414 352.031 102.695 352.547 101.117C353.062 99.5234 353.828 98.1328 354.844 96.9453C355.859 95.7578 357.133 94.8359 358.664 94.1797C360.195 93.5078 361.977 93.1719 364.008 93.1719C365.805 93.1719 367.414 93.4609 368.836 94.0391C370.258 94.6172 371.461 95.4453 372.445 96.5234C373.445 97.6016 374.203 98.9062 374.719 100.438C375.25 101.969 375.516 103.688 375.516 105.594V108.805H354.797V103.859H367.805V103.25C367.82 102.406 367.672 101.688 367.359 101.094C367.062 100.5 366.625 100.047 366.047 99.7344C365.469 99.4219 364.766 99.2656 363.938 99.2656C363.078 99.2656 362.367 99.4531 361.805 99.8281C361.258 100.203 360.828 100.719 360.516 101.375C360.219 102.016 360.008 102.758 359.883 103.602C359.758 104.445 359.695 105.336 359.695 106.273V107.164C359.695 108.102 359.82 108.953 360.07 109.719C360.336 110.484 360.711 111.141 361.195 111.688C361.695 112.219 362.289 112.633 362.977 112.93C363.68 113.227 364.477 113.375 365.367 113.375C366.445 113.375 367.508 113.172 368.555 112.766C369.602 112.359 370.5 111.688 371.25 110.75L374.836 115.016C374.32 115.75 373.586 116.461 372.633 117.148C371.695 117.836 370.57 118.398 369.258 118.836C367.945 119.258 366.477 119.469 364.852 119.469Z" fill="black"/>
<path d="M1134 0H1348C1356.28 0 1363 6.71573 1363 15V148C1363 156.284 1356.28 163 1348 163H1134V0Z" fill="#006942"/>
<path fill-rule="evenodd" clip-rule="evenodd" d="M1264.4 75.3118L1278.71 57.3228L1238.18 89.2983C1237.62 89.8596 1237.18 90.526 1236.87 91.2594C1236.57 91.9928 1236.41 92.7789 1236.41 93.5728C1236.41 94.3666 1236.57 95.1527 1236.87 95.8861C1237.18 96.6195 1237.62 97.2859 1238.18 97.8472C1238.75 98.4086 1239.41 98.8539 1240.15 99.1576C1240.88 99.4614 1241.66 99.6178 1242.46 99.6178C1243.25 99.6178 1244.04 99.4614 1244.77 99.1576C1245.51 98.8539 1246.17 98.4086 1246.73 97.8472L1263.74 76.1275L1264.4 75.3118ZM1215.84 90.5519C1214.31 82.4575 1215.88 74.081 1220.24 67.0921L1223.4 70.8561C1220.04 75.7662 1218.26 81.583 1218.29 87.5311V90.5519H1215.84ZM1235.09 54.1169C1239.31 52.2461 1243.88 51.2801 1248.5 51.2811C1255.63 51.2809 1262.57 53.5868 1268.28 57.8544L1257.55 66.3188C1253.44 62.5138 1248.06 60.3826 1242.46 60.3436C1236.89 60.3832 1231.53 62.4936 1227.43 66.2644L1223.97 62.144C1227.08 58.7221 1230.86 55.9878 1235.09 54.1169ZM1268.43 79.9397L1269.13 79.0728L1277.58 68.4455C1281.32 75.1687 1282.59 82.992 1281.16 90.5519H1266.63V87.5311C1266.62 85.9292 1266.49 84.3303 1266.23 82.7491L1268.43 79.9397Z" fill="white"/>
</svg>
