<svg width="1363" height="297" viewBox="0 0 1363 297" fill="none" xmlns="http://www.w3.org/2000/svg">
<path d="M0 15C0 6.71573 6.71573 0 15 0H37V297H15C6.71573 297 0 290.284 0 282V15Z" fill="#006942"/>
<path d="M37 0H1066V297H37V0Z" fill="#F0F0F0"/>
<path d="M105.639 67.1426V49.4062H110.895V67.1426C110.895 68.8535 110.52 70.3242 109.77 71.5547C109.02 72.7734 107.994 73.7109 106.693 74.3672C105.404 75.0234 103.951 75.3516 102.334 75.3516C100.658 75.3516 99.1758 75.0703 97.8867 74.5078C96.5977 73.9453 95.584 73.084 94.8457 71.9238C94.1074 70.752 93.7383 69.2695 93.7383 67.4766H99.0293C99.0293 68.4141 99.1582 69.1582 99.416 69.709C99.6855 70.2598 100.066 70.6523 100.559 70.8867C101.051 71.1211 101.643 71.2383 102.334 71.2383C103.002 71.2383 103.582 71.0801 104.074 70.7637C104.566 70.4473 104.947 69.9844 105.217 69.375C105.498 68.7656 105.639 68.0215 105.639 67.1426ZM125.344 70.7109V62.2383C125.344 61.6289 125.244 61.1074 125.045 60.6738C124.846 60.2285 124.535 59.8828 124.113 59.6367C123.703 59.3906 123.17 59.2676 122.514 59.2676C121.951 59.2676 121.465 59.3672 121.055 59.5664C120.645 59.7539 120.328 60.0293 120.105 60.3926C119.883 60.7441 119.771 61.1602 119.771 61.6406H114.709C114.709 60.832 114.896 60.0645 115.271 59.3379C115.646 58.6113 116.191 57.9727 116.906 57.4219C117.621 56.8594 118.471 56.4199 119.455 56.1035C120.451 55.7871 121.564 55.6289 122.795 55.6289C124.271 55.6289 125.584 55.875 126.732 56.3672C127.881 56.8594 128.783 57.5977 129.439 58.582C130.107 59.5664 130.441 60.7969 130.441 62.2734V70.4121C130.441 71.4551 130.506 72.3105 130.635 72.9785C130.764 73.6348 130.951 74.209 131.197 74.7012V75H126.082C125.836 74.4844 125.648 73.8398 125.52 73.0664C125.402 72.2812 125.344 71.4961 125.344 70.7109ZM126.012 63.416L126.047 66.2812H123.217C122.549 66.2812 121.969 66.3574 121.477 66.5098C120.984 66.6621 120.58 66.8789 120.264 67.1602C119.947 67.4297 119.713 67.7461 119.561 68.1094C119.42 68.4727 119.35 68.8711 119.35 69.3047C119.35 69.7383 119.449 70.1309 119.648 70.4824C119.848 70.8223 120.135 71.0918 120.51 71.291C120.885 71.4785 121.324 71.5723 121.828 71.5723C122.59 71.5723 123.252 71.4199 123.814 71.1152C124.377 70.8105 124.811 70.4355 125.115 69.9902C125.432 69.5449 125.596 69.123 125.607 68.7246L126.943 70.8691C126.756 71.3496 126.498 71.8477 126.17 72.3633C125.854 72.8789 125.449 73.3652 124.957 73.8223C124.465 74.2676 123.873 74.6367 123.182 74.9297C122.49 75.2109 121.67 75.3516 120.721 75.3516C119.514 75.3516 118.418 75.1113 117.434 74.6309C116.461 74.1387 115.688 73.4648 115.113 72.6094C114.551 71.7422 114.27 70.7578 114.27 69.6562C114.27 68.6602 114.457 67.7754 114.832 67.002C115.207 66.2285 115.758 65.5781 116.484 65.0508C117.223 64.5117 118.143 64.1074 119.244 63.8379C120.346 63.5566 121.623 63.416 123.076 63.416H126.012ZM144.609 70.7109V62.2383C144.609 61.6289 144.51 61.1074 144.311 60.6738C144.111 60.2285 143.801 59.8828 143.379 59.6367C142.969 59.3906 142.436 59.2676 141.779 59.2676C141.217 59.2676 140.73 59.3672 140.32 59.5664C139.91 59.7539 139.594 60.0293 139.371 60.3926C139.148 60.7441 139.037 61.1602 139.037 61.6406H133.975C133.975 60.832 134.162 60.0645 134.537 59.3379C134.912 58.6113 135.457 57.9727 136.172 57.4219C136.887 56.8594 137.736 56.4199 138.721 56.1035C139.717 55.7871 140.83 55.6289 142.061 55.6289C143.537 55.6289 144.85 55.875 145.998 56.3672C147.146 56.8594 148.049 57.5977 148.705 58.582C149.373 59.5664 149.707 60.7969 149.707 62.2734V70.4121C149.707 71.4551 149.771 72.3105 149.9 72.9785C150.029 73.6348 150.217 74.209 150.463 74.7012V75H145.348C145.102 74.4844 144.914 73.8398 144.785 73.0664C144.668 72.2812 144.609 71.4961 144.609 70.7109ZM145.277 63.416L145.312 66.2812H142.482C141.814 66.2812 141.234 66.3574 140.742 66.5098C140.25 66.6621 139.846 66.8789 139.529 67.1602C139.213 67.4297 138.979 67.7461 138.826 68.1094C138.686 68.4727 138.615 68.8711 138.615 69.3047C138.615 69.7383 138.715 70.1309 138.914 70.4824C139.113 70.8223 139.4 71.0918 139.775 71.291C140.15 71.4785 140.59 71.5723 141.094 71.5723C141.855 71.5723 142.518 71.4199 143.08 71.1152C143.643 70.8105 144.076 70.4355 144.381 69.9902C144.697 69.5449 144.861 69.123 144.873 68.7246L146.209 70.8691C146.021 71.3496 145.764 71.8477 145.436 72.3633C145.119 72.8789 144.715 73.3652 144.223 73.8223C143.73 74.2676 143.139 74.6367 142.447 74.9297C141.756 75.2109 140.936 75.3516 139.986 75.3516C138.779 75.3516 137.684 75.1113 136.699 74.6309C135.727 74.1387 134.953 73.4648 134.379 72.6094C133.816 71.7422 133.535 70.7578 133.535 69.6562C133.535 68.6602 133.723 67.7754 134.098 67.002C134.473 66.2285 135.023 65.5781 135.75 65.0508C136.488 64.5117 137.408 64.1074 138.51 63.8379C139.611 63.5566 140.889 63.416 142.342 63.416H145.277ZM160.061 75H154.963V54.293C154.963 52.8516 155.244 51.6387 155.807 50.6543C156.381 49.6582 157.184 48.9082 158.215 48.4043C159.258 47.8887 160.494 47.6309 161.924 47.6309C162.393 47.6309 162.844 47.666 163.277 47.7363C163.711 47.7949 164.133 47.8711 164.543 47.9648L164.49 51.7793C164.268 51.7207 164.033 51.6797 163.787 51.6562C163.541 51.6328 163.254 51.6211 162.926 51.6211C162.316 51.6211 161.795 51.7266 161.361 51.9375C160.939 52.1367 160.617 52.4355 160.395 52.834C160.172 53.2324 160.061 53.7188 160.061 54.293V75ZM163.857 55.9805V59.5664H152.133V55.9805H163.857ZM176.777 70.7109V62.2383C176.777 61.6289 176.678 61.1074 176.479 60.6738C176.279 60.2285 175.969 59.8828 175.547 59.6367C175.137 59.3906 174.604 59.2676 173.947 59.2676C173.385 59.2676 172.898 59.3672 172.488 59.5664C172.078 59.7539 171.762 60.0293 171.539 60.3926C171.316 60.7441 171.205 61.1602 171.205 61.6406H166.143C166.143 60.832 166.33 60.0645 166.705 59.3379C167.08 58.6113 167.625 57.9727 168.34 57.4219C169.055 56.8594 169.904 56.4199 170.889 56.1035C171.885 55.7871 172.998 55.6289 174.229 55.6289C175.705 55.6289 177.018 55.875 178.166 56.3672C179.314 56.8594 180.217 57.5977 180.873 58.582C181.541 59.5664 181.875 60.7969 181.875 62.2734V70.4121C181.875 71.4551 181.939 72.3105 182.068 72.9785C182.197 73.6348 182.385 74.209 182.631 74.7012V75H177.516C177.27 74.4844 177.082 73.8398 176.953 73.0664C176.836 72.2812 176.777 71.4961 176.777 70.7109ZM177.445 63.416L177.48 66.2812H174.65C173.982 66.2812 173.402 66.3574 172.91 66.5098C172.418 66.6621 172.014 66.8789 171.697 67.1602C171.381 67.4297 171.146 67.7461 170.994 68.1094C170.854 68.4727 170.783 68.8711 170.783 69.3047C170.783 69.7383 170.883 70.1309 171.082 70.4824C171.281 70.8223 171.568 71.0918 171.943 71.291C172.318 71.4785 172.758 71.5723 173.262 71.5723C174.023 71.5723 174.686 71.4199 175.248 71.1152C175.811 70.8105 176.244 70.4355 176.549 69.9902C176.865 69.5449 177.029 69.123 177.041 68.7246L178.377 70.8691C178.189 71.3496 177.932 71.8477 177.604 72.3633C177.287 72.8789 176.883 73.3652 176.391 73.8223C175.898 74.2676 175.307 74.6367 174.615 74.9297C173.924 75.2109 173.104 75.3516 172.154 75.3516C170.947 75.3516 169.852 75.1113 168.867 74.6309C167.895 74.1387 167.121 73.4648 166.547 72.6094C165.984 71.7422 165.703 70.7578 165.703 69.6562C165.703 68.6602 165.891 67.7754 166.266 67.002C166.641 66.2285 167.191 65.5781 167.918 65.0508C168.656 64.5117 169.576 64.1074 170.678 63.8379C171.779 63.5566 173.057 63.416 174.51 63.416H177.445ZM190.84 60.1289V75H185.777V55.9805H190.541L190.84 60.1289ZM196.57 55.8574L196.482 60.5508C196.236 60.5156 195.938 60.4863 195.586 60.4629C195.246 60.4277 194.936 60.4102 194.654 60.4102C193.939 60.4102 193.318 60.5039 192.791 60.6914C192.275 60.8672 191.842 61.1309 191.49 61.4824C191.15 61.834 190.893 62.2617 190.717 62.7656C190.553 63.2695 190.459 63.8438 190.436 64.4883L189.416 64.1719C189.416 62.9414 189.539 61.8105 189.785 60.7793C190.031 59.7363 190.389 58.8281 190.857 58.0547C191.338 57.2812 191.924 56.6836 192.615 56.2617C193.307 55.8398 194.098 55.6289 194.988 55.6289C195.27 55.6289 195.557 55.6523 195.85 55.6992C196.143 55.7344 196.383 55.7871 196.57 55.8574ZM210.65 49.4062H215.115L221.689 68.1973L228.264 49.4062H232.729L223.482 75H219.896L210.65 49.4062ZM208.242 49.4062H212.689L213.498 67.7227V75H208.242V49.4062ZM230.689 49.4062H235.154V75H229.881V67.7227L230.689 49.4062ZM238.652 65.6836V65.3145C238.652 63.9199 238.852 62.6367 239.25 61.4648C239.648 60.2812 240.229 59.2559 240.99 58.3887C241.752 57.5215 242.689 56.8477 243.803 56.3672C244.916 55.875 246.193 55.6289 247.635 55.6289C249.076 55.6289 250.359 55.875 251.484 56.3672C252.609 56.8477 253.553 57.5215 254.314 58.3887C255.088 59.2559 255.674 60.2812 256.072 61.4648C256.471 62.6367 256.67 63.9199 256.67 65.3145V65.6836C256.67 67.0664 256.471 68.3496 256.072 69.5332C255.674 70.7051 255.088 71.7305 254.314 72.6094C253.553 73.4766 252.615 74.1504 251.502 74.6309C250.389 75.1113 249.111 75.3516 247.67 75.3516C246.229 75.3516 244.945 75.1113 243.82 74.6309C242.707 74.1504 241.764 73.4766 240.99 72.6094C240.229 71.7305 239.648 70.7051 239.25 69.5332C238.852 68.3496 238.652 67.0664 238.652 65.6836ZM243.715 65.3145V65.6836C243.715 66.4805 243.785 67.2246 243.926 67.916C244.066 68.6074 244.289 69.2168 244.594 69.7441C244.91 70.2598 245.32 70.6641 245.824 70.957C246.328 71.25 246.943 71.3965 247.67 71.3965C248.373 71.3965 248.977 71.25 249.48 70.957C249.984 70.6641 250.389 70.2598 250.693 69.7441C250.998 69.2168 251.221 68.6074 251.361 67.916C251.514 67.2246 251.59 66.4805 251.59 65.6836V65.3145C251.59 64.541 251.514 63.8145 251.361 63.1348C251.221 62.4434 250.992 61.834 250.676 61.3066C250.371 60.7676 249.967 60.3457 249.463 60.041C248.959 59.7363 248.35 59.584 247.635 59.584C246.92 59.584 246.311 59.7363 245.807 60.041C245.314 60.3457 244.91 60.7676 244.594 61.3066C244.289 61.834 244.066 62.4434 243.926 63.1348C243.785 63.8145 243.715 64.541 243.715 65.3145ZM264.844 60.1289V75H259.781V55.9805H264.545L264.844 60.1289ZM270.574 55.8574L270.486 60.5508C270.24 60.5156 269.941 60.4863 269.59 60.4629C269.25 60.4277 268.939 60.4102 268.658 60.4102C267.943 60.4102 267.322 60.5039 266.795 60.6914C266.279 60.8672 265.846 61.1309 265.494 61.4824C265.154 61.834 264.896 62.2617 264.721 62.7656C264.557 63.2695 264.463 63.8438 264.439 64.4883L263.42 64.1719C263.42 62.9414 263.543 61.8105 263.789 60.7793C264.035 59.7363 264.393 58.8281 264.861 58.0547C265.342 57.2812 265.928 56.6836 266.619 56.2617C267.311 55.8398 268.102 55.6289 268.992 55.6289C269.273 55.6289 269.561 55.6523 269.854 55.6992C270.146 55.7344 270.387 55.7871 270.574 55.8574ZM283.16 55.9805V59.5664H272.086V55.9805H283.16ZM274.828 51.2871H279.891V69.2695C279.891 69.8203 279.961 70.2422 280.102 70.5352C280.254 70.8281 280.477 71.0332 280.77 71.1504C281.062 71.2559 281.432 71.3086 281.877 71.3086C282.193 71.3086 282.475 71.2969 282.721 71.2734C282.979 71.2383 283.195 71.2031 283.371 71.168L283.389 74.8945C282.955 75.0352 282.486 75.1465 281.982 75.2285C281.479 75.3105 280.922 75.3516 280.312 75.3516C279.199 75.3516 278.227 75.1699 277.395 74.8066C276.574 74.4316 275.941 73.834 275.496 73.0137C275.051 72.1934 274.828 71.1152 274.828 69.7793V51.2871ZM296.309 70.7109V62.2383C296.309 61.6289 296.209 61.1074 296.01 60.6738C295.811 60.2285 295.5 59.8828 295.078 59.6367C294.668 59.3906 294.135 59.2676 293.479 59.2676C292.916 59.2676 292.43 59.3672 292.02 59.5664C291.609 59.7539 291.293 60.0293 291.07 60.3926C290.848 60.7441 290.736 61.1602 290.736 61.6406H285.674C285.674 60.832 285.861 60.0645 286.236 59.3379C286.611 58.6113 287.156 57.9727 287.871 57.4219C288.586 56.8594 289.436 56.4199 290.42 56.1035C291.416 55.7871 292.529 55.6289 293.76 55.6289C295.236 55.6289 296.549 55.875 297.697 56.3672C298.846 56.8594 299.748 57.5977 300.404 58.582C301.072 59.5664 301.406 60.7969 301.406 62.2734V70.4121C301.406 71.4551 301.471 72.3105 301.6 72.9785C301.729 73.6348 301.916 74.209 302.162 74.7012V75H297.047C296.801 74.4844 296.613 73.8398 296.484 73.0664C296.367 72.2812 296.309 71.4961 296.309 70.7109ZM296.977 63.416L297.012 66.2812H294.182C293.514 66.2812 292.934 66.3574 292.441 66.5098C291.949 66.6621 291.545 66.8789 291.229 67.1602C290.912 67.4297 290.678 67.7461 290.525 68.1094C290.385 68.4727 290.314 68.8711 290.314 69.3047C290.314 69.7383 290.414 70.1309 290.613 70.4824C290.812 70.8223 291.1 71.0918 291.475 71.291C291.85 71.4785 292.289 71.5723 292.793 71.5723C293.555 71.5723 294.217 71.4199 294.779 71.1152C295.342 70.8105 295.775 70.4355 296.08 69.9902C296.396 69.5449 296.561 69.123 296.572 68.7246L297.908 70.8691C297.721 71.3496 297.463 71.8477 297.135 72.3633C296.818 72.8789 296.414 73.3652 295.922 73.8223C295.43 74.2676 294.838 74.6367 294.146 74.9297C293.455 75.2109 292.635 75.3516 291.686 75.3516C290.479 75.3516 289.383 75.1113 288.398 74.6309C287.426 74.1387 286.652 73.4648 286.078 72.6094C285.516 71.7422 285.234 70.7578 285.234 69.6562C285.234 68.6602 285.422 67.7754 285.797 67.002C286.172 66.2285 286.723 65.5781 287.449 65.0508C288.188 64.5117 289.107 64.1074 290.209 63.8379C291.311 63.5566 292.588 63.416 294.041 63.416H296.977ZM316.541 70.8516V48H321.639V75H317.051L316.541 70.8516ZM304.518 65.7188V65.3496C304.518 63.8965 304.682 62.5781 305.01 61.3945C305.338 60.1992 305.818 59.1738 306.451 58.3184C307.084 57.4629 307.863 56.8008 308.789 56.332C309.715 55.8633 310.77 55.6289 311.953 55.6289C313.066 55.6289 314.039 55.8633 314.871 56.332C315.715 56.8008 316.43 57.4688 317.016 58.3359C317.613 59.1914 318.094 60.2051 318.457 61.377C318.82 62.5371 319.084 63.8086 319.248 65.1914V66C319.084 67.3242 318.82 68.5547 318.457 69.6914C318.094 70.8281 317.613 71.8242 317.016 72.6797C316.43 73.5234 315.715 74.1797 314.871 74.6484C314.027 75.1172 313.043 75.3516 311.918 75.3516C310.734 75.3516 309.68 75.1113 308.754 74.6309C307.84 74.1504 307.066 73.4766 306.434 72.6094C305.812 71.7422 305.338 70.7227 305.01 69.5508C304.682 68.3789 304.518 67.1016 304.518 65.7188ZM309.58 65.3496V65.7188C309.58 66.5039 309.639 67.2363 309.756 67.916C309.885 68.5957 310.09 69.1992 310.371 69.7266C310.664 70.2422 311.039 70.6465 311.496 70.9395C311.965 71.2207 312.533 71.3613 313.201 71.3613C314.068 71.3613 314.783 71.168 315.346 70.7812C315.908 70.3828 316.336 69.8379 316.629 69.1465C316.934 68.4551 317.109 67.6582 317.156 66.7559V64.4531C317.121 63.7148 317.016 63.0527 316.84 62.4668C316.676 61.8691 316.43 61.3594 316.102 60.9375C315.785 60.5156 315.387 60.1875 314.906 59.9531C314.438 59.7188 313.881 59.6016 313.236 59.6016C312.58 59.6016 312.018 59.7539 311.549 60.0586C311.08 60.3516 310.699 60.7559 310.406 61.2715C310.125 61.7871 309.914 62.3965 309.773 63.0996C309.645 63.791 309.58 64.541 309.58 65.3496ZM335.859 70.7109V62.2383C335.859 61.6289 335.76 61.1074 335.561 60.6738C335.361 60.2285 335.051 59.8828 334.629 59.6367C334.219 59.3906 333.686 59.2676 333.029 59.2676C332.467 59.2676 331.98 59.3672 331.57 59.5664C331.16 59.7539 330.844 60.0293 330.621 60.3926C330.398 60.7441 330.287 61.1602 330.287 61.6406H325.225C325.225 60.832 325.412 60.0645 325.787 59.3379C326.162 58.6113 326.707 57.9727 327.422 57.4219C328.137 56.8594 328.986 56.4199 329.971 56.1035C330.967 55.7871 332.08 55.6289 333.311 55.6289C334.787 55.6289 336.1 55.875 337.248 56.3672C338.396 56.8594 339.299 57.5977 339.955 58.582C340.623 59.5664 340.957 60.7969 340.957 62.2734V70.4121C340.957 71.4551 341.021 72.3105 341.15 72.9785C341.279 73.6348 341.467 74.209 341.713 74.7012V75H336.598C336.352 74.4844 336.164 73.8398 336.035 73.0664C335.918 72.2812 335.859 71.4961 335.859 70.7109ZM336.527 63.416L336.562 66.2812H333.732C333.064 66.2812 332.484 66.3574 331.992 66.5098C331.5 66.6621 331.096 66.8789 330.779 67.1602C330.463 67.4297 330.229 67.7461 330.076 68.1094C329.936 68.4727 329.865 68.8711 329.865 69.3047C329.865 69.7383 329.965 70.1309 330.164 70.4824C330.363 70.8223 330.65 71.0918 331.025 71.291C331.4 71.4785 331.84 71.5723 332.344 71.5723C333.105 71.5723 333.768 71.4199 334.33 71.1152C334.893 70.8105 335.326 70.4355 335.631 69.9902C335.947 69.5449 336.111 69.123 336.123 68.7246L337.459 70.8691C337.271 71.3496 337.014 71.8477 336.686 72.3633C336.369 72.8789 335.965 73.3652 335.473 73.8223C334.98 74.2676 334.389 74.6367 333.697 74.9297C333.006 75.2109 332.186 75.3516 331.236 75.3516C330.029 75.3516 328.934 75.1113 327.949 74.6309C326.977 74.1387 326.203 73.4648 325.629 72.6094C325.066 71.7422 324.785 70.7578 324.785 69.6562C324.785 68.6602 324.973 67.7754 325.348 67.002C325.723 66.2285 326.273 65.5781 327 65.0508C327.738 64.5117 328.658 64.1074 329.76 63.8379C330.861 63.5566 332.139 63.416 333.592 63.416H336.527Z" fill="#888888"/>
<path d="M129.285 100.188V140H119.715L105.633 115.227V140H96.0352V100.188H105.633L119.715 124.961V100.188H129.285ZM133.77 125.508V124.934C133.77 122.764 134.079 120.768 134.699 118.945C135.319 117.104 136.23 115.509 137.434 114.16C138.637 112.811 140.122 111.763 141.891 111.016C143.659 110.25 145.701 109.867 148.016 109.867C150.349 109.867 152.4 110.25 154.168 111.016C155.954 111.763 157.449 112.811 158.652 114.16C159.855 115.509 160.767 117.104 161.387 118.945C162.007 120.768 162.316 122.764 162.316 124.934V125.508C162.316 127.659 162.007 129.655 161.387 131.496C160.767 133.319 159.855 134.914 158.652 136.281C157.449 137.63 155.964 138.678 154.195 139.426C152.427 140.173 150.385 140.547 148.07 140.547C145.755 140.547 143.704 140.173 141.918 139.426C140.132 138.678 138.637 137.63 137.434 136.281C136.23 134.914 135.319 133.319 134.699 131.496C134.079 129.655 133.77 127.659 133.77 125.508ZM142.984 124.934V125.508C142.984 126.62 143.066 127.659 143.23 128.625C143.395 129.591 143.668 130.439 144.051 131.168C144.434 131.879 144.953 132.435 145.609 132.836C146.266 133.237 147.086 133.438 148.07 133.438C149.036 133.438 149.839 133.237 150.477 132.836C151.133 132.435 151.652 131.879 152.035 131.168C152.418 130.439 152.691 129.591 152.855 128.625C153.02 127.659 153.102 126.62 153.102 125.508V124.934C153.102 123.858 153.02 122.846 152.855 121.898C152.691 120.932 152.418 120.085 152.035 119.355C151.652 118.608 151.133 118.025 150.477 117.605C149.82 117.186 149 116.977 148.016 116.977C147.049 116.977 146.238 117.186 145.582 117.605C144.944 118.025 144.434 118.608 144.051 119.355C143.668 120.085 143.395 120.932 143.23 121.898C143.066 122.846 142.984 123.858 142.984 124.934ZM183.699 132.809V110.414H192.941V140H184.301L183.699 132.809ZM184.574 126.793L186.98 126.738C186.98 128.725 186.743 130.566 186.27 132.262C185.796 133.939 185.094 135.397 184.164 136.637C183.253 137.876 182.122 138.842 180.773 139.535C179.443 140.21 177.902 140.547 176.152 140.547C174.694 140.547 173.354 140.346 172.133 139.945C170.93 139.526 169.891 138.879 169.016 138.004C168.141 137.111 167.457 135.971 166.965 134.586C166.491 133.182 166.254 131.505 166.254 129.555V110.414H175.469V129.609C175.469 130.266 175.551 130.831 175.715 131.305C175.879 131.779 176.116 132.18 176.426 132.508C176.736 132.818 177.118 133.055 177.574 133.219C178.048 133.365 178.586 133.438 179.188 133.438C180.573 133.438 181.658 133.146 182.441 132.562C183.225 131.979 183.772 131.186 184.082 130.184C184.41 129.181 184.574 128.051 184.574 126.793ZM207.324 117.742V140H198.109V110.414H206.723L207.324 117.742ZM216.074 110.195L215.91 118.754C215.546 118.717 215.053 118.672 214.434 118.617C213.814 118.562 213.294 118.535 212.875 118.535C211.799 118.535 210.87 118.663 210.086 118.918C209.32 119.155 208.682 119.52 208.172 120.012C207.68 120.486 207.315 121.087 207.078 121.816C206.859 122.546 206.759 123.393 206.777 124.359L205.109 123.266C205.109 121.279 205.301 119.474 205.684 117.852C206.085 116.211 206.65 114.798 207.379 113.613C208.108 112.41 208.992 111.49 210.031 110.852C211.07 110.195 212.237 109.867 213.531 109.867C213.987 109.867 214.434 109.895 214.871 109.949C215.327 110.004 215.728 110.086 216.074 110.195ZM228.98 110.414V140H219.738V110.414H228.98ZM219.191 102.785C219.191 101.473 219.665 100.397 220.613 99.5586C221.561 98.7201 222.792 98.3008 224.305 98.3008C225.818 98.3008 227.048 98.7201 227.996 99.5586C228.944 100.397 229.418 101.473 229.418 102.785C229.418 104.098 228.944 105.173 227.996 106.012C227.048 106.85 225.818 107.27 224.305 107.27C222.792 107.27 221.561 106.85 220.613 106.012C219.665 105.173 219.191 104.098 219.191 102.785ZM250.172 131.688C250.172 131.177 249.999 130.74 249.652 130.375C249.324 129.992 248.741 129.646 247.902 129.336C247.064 129.008 245.888 128.68 244.375 128.352C242.935 128.042 241.577 127.632 240.301 127.121C239.043 126.611 237.94 125.991 236.992 125.262C236.044 124.533 235.297 123.667 234.75 122.664C234.221 121.661 233.957 120.513 233.957 119.219C233.957 117.961 234.221 116.776 234.75 115.664C235.297 114.534 236.09 113.54 237.129 112.684C238.186 111.809 239.471 111.125 240.984 110.633C242.497 110.122 244.22 109.867 246.152 109.867C248.814 109.867 251.111 110.277 253.043 111.098C254.975 111.9 256.461 113.03 257.5 114.488C258.557 115.928 259.086 117.596 259.086 119.492H249.871C249.871 118.745 249.743 118.107 249.488 117.578C249.251 117.049 248.859 116.648 248.312 116.375C247.766 116.083 247.036 115.938 246.125 115.938C245.487 115.938 244.904 116.056 244.375 116.293C243.865 116.53 243.454 116.858 243.145 117.277C242.835 117.697 242.68 118.189 242.68 118.754C242.68 119.155 242.771 119.52 242.953 119.848C243.154 120.158 243.454 120.449 243.855 120.723C244.257 120.978 244.767 121.215 245.387 121.434C246.007 121.634 246.754 121.816 247.629 121.98C249.616 122.345 251.475 122.865 253.207 123.539C254.939 124.214 256.342 125.171 257.418 126.41C258.512 127.65 259.059 129.318 259.059 131.414C259.059 132.727 258.758 133.939 258.156 135.051C257.555 136.145 256.689 137.111 255.559 137.949C254.428 138.77 253.07 139.408 251.484 139.863C249.898 140.319 248.112 140.547 246.125 140.547C243.299 140.547 240.911 140.046 238.961 139.043C237.01 138.022 235.534 136.746 234.531 135.215C233.547 133.665 233.055 132.098 233.055 130.512H241.641C241.677 131.423 241.896 132.171 242.297 132.754C242.716 133.337 243.272 133.766 243.965 134.039C244.658 134.312 245.46 134.449 246.371 134.449C247.21 134.449 247.902 134.331 248.449 134.094C249.014 133.857 249.443 133.538 249.734 133.137C250.026 132.717 250.172 132.234 250.172 131.688ZM272.402 98V140H263.188V98H272.402ZM271.309 124.195L269.148 124.25C269.148 122.172 269.404 120.258 269.914 118.508C270.424 116.758 271.154 115.236 272.102 113.941C273.049 112.647 274.189 111.645 275.52 110.934C276.85 110.223 278.327 109.867 279.949 109.867C281.408 109.867 282.738 110.077 283.941 110.496C285.163 110.915 286.211 111.59 287.086 112.52C287.979 113.449 288.663 114.661 289.137 116.156C289.629 117.651 289.875 119.474 289.875 121.625V140H280.605V121.57C280.605 120.367 280.432 119.438 280.086 118.781C279.758 118.107 279.284 117.642 278.664 117.387C278.044 117.113 277.288 116.977 276.395 116.977C275.319 116.977 274.444 117.159 273.77 117.523C273.095 117.888 272.576 118.398 272.211 119.055C271.865 119.693 271.628 120.449 271.5 121.324C271.372 122.199 271.309 123.156 271.309 124.195ZM332.012 126.52H341.582C341.454 129.29 340.707 131.733 339.34 133.848C337.973 135.962 336.077 137.612 333.652 138.797C331.246 139.964 328.402 140.547 325.121 140.547C322.46 140.547 320.081 140.1 317.984 139.207C315.906 138.314 314.138 137.029 312.68 135.352C311.24 133.674 310.137 131.642 309.371 129.254C308.624 126.866 308.25 124.177 308.25 121.188V119.027C308.25 116.038 308.642 113.349 309.426 110.961C310.228 108.555 311.358 106.513 312.816 104.836C314.293 103.141 316.061 101.846 318.121 100.953C320.181 100.06 322.469 99.6133 324.984 99.6133C328.448 99.6133 331.374 100.233 333.762 101.473C336.15 102.712 338 104.417 339.312 106.586C340.625 108.737 341.4 111.189 341.637 113.941H332.066C332.03 112.447 331.775 111.198 331.301 110.195C330.827 109.174 330.079 108.409 329.059 107.898C328.038 107.388 326.68 107.133 324.984 107.133C323.799 107.133 322.77 107.352 321.895 107.789C321.02 108.227 320.29 108.919 319.707 109.867C319.124 110.815 318.686 112.046 318.395 113.559C318.121 115.053 317.984 116.858 317.984 118.973V121.188C317.984 123.302 318.112 125.107 318.367 126.602C318.622 128.096 319.033 129.318 319.598 130.266C320.163 131.214 320.892 131.915 321.785 132.371C322.697 132.809 323.809 133.027 325.121 133.027C326.579 133.027 327.81 132.799 328.812 132.344C329.815 131.87 330.59 131.159 331.137 130.211C331.684 129.245 331.975 128.014 332.012 126.52ZM344.535 125.508V124.934C344.535 122.764 344.845 120.768 345.465 118.945C346.085 117.104 346.996 115.509 348.199 114.16C349.402 112.811 350.888 111.763 352.656 111.016C354.424 110.25 356.466 109.867 358.781 109.867C361.115 109.867 363.165 110.25 364.934 111.016C366.72 111.763 368.215 112.811 369.418 114.16C370.621 115.509 371.533 117.104 372.152 118.945C372.772 120.768 373.082 122.764 373.082 124.934V125.508C373.082 127.659 372.772 129.655 372.152 131.496C371.533 133.319 370.621 134.914 369.418 136.281C368.215 137.63 366.729 138.678 364.961 139.426C363.193 140.173 361.151 140.547 358.836 140.547C356.521 140.547 354.47 140.173 352.684 139.426C350.897 138.678 349.402 137.63 348.199 136.281C346.996 134.914 346.085 133.319 345.465 131.496C344.845 129.655 344.535 127.659 344.535 125.508ZM353.75 124.934V125.508C353.75 126.62 353.832 127.659 353.996 128.625C354.16 129.591 354.434 130.439 354.816 131.168C355.199 131.879 355.719 132.435 356.375 132.836C357.031 133.237 357.852 133.438 358.836 133.438C359.802 133.438 360.604 133.237 361.242 132.836C361.898 132.435 362.418 131.879 362.801 131.168C363.184 130.439 363.457 129.591 363.621 128.625C363.785 127.659 363.867 126.62 363.867 125.508V124.934C363.867 123.858 363.785 122.846 363.621 121.898C363.457 120.932 363.184 120.085 362.801 119.355C362.418 118.608 361.898 118.025 361.242 117.605C360.586 117.186 359.766 116.977 358.781 116.977C357.815 116.977 357.004 117.186 356.348 117.605C355.71 118.025 355.199 118.608 354.816 119.355C354.434 120.085 354.16 120.932 353.996 121.898C353.832 122.846 353.75 123.858 353.75 124.934ZM386.234 116.73V140H377.02V110.414H385.66L386.234 116.73ZM385.141 124.195L382.98 124.25C382.98 121.99 383.254 119.975 383.801 118.207C384.348 116.421 385.122 114.908 386.125 113.668C387.128 112.428 388.322 111.49 389.707 110.852C391.111 110.195 392.669 109.867 394.383 109.867C395.75 109.867 396.999 110.068 398.129 110.469C399.277 110.87 400.262 111.517 401.082 112.41C401.921 113.303 402.559 114.488 402.996 115.965C403.452 117.423 403.68 119.228 403.68 121.379V140H394.41V121.352C394.41 120.167 394.246 119.264 393.918 118.645C393.59 118.007 393.116 117.569 392.496 117.332C391.876 117.095 391.12 116.977 390.227 116.977C389.279 116.977 388.477 117.159 387.82 117.523C387.164 117.888 386.635 118.398 386.234 119.055C385.852 119.693 385.569 120.449 385.387 121.324C385.223 122.199 385.141 123.156 385.141 124.195ZM417.844 116.73V140H408.629V110.414H417.27L417.844 116.73ZM416.75 124.195L414.59 124.25C414.59 121.99 414.863 119.975 415.41 118.207C415.957 116.421 416.732 114.908 417.734 113.668C418.737 112.428 419.931 111.49 421.316 110.852C422.72 110.195 424.279 109.867 425.992 109.867C427.359 109.867 428.608 110.068 429.738 110.469C430.887 110.87 431.871 111.517 432.691 112.41C433.53 113.303 434.168 114.488 434.605 115.965C435.061 117.423 435.289 119.228 435.289 121.379V140H426.02V121.352C426.02 120.167 425.855 119.264 425.527 118.645C425.199 118.007 424.725 117.569 424.105 117.332C423.486 117.095 422.729 116.977 421.836 116.977C420.888 116.977 420.086 117.159 419.43 117.523C418.773 117.888 418.245 118.398 417.844 119.055C417.461 119.693 417.178 120.449 416.996 121.324C416.832 122.199 416.75 123.156 416.75 124.195ZM454.73 140.547C452.324 140.547 450.173 140.173 448.277 139.426C446.382 138.66 444.777 137.612 443.465 136.281C442.171 134.951 441.177 133.419 440.484 131.688C439.81 129.956 439.473 128.124 439.473 126.191V125.152C439.473 122.983 439.773 120.978 440.375 119.137C440.977 117.277 441.87 115.655 443.055 114.27C444.24 112.884 445.725 111.809 447.512 111.043C449.298 110.259 451.376 109.867 453.746 109.867C455.842 109.867 457.72 110.204 459.379 110.879C461.038 111.553 462.441 112.52 463.59 113.777C464.757 115.035 465.641 116.557 466.242 118.344C466.862 120.13 467.172 122.135 467.172 124.359V128.105H443V122.336H458.176V121.625C458.194 120.641 458.021 119.802 457.656 119.109C457.31 118.417 456.799 117.888 456.125 117.523C455.451 117.159 454.63 116.977 453.664 116.977C452.661 116.977 451.832 117.195 451.176 117.633C450.538 118.07 450.036 118.672 449.672 119.438C449.326 120.185 449.079 121.051 448.934 122.035C448.788 123.02 448.715 124.059 448.715 125.152V126.191C448.715 127.285 448.861 128.279 449.152 129.172C449.462 130.065 449.9 130.831 450.465 131.469C451.048 132.089 451.741 132.572 452.543 132.918C453.363 133.264 454.293 133.438 455.332 133.438C456.59 133.438 457.829 133.201 459.051 132.727C460.272 132.253 461.32 131.469 462.195 130.375L466.379 135.352C465.777 136.208 464.921 137.038 463.809 137.84C462.715 138.642 461.402 139.298 459.871 139.809C458.34 140.301 456.626 140.547 454.73 140.547ZM483.414 133.438C484.271 133.438 485 133.283 485.602 132.973C486.221 132.645 486.686 132.189 486.996 131.605C487.324 131.004 487.479 130.284 487.461 129.445H496.129C496.147 131.669 495.6 133.62 494.488 135.297C493.395 136.956 491.9 138.25 490.004 139.18C488.126 140.091 486.003 140.547 483.633 140.547C481.318 140.547 479.294 140.173 477.562 139.426C475.831 138.66 474.382 137.603 473.215 136.254C472.066 134.887 471.201 133.292 470.617 131.469C470.052 129.646 469.77 127.668 469.77 125.535V124.906C469.77 122.773 470.052 120.796 470.617 118.973C471.201 117.132 472.066 115.536 473.215 114.188C474.382 112.82 475.822 111.763 477.535 111.016C479.267 110.25 481.281 109.867 483.578 109.867C486.039 109.867 488.208 110.332 490.086 111.262C491.982 112.191 493.467 113.54 494.543 115.309C495.618 117.077 496.147 119.219 496.129 121.734H487.461C487.479 120.841 487.342 120.039 487.051 119.328C486.759 118.617 486.303 118.052 485.684 117.633C485.082 117.195 484.307 116.977 483.359 116.977C482.411 116.977 481.646 117.186 481.062 117.605C480.479 118.025 480.033 118.608 479.723 119.355C479.431 120.085 479.23 120.923 479.121 121.871C479.03 122.819 478.984 123.831 478.984 124.906V125.535C478.984 126.629 479.03 127.659 479.121 128.625C479.23 129.573 479.44 130.411 479.75 131.141C480.06 131.852 480.507 132.417 481.09 132.836C481.673 133.237 482.448 133.438 483.414 133.438ZM515.652 110.414V116.812H497.824V110.414H515.652ZM501.57 103.059H510.785V130.348C510.785 131.132 510.876 131.742 511.059 132.18C511.241 132.599 511.551 132.9 511.988 133.082C512.444 133.246 513.046 133.328 513.793 133.328C514.322 133.328 514.759 133.319 515.105 133.301C515.452 133.264 515.78 133.219 516.09 133.164V139.754C515.306 140.009 514.486 140.201 513.629 140.328C512.772 140.474 511.861 140.547 510.895 140.547C508.926 140.547 507.24 140.237 505.836 139.617C504.451 138.997 503.393 138.022 502.664 136.691C501.935 135.361 501.57 133.629 501.57 131.496V103.059Z" fill="black"/>
<rect x="93" y="178" width="917" height="77" rx="10" fill="#D3D3D3"/>
<rect x="111" y="196" width="91" height="41" rx="3" fill="#424242"/>
<path d="M134.141 210.203H139.177C140.161 210.203 141.017 210.35 141.743 210.643C142.47 210.936 143.029 211.369 143.422 211.943C143.82 212.518 144.02 213.227 144.02 214.07C144.02 214.803 143.905 215.415 143.677 215.907C143.448 216.399 143.129 216.807 142.719 217.129C142.314 217.445 141.843 217.706 141.304 217.911L140.293 218.482H136.065L136.048 216.101H139.177C139.569 216.101 139.895 216.03 140.152 215.89C140.41 215.749 140.604 215.55 140.732 215.292C140.867 215.028 140.935 214.715 140.935 214.352C140.935 213.982 140.867 213.666 140.732 213.402C140.598 213.139 140.398 212.937 140.135 212.796C139.877 212.655 139.558 212.585 139.177 212.585H137.226V223H134.141V210.203ZM141.146 223L138.315 217.34L141.585 217.322L144.45 222.868V223H141.146ZM150.348 223.176C149.574 223.176 148.883 223.056 148.273 222.815C147.664 222.569 147.148 222.232 146.727 221.805C146.311 221.377 145.991 220.885 145.769 220.328C145.552 219.771 145.443 219.183 145.443 218.562V218.228C145.443 217.53 145.54 216.886 145.733 216.294C145.927 215.696 146.214 215.175 146.595 214.729C146.976 214.284 147.453 213.938 148.027 213.692C148.602 213.44 149.27 213.314 150.031 213.314C150.705 213.314 151.309 213.423 151.842 213.64C152.375 213.856 152.826 214.167 153.195 214.571C153.57 214.976 153.854 215.465 154.048 216.039C154.247 216.613 154.347 217.258 154.347 217.973V219.177H146.577V217.322H151.455V217.094C151.461 216.777 151.405 216.508 151.288 216.285C151.177 216.062 151.013 215.893 150.796 215.775C150.579 215.658 150.315 215.6 150.005 215.6C149.683 215.6 149.416 215.67 149.205 215.811C149 215.951 148.839 216.145 148.722 216.391C148.61 216.631 148.531 216.909 148.484 217.226C148.438 217.542 148.414 217.876 148.414 218.228V218.562C148.414 218.913 148.461 219.232 148.555 219.52C148.654 219.807 148.795 220.053 148.977 220.258C149.164 220.457 149.387 220.612 149.645 220.724C149.908 220.835 150.207 220.891 150.541 220.891C150.945 220.891 151.344 220.814 151.736 220.662C152.129 220.51 152.466 220.258 152.747 219.906L154.092 221.506C153.898 221.781 153.623 222.048 153.266 222.306C152.914 222.563 152.492 222.774 152 222.938C151.508 223.097 150.957 223.176 150.348 223.176ZM160.49 220.609V216.689C160.49 216.42 160.452 216.188 160.376 215.995C160.3 215.802 160.18 215.652 160.016 215.547C159.852 215.436 159.632 215.38 159.356 215.38C159.134 215.38 158.943 215.418 158.785 215.494C158.627 215.57 158.507 215.685 158.425 215.837C158.343 215.989 158.302 216.183 158.302 216.417H155.34C155.34 215.978 155.437 215.57 155.63 215.195C155.829 214.814 156.11 214.483 156.474 214.202C156.843 213.921 157.282 213.704 157.792 213.552C158.308 213.394 158.882 213.314 159.515 213.314C160.271 213.314 160.944 213.44 161.536 213.692C162.134 213.944 162.605 214.322 162.951 214.826C163.297 215.324 163.47 215.951 163.47 216.707V220.601C163.47 221.222 163.505 221.693 163.575 222.016C163.646 222.332 163.745 222.61 163.874 222.851V223H160.903C160.763 222.707 160.657 222.35 160.587 221.928C160.522 221.5 160.49 221.061 160.49 220.609ZM160.851 217.19L160.868 218.772H159.559C159.283 218.772 159.049 218.811 158.855 218.887C158.668 218.963 158.516 219.068 158.398 219.203C158.287 219.332 158.205 219.479 158.152 219.643C158.105 219.807 158.082 219.979 158.082 220.161C158.082 220.337 158.123 220.495 158.205 220.636C158.293 220.771 158.41 220.876 158.557 220.952C158.703 221.028 158.867 221.066 159.049 221.066C159.377 221.066 159.655 221.005 159.884 220.882C160.118 220.753 160.297 220.598 160.42 220.416C160.543 220.234 160.604 220.064 160.604 219.906L161.255 221.119C161.138 221.354 161.003 221.591 160.851 221.831C160.704 222.071 160.52 222.294 160.297 222.499C160.08 222.698 159.813 222.862 159.497 222.991C159.181 223.114 158.797 223.176 158.346 223.176C157.76 223.176 157.221 223.056 156.729 222.815C156.242 222.575 155.853 222.241 155.56 221.813C155.267 221.38 155.12 220.882 155.12 220.319C155.12 219.827 155.208 219.388 155.384 219.001C155.565 218.614 155.838 218.286 156.201 218.017C156.564 217.747 157.027 217.542 157.59 217.401C158.152 217.261 158.814 217.19 159.576 217.19H160.851ZM169.13 220.891C169.405 220.891 169.64 220.841 169.833 220.741C170.032 220.636 170.182 220.489 170.281 220.302C170.387 220.108 170.437 219.877 170.431 219.607H173.217C173.223 220.322 173.047 220.949 172.689 221.488C172.338 222.021 171.857 222.438 171.248 222.736C170.645 223.029 169.962 223.176 169.2 223.176C168.456 223.176 167.806 223.056 167.249 222.815C166.692 222.569 166.227 222.229 165.852 221.796C165.482 221.356 165.204 220.844 165.017 220.258C164.835 219.672 164.744 219.036 164.744 218.351V218.148C164.744 217.463 164.835 216.827 165.017 216.241C165.204 215.649 165.482 215.137 165.852 214.703C166.227 214.264 166.689 213.924 167.24 213.684C167.797 213.438 168.444 213.314 169.183 213.314C169.974 213.314 170.671 213.464 171.274 213.763C171.884 214.062 172.361 214.495 172.707 215.063C173.053 215.632 173.223 216.32 173.217 217.129H170.431C170.437 216.842 170.393 216.584 170.299 216.355C170.205 216.127 170.059 215.945 169.859 215.811C169.666 215.67 169.417 215.6 169.112 215.6C168.808 215.6 168.562 215.667 168.374 215.802C168.187 215.937 168.043 216.124 167.943 216.364C167.85 216.599 167.785 216.868 167.75 217.173C167.721 217.478 167.706 217.803 167.706 218.148V218.351C167.706 218.702 167.721 219.033 167.75 219.344C167.785 219.648 167.853 219.918 167.952 220.152C168.052 220.381 168.195 220.562 168.383 220.697C168.57 220.826 168.819 220.891 169.13 220.891ZM179.492 213.49V215.547H173.762V213.49H179.492ZM174.966 211.126H177.928V219.897C177.928 220.149 177.957 220.346 178.016 220.486C178.074 220.621 178.174 220.718 178.314 220.776C178.461 220.829 178.654 220.855 178.895 220.855C179.064 220.855 179.205 220.853 179.316 220.847C179.428 220.835 179.533 220.82 179.633 220.803V222.921C179.381 223.003 179.117 223.064 178.842 223.105C178.566 223.152 178.273 223.176 177.963 223.176C177.33 223.176 176.788 223.076 176.337 222.877C175.892 222.678 175.552 222.364 175.317 221.937C175.083 221.509 174.966 220.952 174.966 220.267V211.126Z" fill="white"/>
<rect x="111" y="196" width="91" height="41" rx="3" stroke="#424242" stroke-width="4"/>
<rect x="222" y="196" width="104" height="41" rx="3" fill="#424242"/>
<path d="M253.812 220.627V223H247.343V220.627H253.812ZM248.441 210.203V223H245.356V210.203H248.441ZM259.911 220.609V216.689C259.911 216.42 259.873 216.188 259.797 215.995C259.721 215.802 259.601 215.652 259.437 215.547C259.272 215.436 259.053 215.38 258.777 215.38C258.555 215.38 258.364 215.418 258.206 215.494C258.048 215.57 257.928 215.685 257.846 215.837C257.764 215.989 257.723 216.183 257.723 216.417H254.761C254.761 215.978 254.857 215.57 255.051 215.195C255.25 214.814 255.531 214.483 255.895 214.202C256.264 213.921 256.703 213.704 257.213 213.552C257.729 213.394 258.303 213.314 258.936 213.314C259.691 213.314 260.365 213.44 260.957 213.692C261.555 213.944 262.026 214.322 262.372 214.826C262.718 215.324 262.891 215.951 262.891 216.707V220.601C262.891 221.222 262.926 221.693 262.996 222.016C263.066 222.332 263.166 222.61 263.295 222.851V223H260.324C260.184 222.707 260.078 222.35 260.008 221.928C259.943 221.5 259.911 221.061 259.911 220.609ZM260.271 217.19L260.289 218.772H258.979C258.704 218.772 258.47 218.811 258.276 218.887C258.089 218.963 257.937 219.068 257.819 219.203C257.708 219.332 257.626 219.479 257.573 219.643C257.526 219.807 257.503 219.979 257.503 220.161C257.503 220.337 257.544 220.495 257.626 220.636C257.714 220.771 257.831 220.876 257.978 220.952C258.124 221.028 258.288 221.066 258.47 221.066C258.798 221.066 259.076 221.005 259.305 220.882C259.539 220.753 259.718 220.598 259.841 220.416C259.964 220.234 260.025 220.064 260.025 219.906L260.676 221.119C260.559 221.354 260.424 221.591 260.271 221.831C260.125 222.071 259.94 222.294 259.718 222.499C259.501 222.698 259.234 222.862 258.918 222.991C258.602 223.114 258.218 223.176 257.767 223.176C257.181 223.176 256.642 223.056 256.149 222.815C255.663 222.575 255.273 222.241 254.98 221.813C254.688 221.38 254.541 220.882 254.541 220.319C254.541 219.827 254.629 219.388 254.805 219.001C254.986 218.614 255.259 218.286 255.622 218.017C255.985 217.747 256.448 217.542 257.011 217.401C257.573 217.261 258.235 217.19 258.997 217.19H260.271ZM267.522 215.846V223H264.561V213.49H267.329L267.522 215.846ZM270.335 213.42L270.282 216.171C270.165 216.159 270.007 216.145 269.808 216.127C269.608 216.109 269.441 216.101 269.307 216.101C268.961 216.101 268.662 216.142 268.41 216.224C268.164 216.3 267.959 216.417 267.795 216.575C267.637 216.728 267.52 216.921 267.443 217.155C267.373 217.39 267.341 217.662 267.347 217.973L266.811 217.621C266.811 216.982 266.872 216.402 266.995 215.881C267.124 215.354 267.306 214.899 267.54 214.519C267.774 214.132 268.059 213.836 268.393 213.631C268.727 213.42 269.102 213.314 269.518 213.314C269.664 213.314 269.808 213.323 269.948 213.341C270.095 213.358 270.224 213.385 270.335 213.42ZM276.03 220.609V216.689C276.03 216.42 275.992 216.188 275.916 215.995C275.84 215.802 275.72 215.652 275.556 215.547C275.392 215.436 275.172 215.38 274.896 215.38C274.674 215.38 274.483 215.418 274.325 215.494C274.167 215.57 274.047 215.685 273.965 215.837C273.883 215.989 273.842 216.183 273.842 216.417H270.88C270.88 215.978 270.977 215.57 271.17 215.195C271.369 214.814 271.65 214.483 272.014 214.202C272.383 213.921 272.822 213.704 273.332 213.552C273.848 213.394 274.422 213.314 275.055 213.314C275.811 213.314 276.484 213.44 277.076 213.692C277.674 213.944 278.146 214.322 278.491 214.826C278.837 215.324 279.01 215.951 279.01 216.707V220.601C279.01 221.222 279.045 221.693 279.115 222.016C279.186 222.332 279.285 222.61 279.414 222.851V223H276.443C276.303 222.707 276.197 222.35 276.127 221.928C276.062 221.5 276.03 221.061 276.03 220.609ZM276.391 217.19L276.408 218.772H275.099C274.823 218.772 274.589 218.811 274.396 218.887C274.208 218.963 274.056 219.068 273.938 219.203C273.827 219.332 273.745 219.479 273.692 219.643C273.646 219.807 273.622 219.979 273.622 220.161C273.622 220.337 273.663 220.495 273.745 220.636C273.833 220.771 273.95 220.876 274.097 220.952C274.243 221.028 274.407 221.066 274.589 221.066C274.917 221.066 275.195 221.005 275.424 220.882C275.658 220.753 275.837 220.598 275.96 220.416C276.083 220.234 276.145 220.064 276.145 219.906L276.795 221.119C276.678 221.354 276.543 221.591 276.391 221.831C276.244 222.071 276.06 222.294 275.837 222.499C275.62 222.698 275.354 222.862 275.037 222.991C274.721 223.114 274.337 223.176 273.886 223.176C273.3 223.176 272.761 223.056 272.269 222.815C271.782 222.575 271.393 222.241 271.1 221.813C270.807 221.38 270.66 220.882 270.66 220.319C270.66 219.827 270.748 219.388 270.924 219.001C271.105 218.614 271.378 218.286 271.741 218.017C272.104 217.747 272.567 217.542 273.13 217.401C273.692 217.261 274.354 217.19 275.116 217.19H276.391ZM283.94 220.97L285.812 213.49H288.933L285.821 223H283.976L283.94 220.97ZM282.833 213.49L284.679 220.97L284.661 223H282.807L279.704 213.49H282.833ZM294.294 223.176C293.521 223.176 292.829 223.056 292.22 222.815C291.61 222.569 291.095 222.232 290.673 221.805C290.257 221.377 289.938 220.885 289.715 220.328C289.498 219.771 289.39 219.183 289.39 218.562V218.228C289.39 217.53 289.486 216.886 289.68 216.294C289.873 215.696 290.16 215.175 290.541 214.729C290.922 214.284 291.399 213.938 291.974 213.692C292.548 213.44 293.216 213.314 293.978 213.314C294.651 213.314 295.255 213.423 295.788 213.64C296.321 213.856 296.772 214.167 297.142 214.571C297.517 214.976 297.801 215.465 297.994 216.039C298.193 216.613 298.293 217.258 298.293 217.973V219.177H290.523V217.322H295.401V217.094C295.407 216.777 295.352 216.508 295.234 216.285C295.123 216.062 294.959 215.893 294.742 215.775C294.525 215.658 294.262 215.6 293.951 215.6C293.629 215.6 293.362 215.67 293.151 215.811C292.946 215.951 292.785 216.145 292.668 216.391C292.557 216.631 292.478 216.909 292.431 217.226C292.384 217.542 292.36 217.876 292.36 218.228V218.562C292.36 218.913 292.407 219.232 292.501 219.52C292.601 219.807 292.741 220.053 292.923 220.258C293.11 220.457 293.333 220.612 293.591 220.724C293.854 220.835 294.153 220.891 294.487 220.891C294.892 220.891 295.29 220.814 295.683 220.662C296.075 220.51 296.412 220.258 296.693 219.906L298.038 221.506C297.845 221.781 297.569 222.048 297.212 222.306C296.86 222.563 296.438 222.774 295.946 222.938C295.454 223.097 294.903 223.176 294.294 223.176ZM302.626 209.5V223H299.655V209.5H302.626Z" fill="white"/>
<rect x="222" y="196" width="104" height="41" rx="3" stroke="#424242" stroke-width="4"/>
<rect x="346" y="196" width="109" height="41" rx="3" fill="#424242"/>
<path d="M380.118 210.203V223H377.042L372.516 215.037V223H369.431V210.203H372.516L377.042 218.166V210.203H380.118ZM381.56 218.342V218.157C381.56 217.46 381.659 216.818 381.858 216.232C382.058 215.641 382.351 215.128 382.737 214.694C383.124 214.261 383.602 213.924 384.17 213.684C384.738 213.438 385.395 213.314 386.139 213.314C386.889 213.314 387.548 213.438 388.116 213.684C388.69 213.924 389.171 214.261 389.558 214.694C389.944 215.128 390.237 215.641 390.437 216.232C390.636 216.818 390.735 217.46 390.735 218.157V218.342C390.735 219.033 390.636 219.675 390.437 220.267C390.237 220.853 389.944 221.365 389.558 221.805C389.171 222.238 388.693 222.575 388.125 222.815C387.557 223.056 386.9 223.176 386.156 223.176C385.412 223.176 384.753 223.056 384.179 222.815C383.604 222.575 383.124 222.238 382.737 221.805C382.351 221.365 382.058 220.853 381.858 220.267C381.659 219.675 381.56 219.033 381.56 218.342ZM384.521 218.157V218.342C384.521 218.699 384.548 219.033 384.601 219.344C384.653 219.654 384.741 219.927 384.864 220.161C384.987 220.39 385.154 220.568 385.365 220.697C385.576 220.826 385.84 220.891 386.156 220.891C386.467 220.891 386.725 220.826 386.93 220.697C387.141 220.568 387.308 220.39 387.431 220.161C387.554 219.927 387.642 219.654 387.694 219.344C387.747 219.033 387.773 218.699 387.773 218.342V218.157C387.773 217.812 387.747 217.486 387.694 217.182C387.642 216.871 387.554 216.599 387.431 216.364C387.308 216.124 387.141 215.937 386.93 215.802C386.719 215.667 386.455 215.6 386.139 215.6C385.828 215.6 385.567 215.667 385.356 215.802C385.151 215.937 384.987 216.124 384.864 216.364C384.741 216.599 384.653 216.871 384.601 217.182C384.548 217.486 384.521 217.812 384.521 218.157ZM397.521 220.82V209.5H400.5V223H397.828L397.521 220.82ZM391.685 218.359V218.175C391.685 217.454 391.764 216.798 391.922 216.206C392.08 215.608 392.314 215.096 392.625 214.668C392.936 214.234 393.322 213.9 393.785 213.666C394.248 213.432 394.781 213.314 395.385 213.314C395.924 213.314 396.396 213.44 396.8 213.692C397.204 213.938 397.55 214.284 397.837 214.729C398.124 215.175 398.358 215.696 398.54 216.294C398.722 216.886 398.859 217.524 398.953 218.21V218.43C398.859 219.074 398.722 219.684 398.54 220.258C398.358 220.826 398.124 221.33 397.837 221.77C397.55 222.209 397.201 222.555 396.791 222.807C396.387 223.053 395.912 223.176 395.367 223.176C394.764 223.176 394.23 223.056 393.768 222.815C393.311 222.575 392.927 222.238 392.616 221.805C392.312 221.371 392.08 220.861 391.922 220.275C391.764 219.689 391.685 219.051 391.685 218.359ZM394.646 218.175V218.359C394.646 218.717 394.67 219.048 394.717 219.353C394.764 219.657 394.843 219.927 394.954 220.161C395.071 220.39 395.224 220.568 395.411 220.697C395.604 220.826 395.842 220.891 396.123 220.891C396.504 220.891 396.817 220.8 397.063 220.618C397.315 220.437 397.5 220.179 397.617 219.845C397.74 219.511 397.793 219.118 397.775 218.667V217.973C397.787 217.586 397.761 217.246 397.696 216.953C397.632 216.654 397.529 216.405 397.389 216.206C397.254 216.007 397.081 215.857 396.87 215.758C396.665 215.652 396.422 215.6 396.141 215.6C395.865 215.6 395.631 215.664 395.438 215.793C395.25 215.922 395.098 216.104 394.98 216.338C394.863 216.566 394.778 216.839 394.726 217.155C394.673 217.466 394.646 217.806 394.646 218.175ZM406.784 223.176C406.011 223.176 405.319 223.056 404.71 222.815C404.101 222.569 403.585 222.232 403.163 221.805C402.747 221.377 402.428 220.885 402.205 220.328C401.988 219.771 401.88 219.183 401.88 218.562V218.228C401.88 217.53 401.977 216.886 402.17 216.294C402.363 215.696 402.65 215.175 403.031 214.729C403.412 214.284 403.89 213.938 404.464 213.692C405.038 213.44 405.706 213.314 406.468 213.314C407.142 213.314 407.745 213.423 408.278 213.64C408.812 213.856 409.263 214.167 409.632 214.571C410.007 214.976 410.291 215.465 410.484 216.039C410.684 216.613 410.783 217.258 410.783 217.973V219.177H403.014V217.322H407.892V217.094C407.897 216.777 407.842 216.508 407.725 216.285C407.613 216.062 407.449 215.893 407.232 215.775C407.016 215.658 406.752 215.6 406.441 215.6C406.119 215.6 405.853 215.67 405.642 215.811C405.437 215.951 405.275 216.145 405.158 216.391C405.047 216.631 404.968 216.909 404.921 217.226C404.874 217.542 404.851 217.876 404.851 218.228V218.562C404.851 218.913 404.897 219.232 404.991 219.52C405.091 219.807 405.231 220.053 405.413 220.258C405.601 220.457 405.823 220.612 406.081 220.724C406.345 220.835 406.644 220.891 406.978 220.891C407.382 220.891 407.78 220.814 408.173 220.662C408.565 220.51 408.902 220.258 409.184 219.906L410.528 221.506C410.335 221.781 410.06 222.048 409.702 222.306C409.351 222.563 408.929 222.774 408.437 222.938C407.944 223.097 407.394 223.176 406.784 223.176ZM417.217 218.983V210.203H420.293V218.983C420.293 219.839 420.097 220.58 419.704 221.207C419.317 221.834 418.79 222.32 418.122 222.666C417.46 223.006 416.716 223.176 415.89 223.176C415.034 223.176 414.272 223.032 413.604 222.745C412.942 222.458 412.421 222.016 412.04 221.418C411.665 220.82 411.478 220.059 411.478 219.133H414.571C414.571 219.566 414.621 219.906 414.721 220.152C414.82 220.393 414.967 220.562 415.16 220.662C415.359 220.756 415.603 220.803 415.89 220.803C416.171 220.803 416.408 220.732 416.602 220.592C416.801 220.445 416.953 220.237 417.059 219.968C417.164 219.692 417.217 219.364 417.217 218.983ZM428.845 219.599C428.845 219.399 428.815 219.221 428.757 219.062C428.698 218.898 428.59 218.746 428.432 218.605C428.273 218.465 428.045 218.324 427.746 218.184C427.453 218.037 427.066 217.885 426.586 217.727C426.023 217.539 425.481 217.328 424.96 217.094C424.438 216.854 423.973 216.575 423.562 216.259C423.152 215.937 422.827 215.562 422.587 215.134C422.347 214.7 422.227 214.196 422.227 213.622C422.227 213.071 422.35 212.576 422.596 212.137C422.842 211.691 423.185 211.313 423.624 211.003C424.069 210.687 424.591 210.446 425.188 210.282C425.786 210.112 426.439 210.027 427.148 210.027C428.086 210.027 428.912 210.191 429.627 210.52C430.348 210.842 430.91 211.302 431.314 211.899C431.725 212.491 431.93 213.191 431.93 214H428.862C428.862 213.678 428.795 213.394 428.66 213.147C428.531 212.901 428.335 212.708 428.071 212.567C427.808 212.427 427.477 212.356 427.078 212.356C426.691 212.356 426.366 212.415 426.103 212.532C425.839 212.649 425.64 212.808 425.505 213.007C425.37 213.2 425.303 213.414 425.303 213.648C425.303 213.842 425.355 214.018 425.461 214.176C425.572 214.328 425.728 214.472 425.927 214.606C426.132 214.741 426.378 214.87 426.665 214.993C426.958 215.116 427.286 215.236 427.649 215.354C428.329 215.57 428.933 215.813 429.46 216.083C429.993 216.347 430.441 216.648 430.805 216.988C431.174 217.322 431.452 217.703 431.64 218.131C431.833 218.559 431.93 219.042 431.93 219.581C431.93 220.155 431.818 220.665 431.596 221.11C431.373 221.556 431.054 221.934 430.638 222.244C430.222 222.549 429.724 222.78 429.144 222.938C428.563 223.097 427.916 223.176 427.201 223.176C426.545 223.176 425.897 223.094 425.259 222.93C424.626 222.76 424.052 222.502 423.536 222.156C423.021 221.805 422.607 221.356 422.297 220.812C421.992 220.261 421.84 219.607 421.84 218.852H424.934C424.934 219.227 424.983 219.543 425.083 219.801C425.183 220.059 425.329 220.267 425.522 220.425C425.716 220.577 425.953 220.688 426.234 220.759C426.516 220.823 426.838 220.855 427.201 220.855C427.594 220.855 427.91 220.8 428.15 220.688C428.391 220.571 428.566 220.419 428.678 220.231C428.789 220.038 428.845 219.827 428.845 219.599Z" fill="white"/>
<rect x="346" y="196" width="109" height="41" rx="3" stroke="#424242" stroke-width="4"/>
<rect x="475" y="196" width="105" height="41" rx="3" fill="#424242"/>
<path d="M509.175 216.347V216.865C509.175 217.844 509.037 218.723 508.762 219.502C508.492 220.275 508.108 220.938 507.61 221.488C507.112 222.033 506.523 222.452 505.844 222.745C505.164 223.032 504.414 223.176 503.594 223.176C502.768 223.176 502.012 223.032 501.326 222.745C500.646 222.452 500.055 222.033 499.551 221.488C499.053 220.938 498.666 220.275 498.391 219.502C498.121 218.723 497.986 217.844 497.986 216.865V216.347C497.986 215.368 498.121 214.489 498.391 213.71C498.666 212.931 499.05 212.269 499.542 211.724C500.04 211.173 500.629 210.754 501.309 210.467C501.994 210.174 502.75 210.027 503.576 210.027C504.396 210.027 505.146 210.174 505.826 210.467C506.512 210.754 507.104 211.173 507.602 211.724C508.1 212.269 508.486 212.931 508.762 213.71C509.037 214.489 509.175 215.368 509.175 216.347ZM506.046 216.865V216.329C506.046 215.696 505.99 215.14 505.879 214.659C505.773 214.173 505.615 213.766 505.404 213.438C505.193 213.109 504.933 212.863 504.622 212.699C504.317 212.529 503.969 212.444 503.576 212.444C503.166 212.444 502.809 212.529 502.504 212.699C502.199 212.863 501.944 213.109 501.739 213.438C501.534 213.766 501.379 214.173 501.273 214.659C501.174 215.14 501.124 215.696 501.124 216.329V216.865C501.124 217.492 501.174 218.049 501.273 218.535C501.379 219.016 501.534 219.423 501.739 219.757C501.95 220.091 502.208 220.343 502.513 220.513C502.823 220.683 503.184 220.768 503.594 220.768C503.986 220.768 504.335 220.683 504.64 220.513C504.944 220.343 505.199 220.091 505.404 219.757C505.615 219.423 505.773 219.016 505.879 218.535C505.99 218.049 506.046 217.492 506.046 216.865ZM513.622 215.318V226.656H510.66V213.49H513.42L513.622 215.318ZM519.458 218.131V218.315C519.458 219.007 519.379 219.648 519.221 220.24C519.062 220.832 518.828 221.348 518.518 221.787C518.207 222.227 517.82 222.569 517.357 222.815C516.9 223.056 516.37 223.176 515.767 223.176C515.198 223.176 514.709 223.05 514.299 222.798C513.889 222.546 513.546 222.197 513.271 221.752C512.995 221.307 512.772 220.797 512.603 220.223C512.433 219.648 512.298 219.042 512.198 218.403V218.166C512.298 217.48 512.433 216.845 512.603 216.259C512.772 215.667 512.995 215.151 513.271 214.712C513.546 214.272 513.886 213.93 514.29 213.684C514.7 213.438 515.189 213.314 515.758 213.314C516.361 213.314 516.892 213.429 517.349 213.657C517.812 213.886 518.198 214.214 518.509 214.642C518.825 215.063 519.062 215.57 519.221 216.162C519.379 216.754 519.458 217.41 519.458 218.131ZM516.496 218.315V218.131C516.496 217.762 516.47 217.425 516.417 217.12C516.364 216.81 516.279 216.54 516.162 216.312C516.051 216.083 515.901 215.907 515.714 215.784C515.526 215.661 515.295 215.6 515.02 215.6C514.703 215.6 514.437 215.649 514.22 215.749C514.009 215.843 513.839 215.989 513.71 216.188C513.587 216.382 513.499 216.625 513.446 216.918C513.399 217.205 513.379 217.542 513.385 217.929V218.649C513.373 219.095 513.417 219.487 513.517 219.827C513.616 220.161 513.789 220.422 514.035 220.609C514.281 220.797 514.615 220.891 515.037 220.891C515.318 220.891 515.553 220.826 515.74 220.697C515.928 220.562 516.077 220.378 516.188 220.144C516.3 219.903 516.379 219.628 516.426 219.317C516.473 219.007 516.496 218.673 516.496 218.315ZM525.382 223.176C524.608 223.176 523.917 223.056 523.308 222.815C522.698 222.569 522.183 222.232 521.761 221.805C521.345 221.377 521.025 220.885 520.803 220.328C520.586 219.771 520.478 219.183 520.478 218.562V218.228C520.478 217.53 520.574 216.886 520.768 216.294C520.961 215.696 521.248 215.175 521.629 214.729C522.01 214.284 522.487 213.938 523.062 213.692C523.636 213.44 524.304 213.314 525.065 213.314C525.739 213.314 526.343 213.423 526.876 213.64C527.409 213.856 527.86 214.167 528.229 214.571C528.604 214.976 528.889 215.465 529.082 216.039C529.281 216.613 529.381 217.258 529.381 217.973V219.177H521.611V217.322H526.489V217.094C526.495 216.777 526.439 216.508 526.322 216.285C526.211 216.062 526.047 215.893 525.83 215.775C525.613 215.658 525.35 215.6 525.039 215.6C524.717 215.6 524.45 215.67 524.239 215.811C524.034 215.951 523.873 216.145 523.756 216.391C523.645 216.631 523.565 216.909 523.519 217.226C523.472 217.542 523.448 217.876 523.448 218.228V218.562C523.448 218.913 523.495 219.232 523.589 219.52C523.688 219.807 523.829 220.053 524.011 220.258C524.198 220.457 524.421 220.612 524.679 220.724C524.942 220.835 525.241 220.891 525.575 220.891C525.979 220.891 526.378 220.814 526.771 220.662C527.163 220.51 527.5 220.258 527.781 219.906L529.126 221.506C528.933 221.781 528.657 222.048 528.3 222.306C527.948 222.563 527.526 222.774 527.034 222.938C526.542 223.097 525.991 223.176 525.382 223.176ZM533.494 215.521V223H530.532V213.49H533.31L533.494 215.521ZM533.143 217.92L532.448 217.938C532.448 217.211 532.536 216.563 532.712 215.995C532.888 215.421 533.137 214.935 533.459 214.536C533.781 214.138 534.165 213.836 534.61 213.631C535.062 213.42 535.562 213.314 536.113 213.314C536.553 213.314 536.954 213.379 537.317 213.508C537.687 213.637 538.003 213.845 538.267 214.132C538.536 214.419 538.741 214.8 538.882 215.274C539.028 215.743 539.102 216.323 539.102 217.015V223H536.122V217.006C536.122 216.625 536.069 216.335 535.964 216.136C535.858 215.931 535.706 215.79 535.507 215.714C535.308 215.638 535.064 215.6 534.777 215.6C534.473 215.6 534.215 215.658 534.004 215.775C533.793 215.893 533.623 216.057 533.494 216.268C533.371 216.473 533.28 216.716 533.222 216.997C533.169 217.278 533.143 217.586 533.143 217.92ZM546.309 212.893L543.188 223H539.875L544.577 210.203H546.678L546.309 212.893ZM548.893 223L545.764 212.893L545.359 210.203H547.486L552.215 223H548.893ZM548.77 218.228V220.609H542.204V218.228H548.77ZM556.434 210.203V223H553.357V210.203H556.434Z" fill="white"/>
<rect x="475" y="196" width="105" height="41" rx="3" stroke="#424242" stroke-width="4"/>
<rect x="600" y="196" width="114" height="41" rx="3" fill="#424242"/>
<path d="M628.365 218.658H625.184V216.276H628.365C628.799 216.276 629.15 216.203 629.42 216.057C629.689 215.91 629.886 215.708 630.009 215.45C630.138 215.187 630.202 214.891 630.202 214.562C630.202 214.211 630.138 213.886 630.009 213.587C629.886 213.288 629.689 213.048 629.42 212.866C629.15 212.679 628.799 212.585 628.365 212.585H626.344V223H623.259V210.203H628.365C629.391 210.203 630.272 210.391 631.011 210.766C631.755 211.141 632.326 211.656 632.725 212.312C633.123 212.963 633.322 213.707 633.322 214.545C633.322 215.371 633.123 216.092 632.725 216.707C632.326 217.322 631.755 217.803 631.011 218.148C630.272 218.488 629.391 218.658 628.365 218.658ZM641.927 210.203H645.012V218.562C645.012 219.558 644.804 220.401 644.388 221.093C643.972 221.778 643.389 222.297 642.639 222.648C641.889 223 641.007 223.176 639.993 223.176C638.991 223.176 638.109 223 637.348 222.648C636.592 222.297 636 221.778 635.572 221.093C635.15 220.401 634.939 219.558 634.939 218.562V210.203H638.033V218.562C638.033 219.089 638.109 219.52 638.262 219.854C638.414 220.182 638.637 220.422 638.93 220.574C639.223 220.727 639.577 220.803 639.993 220.803C640.415 220.803 640.77 220.727 641.057 220.574C641.344 220.422 641.561 220.182 641.707 219.854C641.854 219.52 641.927 219.089 641.927 218.562V210.203ZM653.546 219.599C653.546 219.399 653.517 219.221 653.458 219.062C653.399 218.898 653.291 218.746 653.133 218.605C652.975 218.465 652.746 218.324 652.447 218.184C652.154 218.037 651.768 217.885 651.287 217.727C650.725 217.539 650.183 217.328 649.661 217.094C649.14 216.854 648.674 216.575 648.264 216.259C647.854 215.937 647.528 215.562 647.288 215.134C647.048 214.7 646.928 214.196 646.928 213.622C646.928 213.071 647.051 212.576 647.297 212.137C647.543 211.691 647.886 211.313 648.325 211.003C648.771 210.687 649.292 210.446 649.89 210.282C650.487 210.112 651.141 210.027 651.85 210.027C652.787 210.027 653.613 210.191 654.328 210.52C655.049 210.842 655.611 211.302 656.016 211.899C656.426 212.491 656.631 213.191 656.631 214H653.563C653.563 213.678 653.496 213.394 653.361 213.147C653.232 212.901 653.036 212.708 652.772 212.567C652.509 212.427 652.178 212.356 651.779 212.356C651.393 212.356 651.067 212.415 650.804 212.532C650.54 212.649 650.341 212.808 650.206 213.007C650.071 213.2 650.004 213.414 650.004 213.648C650.004 213.842 650.057 214.018 650.162 214.176C650.273 214.328 650.429 214.472 650.628 214.606C650.833 214.741 651.079 214.87 651.366 214.993C651.659 215.116 651.987 215.236 652.351 215.354C653.03 215.57 653.634 215.813 654.161 216.083C654.694 216.347 655.143 216.648 655.506 216.988C655.875 217.322 656.153 217.703 656.341 218.131C656.534 218.559 656.631 219.042 656.631 219.581C656.631 220.155 656.52 220.665 656.297 221.11C656.074 221.556 655.755 221.934 655.339 222.244C654.923 222.549 654.425 222.78 653.845 222.938C653.265 223.097 652.617 223.176 651.902 223.176C651.246 223.176 650.599 223.094 649.96 222.93C649.327 222.76 648.753 222.502 648.237 222.156C647.722 221.805 647.309 221.356 646.998 220.812C646.693 220.261 646.541 219.607 646.541 218.852H649.635C649.635 219.227 649.685 219.543 649.784 219.801C649.884 220.059 650.03 220.267 650.224 220.425C650.417 220.577 650.654 220.688 650.936 220.759C651.217 220.823 651.539 220.855 651.902 220.855C652.295 220.855 652.611 220.8 652.852 220.688C653.092 220.571 653.268 220.419 653.379 220.231C653.49 220.038 653.546 219.827 653.546 219.599ZM666.844 215.283V217.656H660.278V215.283H666.844ZM661.307 210.203V223H658.222V210.203H661.307ZM668.918 210.203V223H665.842V210.203H668.918ZM679.685 220.627V223H672.864V220.627H679.685ZM673.963 210.203V223H670.878V210.203H673.963ZM678.806 215.283V217.577H672.864V215.283H678.806ZM679.711 210.203V212.585H672.864V210.203H679.711ZM680.95 210.203H685.986C686.971 210.203 687.826 210.35 688.553 210.643C689.279 210.936 689.839 211.369 690.231 211.943C690.63 212.518 690.829 213.227 690.829 214.07C690.829 214.803 690.715 215.415 690.486 215.907C690.258 216.399 689.938 216.807 689.528 217.129C689.124 217.445 688.652 217.706 688.113 217.911L687.103 218.482H682.875L682.857 216.101H685.986C686.379 216.101 686.704 216.03 686.962 215.89C687.22 215.749 687.413 215.55 687.542 215.292C687.677 215.028 687.744 214.715 687.744 214.352C687.744 213.982 687.677 213.666 687.542 213.402C687.407 213.139 687.208 212.937 686.944 212.796C686.687 212.655 686.367 212.585 685.986 212.585H684.035V223H680.95V210.203ZM687.955 223L685.125 217.34L688.395 217.322L691.26 222.868V223H687.955Z" fill="white"/>
<rect x="600" y="196" width="114" height="41" rx="3" stroke="#424242" stroke-width="4"/>
<rect x="734" y="196" width="114" height="41" rx="3" fill="#424242"/>
<path d="M760.062 210.203V223H756.978V210.203H760.062ZM765.037 215.529V217.902H759.184V215.529H765.037ZM765.538 210.203V212.585H759.184V210.203H765.538ZM769.81 213.49V223H766.839V213.49H769.81ZM766.663 211.038C766.663 210.616 766.815 210.271 767.12 210.001C767.425 209.731 767.82 209.597 768.307 209.597C768.793 209.597 769.188 209.731 769.493 210.001C769.798 210.271 769.95 210.616 769.95 211.038C769.95 211.46 769.798 211.806 769.493 212.075C769.188 212.345 768.793 212.479 768.307 212.479C767.82 212.479 767.425 212.345 767.12 212.075C766.815 211.806 766.663 211.46 766.663 211.038ZM774.626 215.846V223H771.664V213.49H774.433L774.626 215.846ZM777.438 213.42L777.386 216.171C777.269 216.159 777.11 216.145 776.911 216.127C776.712 216.109 776.545 216.101 776.41 216.101C776.064 216.101 775.766 216.142 775.514 216.224C775.268 216.3 775.062 216.417 774.898 216.575C774.74 216.728 774.623 216.921 774.547 217.155C774.477 217.39 774.444 217.662 774.45 217.973L773.914 217.621C773.914 216.982 773.976 216.402 774.099 215.881C774.228 215.354 774.409 214.899 774.644 214.519C774.878 214.132 775.162 213.836 775.496 213.631C775.83 213.42 776.205 213.314 776.621 213.314C776.768 213.314 776.911 213.323 777.052 213.341C777.198 213.358 777.327 213.385 777.438 213.42ZM782.888 223.176C782.114 223.176 781.423 223.056 780.813 222.815C780.204 222.569 779.688 222.232 779.267 221.805C778.851 221.377 778.531 220.885 778.309 220.328C778.092 219.771 777.983 219.183 777.983 218.562V218.228C777.983 217.53 778.08 216.886 778.273 216.294C778.467 215.696 778.754 215.175 779.135 214.729C779.516 214.284 779.993 213.938 780.567 213.692C781.142 213.44 781.81 213.314 782.571 213.314C783.245 213.314 783.849 213.423 784.382 213.64C784.915 213.856 785.366 214.167 785.735 214.571C786.11 214.976 786.395 215.465 786.588 216.039C786.787 216.613 786.887 217.258 786.887 217.973V219.177H779.117V217.322H783.995V217.094C784.001 216.777 783.945 216.508 783.828 216.285C783.717 216.062 783.553 215.893 783.336 215.775C783.119 215.658 782.855 215.6 782.545 215.6C782.223 215.6 781.956 215.67 781.745 215.811C781.54 215.951 781.379 216.145 781.262 216.391C781.15 216.631 781.071 216.909 781.024 217.226C780.978 217.542 780.954 217.876 780.954 218.228V218.562C780.954 218.913 781.001 219.232 781.095 219.52C781.194 219.807 781.335 220.053 781.517 220.258C781.704 220.457 781.927 220.612 782.185 220.724C782.448 220.835 782.747 220.891 783.081 220.891C783.485 220.891 783.884 220.814 784.276 220.662C784.669 220.51 785.006 220.258 785.287 219.906L786.632 221.506C786.438 221.781 786.163 222.048 785.806 222.306C785.454 222.563 785.032 222.774 784.54 222.938C784.048 223.097 783.497 223.176 782.888 223.176ZM788.117 209.5H791.079V220.662L790.771 223H788.117V209.5ZM796.915 218.14V218.324C796.915 219.045 796.842 219.701 796.695 220.293C796.549 220.885 796.323 221.397 796.019 221.831C795.714 222.259 795.33 222.59 794.867 222.824C794.404 223.059 793.856 223.176 793.224 223.176C792.649 223.176 792.157 223.053 791.747 222.807C791.337 222.555 790.994 222.209 790.719 221.77C790.443 221.324 790.221 220.812 790.051 220.231C789.881 219.646 789.746 219.019 789.646 218.351V218.131C789.746 217.469 789.881 216.848 790.051 216.268C790.221 215.682 790.443 215.169 790.719 214.729C790.994 214.284 791.334 213.938 791.738 213.692C792.148 213.44 792.638 213.314 793.206 213.314C793.845 213.314 794.396 213.435 794.858 213.675C795.327 213.915 795.714 214.252 796.019 214.686C796.323 215.119 796.549 215.629 796.695 216.215C796.842 216.801 796.915 217.442 796.915 218.14ZM793.953 218.324V218.14C793.953 217.794 793.933 217.469 793.892 217.164C793.851 216.859 793.777 216.59 793.672 216.355C793.566 216.121 793.417 215.937 793.224 215.802C793.03 215.667 792.778 215.6 792.468 215.6C792.151 215.6 791.885 215.652 791.668 215.758C791.457 215.863 791.287 216.016 791.158 216.215C791.035 216.408 790.947 216.648 790.895 216.936C790.842 217.217 790.818 217.536 790.824 217.894V218.588C790.812 219.074 790.856 219.49 790.956 219.836C791.056 220.182 791.229 220.445 791.475 220.627C791.721 220.809 792.058 220.899 792.485 220.899C792.802 220.899 793.057 220.838 793.25 220.715C793.449 220.592 793.599 220.416 793.698 220.188C793.798 219.959 793.865 219.687 793.9 219.37C793.936 219.054 793.953 218.705 793.953 218.324ZM803.173 220.609V216.689C803.173 216.42 803.135 216.188 803.059 215.995C802.982 215.802 802.862 215.652 802.698 215.547C802.534 215.436 802.314 215.38 802.039 215.38C801.816 215.38 801.626 215.418 801.468 215.494C801.31 215.57 801.189 215.685 801.107 215.837C801.025 215.989 800.984 216.183 800.984 216.417H798.022C798.022 215.978 798.119 215.57 798.312 215.195C798.512 214.814 798.793 214.483 799.156 214.202C799.525 213.921 799.965 213.704 800.475 213.552C800.99 213.394 801.564 213.314 802.197 213.314C802.953 213.314 803.627 213.44 804.219 213.692C804.816 213.944 805.288 214.322 805.634 214.826C805.979 215.324 806.152 215.951 806.152 216.707V220.601C806.152 221.222 806.188 221.693 806.258 222.016C806.328 222.332 806.428 222.61 806.557 222.851V223H803.586C803.445 222.707 803.34 222.35 803.27 221.928C803.205 221.5 803.173 221.061 803.173 220.609ZM803.533 217.19L803.551 218.772H802.241C801.966 218.772 801.731 218.811 801.538 218.887C801.351 218.963 801.198 219.068 801.081 219.203C800.97 219.332 800.888 219.479 800.835 219.643C800.788 219.807 800.765 219.979 800.765 220.161C800.765 220.337 800.806 220.495 800.888 220.636C800.976 220.771 801.093 220.876 801.239 220.952C801.386 221.028 801.55 221.066 801.731 221.066C802.06 221.066 802.338 221.005 802.566 220.882C802.801 220.753 802.979 220.598 803.103 220.416C803.226 220.234 803.287 220.064 803.287 219.906L803.938 221.119C803.82 221.354 803.686 221.591 803.533 221.831C803.387 222.071 803.202 222.294 802.979 222.499C802.763 222.698 802.496 222.862 802.18 222.991C801.863 223.114 801.479 223.176 801.028 223.176C800.442 223.176 799.903 223.056 799.411 222.815C798.925 222.575 798.535 222.241 798.242 221.813C797.949 221.38 797.803 220.882 797.803 220.319C797.803 219.827 797.891 219.388 798.066 219.001C798.248 218.614 798.521 218.286 798.884 218.017C799.247 217.747 799.71 217.542 800.272 217.401C800.835 217.261 801.497 217.19 802.259 217.19H803.533ZM812.779 220.328C812.779 220.164 812.724 220.023 812.612 219.906C812.507 219.783 812.319 219.672 812.05 219.572C811.78 219.467 811.402 219.361 810.916 219.256C810.453 219.156 810.017 219.024 809.606 218.86C809.202 218.696 808.848 218.497 808.543 218.263C808.238 218.028 807.998 217.75 807.822 217.428C807.652 217.105 807.567 216.736 807.567 216.32C807.567 215.916 807.652 215.535 807.822 215.178C807.998 214.814 808.253 214.495 808.587 214.22C808.927 213.938 809.34 213.719 809.826 213.561C810.312 213.396 810.866 213.314 811.487 213.314C812.343 213.314 813.081 213.446 813.702 213.71C814.323 213.968 814.801 214.331 815.135 214.8C815.475 215.263 815.645 215.799 815.645 216.408H812.683C812.683 216.168 812.642 215.963 812.56 215.793C812.483 215.623 812.357 215.494 812.182 215.406C812.006 215.312 811.771 215.266 811.479 215.266C811.273 215.266 811.086 215.304 810.916 215.38C810.752 215.456 810.62 215.562 810.521 215.696C810.421 215.831 810.371 215.989 810.371 216.171C810.371 216.3 810.4 216.417 810.459 216.522C810.523 216.622 810.62 216.716 810.749 216.804C810.878 216.886 811.042 216.962 811.241 217.032C811.44 217.097 811.681 217.155 811.962 217.208C812.601 217.325 813.198 217.492 813.755 217.709C814.312 217.926 814.763 218.233 815.108 218.632C815.46 219.03 815.636 219.566 815.636 220.24C815.636 220.662 815.539 221.052 815.346 221.409C815.152 221.761 814.874 222.071 814.511 222.341C814.147 222.604 813.711 222.81 813.201 222.956C812.691 223.103 812.117 223.176 811.479 223.176C810.57 223.176 809.803 223.015 809.176 222.692C808.549 222.364 808.074 221.954 807.752 221.462C807.436 220.964 807.277 220.46 807.277 219.95H810.037C810.049 220.243 810.119 220.483 810.248 220.671C810.383 220.858 810.562 220.996 810.784 221.084C811.007 221.172 811.265 221.216 811.558 221.216C811.827 221.216 812.05 221.178 812.226 221.102C812.407 221.025 812.545 220.923 812.639 220.794C812.732 220.659 812.779 220.504 812.779 220.328ZM821.63 223.176C820.856 223.176 820.165 223.056 819.556 222.815C818.946 222.569 818.431 222.232 818.009 221.805C817.593 221.377 817.273 220.885 817.051 220.328C816.834 219.771 816.726 219.183 816.726 218.562V218.228C816.726 217.53 816.822 216.886 817.016 216.294C817.209 215.696 817.496 215.175 817.877 214.729C818.258 214.284 818.735 213.938 819.31 213.692C819.884 213.44 820.552 213.314 821.313 213.314C821.987 213.314 822.591 213.423 823.124 213.64C823.657 213.856 824.108 214.167 824.478 214.571C824.853 214.976 825.137 215.465 825.33 216.039C825.529 216.613 825.629 217.258 825.629 217.973V219.177H817.859V217.322H822.737V217.094C822.743 216.777 822.688 216.508 822.57 216.285C822.459 216.062 822.295 215.893 822.078 215.775C821.861 215.658 821.598 215.6 821.287 215.6C820.965 215.6 820.698 215.67 820.487 215.811C820.282 215.951 820.121 216.145 820.004 216.391C819.893 216.631 819.813 216.909 819.767 217.226C819.72 217.542 819.696 217.876 819.696 218.228V218.562C819.696 218.913 819.743 219.232 819.837 219.52C819.937 219.807 820.077 220.053 820.259 220.258C820.446 220.457 820.669 220.612 820.927 220.724C821.19 220.835 821.489 220.891 821.823 220.891C822.228 220.891 822.626 220.814 823.019 220.662C823.411 220.51 823.748 220.258 824.029 219.906L825.374 221.506C825.181 221.781 824.905 222.048 824.548 222.306C824.196 222.563 823.774 222.774 823.282 222.938C822.79 223.097 822.239 223.176 821.63 223.176Z" fill="white"/>
<rect x="734" y="196" width="114" height="41" rx="3" stroke="#424242" stroke-width="4"/>
<path d="M1066 0H1348C1356.28 0 1363 6.71573 1363 15V282C1363 290.284 1356.28 297 1348 297H1066V0Z" fill="white"/>
<path d="M1118.05 135V106.406H1125.57L1136.37 121.113C1136.64 121.517 1136.99 122.122 1137.4 122.93C1137.94 123.971 1138.46 125.046 1138.96 126.152C1138.77 124.655 1138.66 123.607 1138.63 123.008C1138.55 122.07 1138.52 121.243 1138.52 120.527V106.406H1146V135H1138.52L1127.71 120.234C1127.56 120.026 1127.21 119.414 1126.68 118.398C1126.21 117.565 1125.69 116.51 1125.12 115.234C1125.25 116.25 1125.37 117.305 1125.49 118.398C1125.54 119.622 1125.57 120.449 1125.57 120.879V135H1118.05Z" fill="url(#paint0_linear_3_61)"/>
<path d="M1181.5 120.762C1181.5 122.832 1181.13 124.766 1180.39 126.562C1179.65 128.32 1178.54 129.922 1177.07 131.367C1175.61 132.773 1173.95 133.854 1172.07 134.609C1170.1 135.378 1168.16 135.762 1166.23 135.762C1164.28 135.762 1162.33 135.378 1160.39 134.609C1158.48 133.841 1156.82 132.76 1155.43 131.367C1154.02 130.026 1152.92 128.411 1152.11 126.523C1151.33 124.674 1150.94 122.754 1150.94 120.762C1150.94 118.77 1151.33 116.849 1152.11 115C1152.92 113.112 1154.02 111.497 1155.43 110.156C1156.86 108.724 1158.52 107.63 1160.39 106.875C1162.21 106.133 1164.16 105.762 1166.23 105.762C1168.3 105.762 1170.26 106.139 1172.11 106.895C1173.96 107.637 1175.61 108.724 1177.05 110.156C1178.51 111.589 1179.62 113.203 1180.39 115C1181.13 116.797 1181.5 118.717 1181.5 120.762ZM1166.23 129.16C1168.38 129.16 1170.18 128.359 1171.62 126.758C1172.34 125.964 1172.86 125.072 1173.2 124.082C1173.54 123.092 1173.71 121.986 1173.71 120.762C1173.71 118.379 1173 116.38 1171.58 114.766C1170.14 113.164 1168.35 112.363 1166.23 112.363C1164.06 112.363 1162.27 113.164 1160.86 114.766C1159.45 116.367 1158.75 118.366 1158.75 120.762C1158.75 123.249 1159.44 125.26 1160.82 126.797C1162.24 128.372 1164.04 129.16 1166.23 129.16ZM1186.19 106.406H1194V120.312C1194 122.435 1194.06 123.906 1194.16 124.727C1194.29 125.703 1194.47 126.445 1194.69 126.953C1194.96 127.695 1195.48 128.242 1196.23 128.594C1196.99 128.997 1197.9 129.199 1198.96 129.199C1200.02 129.199 1200.92 128.997 1201.68 128.594C1202.37 128.255 1202.89 127.708 1203.24 126.953C1203.45 126.432 1203.62 125.69 1203.75 124.727C1203.87 123.945 1203.93 122.474 1203.93 120.312V118.359V106.406H1211.68V121.523C1211.68 124.622 1211.49 126.927 1211.11 128.438C1210.76 129.935 1210.12 131.217 1209.2 132.285C1208.18 133.47 1206.84 134.336 1205.16 134.883C1203.49 135.469 1201.43 135.762 1198.96 135.762C1196.45 135.762 1194.38 135.469 1192.75 134.883C1191.1 134.336 1189.75 133.47 1188.71 132.285C1187.81 131.243 1187.17 129.961 1186.8 128.438C1186.39 126.901 1186.19 124.596 1186.19 121.523V118.555V106.406ZM1217.62 135V106.406H1225.76C1227.34 106.406 1228.67 106.439 1229.75 106.504C1230.84 106.569 1231.74 106.68 1232.44 106.836C1233.65 107.122 1234.73 107.617 1235.68 108.32C1236.73 109.102 1237.51 110.104 1238.05 111.328C1238.61 112.5 1238.89 113.828 1238.89 115.312C1238.89 117.513 1238.34 119.316 1237.25 120.723C1236.18 122.129 1234.6 123.047 1232.5 123.477L1240.29 135H1231.48L1224.92 123.809V135H1217.62ZM1224.92 119.922H1226.37C1228.07 119.922 1229.3 119.642 1230.06 119.082C1230.83 118.457 1231.21 117.552 1231.21 116.367C1231.21 114.935 1230.85 113.919 1230.14 113.32C1229.41 112.708 1228.19 112.402 1226.48 112.402H1224.92V119.922ZM1243.48 135V106.406H1251.35V135H1243.48ZM1258.93 125.762C1260.12 127.09 1261.27 128.073 1262.36 128.711C1263.51 129.362 1264.63 129.688 1265.72 129.688C1266.75 129.688 1267.6 129.408 1268.28 128.848C1268.96 128.288 1269.3 127.578 1269.3 126.719C1269.3 125.781 1269.02 125.046 1268.46 124.512C1267.86 124.004 1266.54 123.477 1264.49 122.93C1261.71 122.174 1259.73 121.198 1258.57 120C1257.4 118.776 1256.82 117.109 1256.82 115C1256.82 112.266 1257.73 110.039 1259.57 108.32C1261.38 106.589 1263.75 105.723 1266.68 105.723C1268.33 105.723 1269.83 105.938 1271.17 106.367C1272.58 106.797 1273.91 107.435 1275.18 108.281L1272.73 113.887C1271.88 113.145 1270.96 112.572 1270 112.168C1269.06 111.79 1268.14 111.602 1267.25 111.602C1266.33 111.602 1265.57 111.829 1264.96 112.285C1264.38 112.715 1264.08 113.288 1264.08 114.004C1264.08 114.694 1264.34 115.267 1264.84 115.723C1265.38 116.152 1266.38 116.562 1267.85 116.953C1267.9 116.966 1267.95 116.979 1267.99 116.992C1268.03 116.992 1268.09 117.005 1268.16 117.031C1271.34 117.878 1273.44 118.828 1274.45 119.883C1275.12 120.547 1275.64 121.387 1276.02 122.402C1276.35 123.366 1276.52 124.46 1276.52 125.684C1276.52 128.704 1275.53 131.146 1273.54 133.008C1271.53 134.844 1268.87 135.762 1265.57 135.762C1263.54 135.762 1261.72 135.43 1260.12 134.766C1258.53 134.102 1256.96 133.034 1255.41 131.562L1258.93 125.762ZM1280.9 135V106.406H1288.69V117.52H1299.08V106.406H1306.89V135H1299.08V123.359H1288.69V135H1280.9Z" fill="black"/>
<path d="M1141.23 161.359C1139.92 160.24 1138.52 159.4 1137.05 158.84C1135.59 158.28 1134.06 158 1132.44 158C1129.32 158 1126.77 159.003 1124.8 161.008C1122.85 163.013 1121.88 165.611 1121.88 168.801C1121.88 171.887 1122.83 174.432 1124.73 176.438C1126.64 178.443 1129.05 179.445 1131.95 179.445C1133.65 179.445 1135.25 179.146 1136.78 178.547C1138.31 177.948 1139.79 177.043 1141.19 175.832V181.086C1139.94 181.984 1138.58 182.655 1137.11 183.098C1135.64 183.54 1134.04 183.762 1132.32 183.762C1130.14 183.762 1128.11 183.404 1126.25 182.688C1124.4 181.971 1122.77 180.917 1121.37 179.523C1119.97 178.156 1118.9 176.548 1118.14 174.699C1117.4 172.837 1117.03 170.858 1117.03 168.762C1117.03 166.665 1117.4 164.699 1118.14 162.863C1118.9 161.014 1119.99 159.393 1121.41 158C1122.83 156.594 1124.45 155.533 1126.29 154.816C1128.12 154.087 1130.11 153.723 1132.25 153.723C1133.93 153.723 1135.53 153.97 1137.05 154.465C1138.57 154.947 1140.05 155.682 1141.48 156.672L1141.23 161.359ZM1171.46 168.762C1171.46 167.316 1171.2 165.943 1170.66 164.641C1170.14 163.339 1169.39 162.18 1168.4 161.164C1167.43 160.161 1166.32 159.393 1165.04 158.859C1163.78 158.312 1162.44 158.039 1161.04 158.039C1159.63 158.039 1158.29 158.306 1157.01 158.84C1155.75 159.374 1154.62 160.148 1153.63 161.164C1152.64 162.167 1151.89 163.319 1151.37 164.621C1150.85 165.923 1150.59 167.303 1150.59 168.762C1150.59 170.207 1150.85 171.574 1151.37 172.863C1151.89 174.152 1152.64 175.305 1153.63 176.32C1154.62 177.336 1155.75 178.111 1157.01 178.645C1158.27 179.178 1159.62 179.445 1161.04 179.445C1162.43 179.445 1163.75 179.178 1165 178.645C1166.26 178.111 1167.4 177.336 1168.4 176.32C1169.39 175.305 1170.14 174.152 1170.66 172.863C1171.2 171.561 1171.46 170.194 1171.46 168.762ZM1176.31 168.762C1176.31 170.793 1175.92 172.714 1175.16 174.523C1174.4 176.333 1173.29 177.948 1171.84 179.367C1170.36 180.786 1168.7 181.874 1166.86 182.629C1165.01 183.384 1163.07 183.762 1161.04 183.762C1158.98 183.762 1157.01 183.384 1155.14 182.629C1153.27 181.861 1151.63 180.773 1150.2 179.367C1148.74 177.948 1147.63 176.34 1146.88 174.543C1146.12 172.746 1145.74 170.819 1145.74 168.762C1145.74 166.717 1146.12 164.79 1146.88 162.98C1147.63 161.171 1148.74 159.549 1150.2 158.117C1151.65 156.698 1153.31 155.617 1155.16 154.875C1157.01 154.133 1158.96 153.762 1161.04 153.762C1163.09 153.762 1165.04 154.133 1166.88 154.875C1168.72 155.617 1170.38 156.698 1171.84 158.117C1173.29 159.562 1174.4 161.197 1175.16 163.02C1175.92 164.829 1176.31 166.743 1176.31 168.762ZM1181.64 183V153.273L1199.8 170.754C1200.3 171.249 1200.8 171.776 1201.31 172.336C1201.82 172.896 1202.35 173.527 1202.91 174.23V154.406H1207.21V184.113L1188.67 166.32C1188.18 165.839 1187.7 165.331 1187.23 164.797C1186.77 164.263 1186.33 163.703 1185.92 163.117V183H1181.64ZM1213.79 183V153.273L1231.95 170.754C1232.45 171.249 1232.95 171.776 1233.46 172.336C1233.96 172.896 1234.5 173.527 1235.06 174.23V154.406H1239.36V184.113L1220.82 166.32C1220.33 165.839 1219.84 165.331 1219.38 164.797C1218.92 164.263 1218.48 163.703 1218.07 163.117V183H1213.79ZM1245.94 183V154.406H1261.89V158.352H1250.59V165.52H1261.89V169.602H1250.59V178.84H1261.89V183H1245.94ZM1290.18 161.359C1288.86 160.24 1287.47 159.4 1286 158.84C1284.54 158.28 1283 158 1281.39 158C1278.26 158 1275.72 159.003 1273.75 161.008C1271.8 163.013 1270.82 165.611 1270.82 168.801C1270.82 171.887 1271.77 174.432 1273.67 176.438C1275.59 178.443 1277.99 179.445 1280.9 179.445C1282.59 179.445 1284.2 179.146 1285.72 178.547C1287.26 177.948 1288.73 177.043 1290.14 175.832V181.086C1288.89 181.984 1287.53 182.655 1286.05 183.098C1284.58 183.54 1282.99 183.762 1281.27 183.762C1279.08 183.762 1277.06 183.404 1275.2 182.688C1273.35 181.971 1271.72 180.917 1270.31 179.523C1268.92 178.156 1267.85 176.548 1267.09 174.699C1266.35 172.837 1265.98 170.858 1265.98 168.762C1265.98 166.665 1266.35 164.699 1267.09 162.863C1267.85 161.014 1268.93 159.393 1270.35 158C1271.77 156.594 1273.4 155.533 1275.23 154.816C1277.07 154.087 1279.06 153.723 1281.19 153.723C1282.87 153.723 1284.47 153.97 1286 154.465C1287.52 154.947 1289 155.682 1290.43 156.672L1290.18 161.359ZM1305.18 158.352V183H1300.53V158.352H1292.93V154.406H1312.73V158.352H1305.18Z" fill="black" fill-opacity="0.5"/>
<defs>
<linearGradient id="paint0_linear_3_61" x1="1150.15" y1="171.055" x2="1179.68" y2="72.9344" gradientUnits="userSpaceOnUse">
<stop stop-color="#01965E"/>
<stop offset="1" stop-color="#1B2A24"/>
<stop offset="1" stop-color="#ABFFDD"/>
</linearGradient>
</defs>
</svg>
