<svg width="1363" height="163" viewBox="0 0 1363 163" fill="none" xmlns="http://www.w3.org/2000/svg">
<path d="M0 15C0 6.71573 6.71573 0 15 0H37V163H15C6.71573 163 0 156.284 0 148V15Z" fill="#424242"/>
<rect width="1097" height="163" transform="translate(37)" fill="#F0F0F0"/>
<path d="M101.906 53.9219L94.3945 51.2383V48.0859L104.602 52.375V54.6367L101.906 53.9219ZM94.3945 56.1719L101.918 53.4297L104.602 52.7852V55.0352L94.3945 59.3242V56.1719ZM126.785 43.9375V61H123.27L116.414 49.5625V61H112.898V43.9375H116.414L123.281 55.3867V43.9375H126.785ZM129.094 54.7891V54.543C129.094 53.6133 129.227 52.7578 129.492 51.9766C129.758 51.1875 130.145 50.5039 130.652 49.9258C131.16 49.3477 131.785 48.8984 132.527 48.5781C133.27 48.25 134.121 48.0859 135.082 48.0859C136.043 48.0859 136.898 48.25 137.648 48.5781C138.398 48.8984 139.027 49.3477 139.535 49.9258C140.051 50.5039 140.441 51.1875 140.707 51.9766C140.973 52.7578 141.105 53.6133 141.105 54.543V54.7891C141.105 55.7109 140.973 56.5664 140.707 57.3555C140.441 58.1367 140.051 58.8203 139.535 59.4062C139.027 59.9844 138.402 60.4336 137.66 60.7539C136.918 61.0742 136.066 61.2344 135.105 61.2344C134.145 61.2344 133.289 61.0742 132.539 60.7539C131.797 60.4336 131.168 59.9844 130.652 59.4062C130.145 58.8203 129.758 58.1367 129.492 57.3555C129.227 56.5664 129.094 55.7109 129.094 54.7891ZM132.469 54.543V54.7891C132.469 55.3203 132.516 55.8164 132.609 56.2773C132.703 56.7383 132.852 57.1445 133.055 57.4961C133.266 57.8398 133.539 58.1094 133.875 58.3047C134.211 58.5 134.621 58.5977 135.105 58.5977C135.574 58.5977 135.977 58.5 136.312 58.3047C136.648 58.1094 136.918 57.8398 137.121 57.4961C137.324 57.1445 137.473 56.7383 137.566 56.2773C137.668 55.8164 137.719 55.3203 137.719 54.7891V54.543C137.719 54.0273 137.668 53.543 137.566 53.0898C137.473 52.6289 137.32 52.2227 137.109 51.8711C136.906 51.5117 136.637 51.2305 136.301 51.0273C135.965 50.8242 135.559 50.7227 135.082 50.7227C134.605 50.7227 134.199 50.8242 133.863 51.0273C133.535 51.2305 133.266 51.5117 133.055 51.8711C132.852 52.2227 132.703 52.6289 132.609 53.0898C132.516 53.543 132.469 54.0273 132.469 54.543ZM150.68 57.9648V48.3203H154.055V61H150.879L150.68 57.9648ZM151.055 55.3633L152.051 55.3398C152.051 56.1836 151.953 56.9688 151.758 57.6953C151.562 58.4141 151.27 59.0391 150.879 59.5703C150.488 60.0938 149.996 60.5039 149.402 60.8008C148.809 61.0898 148.109 61.2344 147.305 61.2344C146.688 61.2344 146.117 61.1484 145.594 60.9766C145.078 60.7969 144.633 60.5195 144.258 60.1445C143.891 59.7617 143.602 59.2734 143.391 58.6797C143.188 58.0781 143.086 57.3555 143.086 56.5117V48.3203H146.461V56.5352C146.461 56.9102 146.504 57.2266 146.59 57.4844C146.684 57.7422 146.812 57.9531 146.977 58.1172C147.141 58.2812 147.332 58.3984 147.551 58.4688C147.777 58.5391 148.027 58.5742 148.301 58.5742C148.996 58.5742 149.543 58.4336 149.941 58.1523C150.348 57.8711 150.633 57.4883 150.797 57.0039C150.969 56.5117 151.055 55.9648 151.055 55.3633ZM160.008 51.0859V61H156.633V48.3203H159.809L160.008 51.0859ZM163.828 48.2383L163.77 51.3672C163.605 51.3438 163.406 51.3242 163.172 51.3086C162.945 51.2852 162.738 51.2734 162.551 51.2734C162.074 51.2734 161.66 51.3359 161.309 51.4609C160.965 51.5781 160.676 51.7539 160.441 51.9883C160.215 52.2227 160.043 52.5078 159.926 52.8438C159.816 53.1797 159.754 53.5625 159.738 53.9922L159.059 53.7812C159.059 52.9609 159.141 52.207 159.305 51.5195C159.469 50.8242 159.707 50.2188 160.02 49.7031C160.34 49.1875 160.73 48.7891 161.191 48.5078C161.652 48.2266 162.18 48.0859 162.773 48.0859C162.961 48.0859 163.152 48.1016 163.348 48.1328C163.543 48.1562 163.703 48.1914 163.828 48.2383ZM168.984 48.3203V61H165.598V48.3203H168.984ZM165.387 45.0156C165.387 44.5234 165.559 44.1172 165.902 43.7969C166.246 43.4766 166.707 43.3164 167.285 43.3164C167.855 43.3164 168.312 43.4766 168.656 43.7969C169.008 44.1172 169.184 44.5234 169.184 45.0156C169.184 45.5078 169.008 45.9141 168.656 46.2344C168.312 46.5547 167.855 46.7148 167.285 46.7148C166.707 46.7148 166.246 46.5547 165.902 46.2344C165.559 45.9141 165.387 45.5078 165.387 45.0156ZM178.629 57.4961C178.629 57.2539 178.559 57.0352 178.418 56.8398C178.277 56.6445 178.016 56.4648 177.633 56.3008C177.258 56.1289 176.715 55.9727 176.004 55.832C175.363 55.6914 174.766 55.5156 174.211 55.3047C173.664 55.0859 173.188 54.8242 172.781 54.5195C172.383 54.2148 172.07 53.8555 171.844 53.4414C171.617 53.0195 171.504 52.5391 171.504 52C171.504 51.4688 171.617 50.9688 171.844 50.5C172.078 50.0312 172.41 49.6172 172.84 49.2578C173.277 48.8906 173.809 48.6055 174.434 48.4023C175.066 48.1914 175.777 48.0859 176.566 48.0859C177.668 48.0859 178.613 48.2617 179.402 48.6133C180.199 48.9648 180.809 49.4492 181.23 50.0664C181.66 50.6758 181.875 51.3711 181.875 52.1523H178.5C178.5 51.8242 178.43 51.5312 178.289 51.2734C178.156 51.0078 177.945 50.8008 177.656 50.6523C177.375 50.4961 177.008 50.418 176.555 50.418C176.18 50.418 175.855 50.4844 175.582 50.6172C175.309 50.7422 175.098 50.9141 174.949 51.1328C174.809 51.3438 174.738 51.5781 174.738 51.8359C174.738 52.0312 174.777 52.207 174.855 52.3633C174.941 52.5117 175.078 52.6484 175.266 52.7734C175.453 52.8984 175.695 53.0156 175.992 53.125C176.297 53.2266 176.672 53.3203 177.117 53.4062C178.031 53.5938 178.848 53.8398 179.566 54.1445C180.285 54.4414 180.855 54.8477 181.277 55.3633C181.699 55.8711 181.91 56.5391 181.91 57.3672C181.91 57.9297 181.785 58.4453 181.535 58.9141C181.285 59.3828 180.926 59.793 180.457 60.1445C179.988 60.4883 179.426 60.7578 178.77 60.9531C178.121 61.1406 177.391 61.2344 176.578 61.2344C175.398 61.2344 174.398 61.0234 173.578 60.6016C172.766 60.1797 172.148 59.6445 171.727 58.9961C171.312 58.3398 171.105 57.668 171.105 56.9805H174.305C174.32 57.4414 174.438 57.8125 174.656 58.0938C174.883 58.375 175.168 58.5781 175.512 58.7031C175.863 58.8281 176.242 58.8906 176.648 58.8906C177.086 58.8906 177.449 58.832 177.738 58.7148C178.027 58.5898 178.246 58.4258 178.395 58.2227C178.551 58.0117 178.629 57.7695 178.629 57.4961ZM187.395 43V61H184.02V43H187.395ZM186.914 54.2148H185.988C185.996 53.332 186.113 52.5195 186.34 51.7773C186.566 51.0273 186.891 50.3789 187.312 49.832C187.734 49.2773 188.238 48.8477 188.824 48.543C189.418 48.2383 190.074 48.0859 190.793 48.0859C191.418 48.0859 191.984 48.1758 192.492 48.3555C193.008 48.5273 193.449 48.8086 193.816 49.1992C194.191 49.582 194.48 50.0859 194.684 50.7109C194.887 51.3359 194.988 52.0938 194.988 52.9844V61H191.59V52.9609C191.59 52.3984 191.508 51.957 191.344 51.6367C191.188 51.3086 190.957 51.0781 190.652 50.9453C190.355 50.8047 189.988 50.7344 189.551 50.7344C189.066 50.7344 188.652 50.8242 188.309 51.0039C187.973 51.1836 187.703 51.4336 187.5 51.7539C187.297 52.0664 187.148 52.4336 187.055 52.8555C186.961 53.2773 186.914 53.7305 186.914 54.2148ZM213.633 55.3398H217.137C217.066 56.4883 216.75 57.5078 216.188 58.3984C215.633 59.2891 214.855 59.9844 213.855 60.4844C212.863 60.9844 211.668 61.2344 210.27 61.2344C209.176 61.2344 208.195 61.0469 207.328 60.6719C206.461 60.2891 205.719 59.7422 205.102 59.0312C204.492 58.3203 204.027 57.4609 203.707 56.4531C203.387 55.4453 203.227 54.3164 203.227 53.0664V51.8828C203.227 50.6328 203.391 49.5039 203.719 48.4961C204.055 47.4805 204.531 46.6172 205.148 45.9062C205.773 45.1953 206.52 44.6484 207.387 44.2656C208.254 43.8828 209.223 43.6914 210.293 43.6914C211.715 43.6914 212.914 43.9492 213.891 44.4648C214.875 44.9805 215.637 45.6914 216.176 46.5977C216.723 47.5039 217.051 48.5352 217.16 49.6914H213.645C213.605 49.0039 213.469 48.4219 213.234 47.9453C213 47.4609 212.645 47.0977 212.168 46.8555C211.699 46.6055 211.074 46.4805 210.293 46.4805C209.707 46.4805 209.195 46.5898 208.758 46.8086C208.32 47.0273 207.953 47.3594 207.656 47.8047C207.359 48.25 207.137 48.8125 206.988 49.4922C206.848 50.1641 206.777 50.9531 206.777 51.8594V53.0664C206.777 53.9492 206.844 54.7266 206.977 55.3984C207.109 56.0625 207.312 56.625 207.586 57.0859C207.867 57.5391 208.227 57.8828 208.664 58.1172C209.109 58.3438 209.645 58.457 210.27 58.457C211.004 58.457 211.609 58.3398 212.086 58.1055C212.562 57.8711 212.926 57.5234 213.176 57.0625C213.434 56.6016 213.586 56.0273 213.633 55.3398ZM218.695 54.7891V54.543C218.695 53.6133 218.828 52.7578 219.094 51.9766C219.359 51.1875 219.746 50.5039 220.254 49.9258C220.762 49.3477 221.387 48.8984 222.129 48.5781C222.871 48.25 223.723 48.0859 224.684 48.0859C225.645 48.0859 226.5 48.25 227.25 48.5781C228 48.8984 228.629 49.3477 229.137 49.9258C229.652 50.5039 230.043 51.1875 230.309 51.9766C230.574 52.7578 230.707 53.6133 230.707 54.543V54.7891C230.707 55.7109 230.574 56.5664 230.309 57.3555C230.043 58.1367 229.652 58.8203 229.137 59.4062C228.629 59.9844 228.004 60.4336 227.262 60.7539C226.52 61.0742 225.668 61.2344 224.707 61.2344C223.746 61.2344 222.891 61.0742 222.141 60.7539C221.398 60.4336 220.77 59.9844 220.254 59.4062C219.746 58.8203 219.359 58.1367 219.094 57.3555C218.828 56.5664 218.695 55.7109 218.695 54.7891ZM222.07 54.543V54.7891C222.07 55.3203 222.117 55.8164 222.211 56.2773C222.305 56.7383 222.453 57.1445 222.656 57.4961C222.867 57.8398 223.141 58.1094 223.477 58.3047C223.812 58.5 224.223 58.5977 224.707 58.5977C225.176 58.5977 225.578 58.5 225.914 58.3047C226.25 58.1094 226.52 57.8398 226.723 57.4961C226.926 57.1445 227.074 56.7383 227.168 56.2773C227.27 55.8164 227.32 55.3203 227.32 54.7891V54.543C227.32 54.0273 227.27 53.543 227.168 53.0898C227.074 52.6289 226.922 52.2227 226.711 51.8711C226.508 51.5117 226.238 51.2305 225.902 51.0273C225.566 50.8242 225.16 50.7227 224.684 50.7227C224.207 50.7227 223.801 50.8242 223.465 51.0273C223.137 51.2305 222.867 51.5117 222.656 51.8711C222.453 52.2227 222.305 52.6289 222.211 53.0898C222.117 53.543 222.07 54.0273 222.07 54.543ZM236.086 51.0273V61H232.711V48.3203H235.875L236.086 51.0273ZM235.594 54.2148H234.68C234.68 53.2773 234.801 52.4336 235.043 51.6836C235.285 50.9258 235.625 50.2812 236.062 49.75C236.5 49.2109 237.02 48.8008 237.621 48.5195C238.23 48.2305 238.91 48.0859 239.66 48.0859C240.254 48.0859 240.797 48.1719 241.289 48.3438C241.781 48.5156 242.203 48.7891 242.555 49.1641C242.914 49.5391 243.188 50.0352 243.375 50.6523C243.57 51.2695 243.668 52.0234 243.668 52.9141V61H240.27V52.9023C240.27 52.3398 240.191 51.9023 240.035 51.5898C239.879 51.2773 239.648 51.0586 239.344 50.9336C239.047 50.8008 238.68 50.7344 238.242 50.7344C237.789 50.7344 237.395 50.8242 237.059 51.0039C236.73 51.1836 236.457 51.4336 236.238 51.7539C236.027 52.0664 235.867 52.4336 235.758 52.8555C235.648 53.2773 235.594 53.7305 235.594 54.2148ZM249.539 51.0273V61H246.164V48.3203H249.328L249.539 51.0273ZM249.047 54.2148H248.133C248.133 53.2773 248.254 52.4336 248.496 51.6836C248.738 50.9258 249.078 50.2812 249.516 49.75C249.953 49.2109 250.473 48.8008 251.074 48.5195C251.684 48.2305 252.363 48.0859 253.113 48.0859C253.707 48.0859 254.25 48.1719 254.742 48.3438C255.234 48.5156 255.656 48.7891 256.008 49.1641C256.367 49.5391 256.641 50.0352 256.828 50.6523C257.023 51.2695 257.121 52.0234 257.121 52.9141V61H253.723V52.9023C253.723 52.3398 253.645 51.9023 253.488 51.5898C253.332 51.2773 253.102 51.0586 252.797 50.9336C252.5 50.8008 252.133 50.7344 251.695 50.7344C251.242 50.7344 250.848 50.8242 250.512 51.0039C250.184 51.1836 249.91 51.4336 249.691 51.7539C249.48 52.0664 249.32 52.4336 249.211 52.8555C249.102 53.2773 249.047 53.7305 249.047 54.2148ZM265.523 61.2344C264.539 61.2344 263.656 61.0781 262.875 60.7656C262.094 60.4453 261.43 60.0039 260.883 59.4414C260.344 58.8789 259.93 58.2266 259.641 57.4844C259.352 56.7344 259.207 55.9375 259.207 55.0938V54.625C259.207 53.6641 259.344 52.7852 259.617 51.9883C259.891 51.1914 260.281 50.5 260.789 49.9141C261.305 49.3281 261.93 48.8789 262.664 48.5664C263.398 48.2461 264.227 48.0859 265.148 48.0859C266.047 48.0859 266.844 48.2344 267.539 48.5312C268.234 48.8281 268.816 49.25 269.285 49.7969C269.762 50.3438 270.121 51 270.363 51.7656C270.605 52.5234 270.727 53.3672 270.727 54.2969V55.7031H260.648V53.4531H267.41V53.1953C267.41 52.7266 267.324 52.3086 267.152 51.9414C266.988 51.5664 266.738 51.2695 266.402 51.0508C266.066 50.832 265.637 50.7227 265.113 50.7227C264.668 50.7227 264.285 50.8203 263.965 51.0156C263.645 51.2109 263.383 51.4844 263.18 51.8359C262.984 52.1875 262.836 52.6016 262.734 53.0781C262.641 53.5469 262.594 54.0625 262.594 54.625V55.0938C262.594 55.6016 262.664 56.0703 262.805 56.5C262.953 56.9297 263.16 57.3008 263.426 57.6133C263.699 57.9258 264.027 58.168 264.41 58.3398C264.801 58.5117 265.242 58.5977 265.734 58.5977C266.344 58.5977 266.91 58.4805 267.434 58.2461C267.965 58.0039 268.422 57.6406 268.805 57.1562L270.445 58.9375C270.18 59.3203 269.816 59.6875 269.355 60.0391C268.902 60.3906 268.355 60.6797 267.715 60.9062C267.074 61.125 266.344 61.2344 265.523 61.2344ZM277.887 58.5977C278.301 58.5977 278.668 58.5195 278.988 58.3633C279.309 58.1992 279.559 57.9727 279.738 57.6836C279.926 57.3867 280.023 57.0391 280.031 56.6406H283.207C283.199 57.5312 282.961 58.3242 282.492 59.0195C282.023 59.707 281.395 60.25 280.605 60.6484C279.816 61.0391 278.934 61.2344 277.957 61.2344C276.973 61.2344 276.113 61.0703 275.379 60.7422C274.652 60.4141 274.047 59.9609 273.562 59.3828C273.078 58.7969 272.715 58.1172 272.473 57.3438C272.23 56.5625 272.109 55.7266 272.109 54.8359V54.4961C272.109 53.5977 272.23 52.7617 272.473 51.9883C272.715 51.207 273.078 50.5273 273.562 49.9492C274.047 49.3633 274.652 48.9062 275.379 48.5781C276.105 48.25 276.957 48.0859 277.934 48.0859C278.973 48.0859 279.883 48.2852 280.664 48.6836C281.453 49.082 282.07 49.6523 282.516 50.3945C282.969 51.1289 283.199 52 283.207 53.0078H280.031C280.023 52.5859 279.934 52.2031 279.762 51.8594C279.598 51.5156 279.355 51.2422 279.035 51.0391C278.723 50.8281 278.336 50.7227 277.875 50.7227C277.383 50.7227 276.98 50.8281 276.668 51.0391C276.355 51.2422 276.113 51.5234 275.941 51.8828C275.77 52.2344 275.648 52.6367 275.578 53.0898C275.516 53.5352 275.484 54.0039 275.484 54.4961V54.8359C275.484 55.3281 275.516 55.8008 275.578 56.2539C275.641 56.707 275.758 57.1094 275.93 57.4609C276.109 57.8125 276.355 58.0898 276.668 58.293C276.98 58.4961 277.387 58.5977 277.887 58.5977ZM291.375 48.3203V50.7109H283.992V48.3203H291.375ZM285.82 45.1914H289.195V57.1797C289.195 57.5469 289.242 57.8281 289.336 58.0234C289.438 58.2188 289.586 58.3555 289.781 58.4336C289.977 58.5039 290.223 58.5391 290.52 58.5391C290.73 58.5391 290.918 58.5312 291.082 58.5156C291.254 58.4922 291.398 58.4688 291.516 58.4453L291.527 60.9297C291.238 61.0234 290.926 61.0977 290.59 61.1523C290.254 61.207 289.883 61.2344 289.477 61.2344C288.734 61.2344 288.086 61.1133 287.531 60.8711C286.984 60.6211 286.562 60.2227 286.266 59.6758C285.969 59.1289 285.82 58.4102 285.82 57.5195V45.1914Z" fill="#888888"/>
<path d="M109.219 107.422H100.734V101.07H109.219C110.375 101.07 111.312 100.875 112.031 100.484C112.75 100.094 113.273 99.5547 113.602 98.8672C113.945 98.1641 114.117 97.375 114.117 96.5C114.117 95.5625 113.945 94.6953 113.602 93.8984C113.273 93.1016 112.75 92.4609 112.031 91.9766C111.312 91.4766 110.375 91.2266 109.219 91.2266H103.828V119H95.6016V84.875H109.219C111.953 84.875 114.305 85.375 116.273 86.375C118.258 87.375 119.781 88.75 120.844 90.5C121.906 92.2344 122.438 94.2188 122.438 96.4531C122.438 98.6562 121.906 100.578 120.844 102.219C119.781 103.859 118.258 105.141 116.273 106.062C114.305 106.969 111.953 107.422 109.219 107.422ZM134.461 99.9219V119H126.562V93.6406H133.945L134.461 99.9219ZM141.961 93.4531L141.82 100.789C141.508 100.758 141.086 100.719 140.555 100.672C140.023 100.625 139.578 100.602 139.219 100.602C138.297 100.602 137.5 100.711 136.828 100.93C136.172 101.133 135.625 101.445 135.188 101.867C134.766 102.273 134.453 102.789 134.25 103.414C134.062 104.039 133.977 104.766 133.992 105.594L132.562 104.656C132.562 102.953 132.727 101.406 133.055 100.016C133.398 98.6094 133.883 97.3984 134.508 96.3828C135.133 95.3516 135.891 94.5625 136.781 94.0156C137.672 93.4531 138.672 93.1719 139.781 93.1719C140.172 93.1719 140.555 93.1953 140.93 93.2422C141.32 93.2891 141.664 93.3594 141.961 93.4531ZM142.852 106.578V106.086C142.852 104.227 143.117 102.516 143.648 100.953C144.18 99.375 144.961 98.0078 145.992 96.8516C147.023 95.6953 148.297 94.7969 149.812 94.1562C151.328 93.5 153.078 93.1719 155.062 93.1719C157.062 93.1719 158.82 93.5 160.336 94.1562C161.867 94.7969 163.148 95.6953 164.18 96.8516C165.211 98.0078 165.992 99.375 166.523 100.953C167.055 102.516 167.32 104.227 167.32 106.086V106.578C167.32 108.422 167.055 110.133 166.523 111.711C165.992 113.273 165.211 114.641 164.18 115.812C163.148 116.969 161.875 117.867 160.359 118.508C158.844 119.148 157.094 119.469 155.109 119.469C153.125 119.469 151.367 119.148 149.836 118.508C148.305 117.867 147.023 116.969 145.992 115.812C144.961 114.641 144.18 113.273 143.648 111.711C143.117 110.133 142.852 108.422 142.852 106.578ZM150.75 106.086V106.578C150.75 107.531 150.82 108.422 150.961 109.25C151.102 110.078 151.336 110.805 151.664 111.43C151.992 112.039 152.438 112.516 153 112.859C153.562 113.203 154.266 113.375 155.109 113.375C155.938 113.375 156.625 113.203 157.172 112.859C157.734 112.516 158.18 112.039 158.508 111.43C158.836 110.805 159.07 110.078 159.211 109.25C159.352 108.422 159.422 107.531 159.422 106.578V106.086C159.422 105.164 159.352 104.297 159.211 103.484C159.07 102.656 158.836 101.93 158.508 101.305C158.18 100.664 157.734 100.164 157.172 99.8047C156.609 99.4453 155.906 99.2656 155.062 99.2656C154.234 99.2656 153.539 99.4453 152.977 99.8047C152.43 100.164 151.992 100.664 151.664 101.305C151.336 101.93 151.102 102.656 150.961 103.484C150.82 104.297 150.75 105.164 150.75 106.086ZM184.195 93.6406V99.125H168.914V93.6406H184.195ZM172.125 87.3359H180.023V110.727C180.023 111.398 180.102 111.922 180.258 112.297C180.414 112.656 180.68 112.914 181.055 113.07C181.445 113.211 181.961 113.281 182.602 113.281C183.055 113.281 183.43 113.273 183.727 113.258C184.023 113.227 184.305 113.188 184.57 113.141V118.789C183.898 119.008 183.195 119.172 182.461 119.281C181.727 119.406 180.945 119.469 180.117 119.469C178.43 119.469 176.984 119.203 175.781 118.672C174.594 118.141 173.688 117.305 173.062 116.164C172.438 115.023 172.125 113.539 172.125 111.711V87.3359ZM185.648 106.578V106.086C185.648 104.227 185.914 102.516 186.445 100.953C186.977 99.375 187.758 98.0078 188.789 96.8516C189.82 95.6953 191.094 94.7969 192.609 94.1562C194.125 93.5 195.875 93.1719 197.859 93.1719C199.859 93.1719 201.617 93.5 203.133 94.1562C204.664 94.7969 205.945 95.6953 206.977 96.8516C208.008 98.0078 208.789 99.375 209.32 100.953C209.852 102.516 210.117 104.227 210.117 106.086V106.578C210.117 108.422 209.852 110.133 209.32 111.711C208.789 113.273 208.008 114.641 206.977 115.812C205.945 116.969 204.672 117.867 203.156 118.508C201.641 119.148 199.891 119.469 197.906 119.469C195.922 119.469 194.164 119.148 192.633 118.508C191.102 117.867 189.82 116.969 188.789 115.812C187.758 114.641 186.977 113.273 186.445 111.711C185.914 110.133 185.648 108.422 185.648 106.578ZM193.547 106.086V106.578C193.547 107.531 193.617 108.422 193.758 109.25C193.898 110.078 194.133 110.805 194.461 111.43C194.789 112.039 195.234 112.516 195.797 112.859C196.359 113.203 197.062 113.375 197.906 113.375C198.734 113.375 199.422 113.203 199.969 112.859C200.531 112.516 200.977 112.039 201.305 111.43C201.633 110.805 201.867 110.078 202.008 109.25C202.148 108.422 202.219 107.531 202.219 106.578V106.086C202.219 105.164 202.148 104.297 202.008 103.484C201.867 102.656 201.633 101.93 201.305 101.305C200.977 100.664 200.531 100.164 199.969 99.8047C199.406 99.4453 198.703 99.2656 197.859 99.2656C197.031 99.2656 196.336 99.4453 195.773 99.8047C195.227 100.164 194.789 100.664 194.461 101.305C194.133 101.93 193.898 102.656 193.758 103.484C193.617 104.297 193.547 105.164 193.547 106.086ZM226.992 93.6406V99.125H211.711V93.6406H226.992ZM214.922 87.3359H222.82V110.727C222.82 111.398 222.898 111.922 223.055 112.297C223.211 112.656 223.477 112.914 223.852 113.07C224.242 113.211 224.758 113.281 225.398 113.281C225.852 113.281 226.227 113.273 226.523 113.258C226.82 113.227 227.102 113.188 227.367 113.141V118.789C226.695 119.008 225.992 119.172 225.258 119.281C224.523 119.406 223.742 119.469 222.914 119.469C221.227 119.469 219.781 119.203 218.578 118.672C217.391 118.141 216.484 117.305 215.859 116.164C215.234 115.023 214.922 113.539 214.922 111.711V87.3359ZM237.914 116.023L244.477 93.6406H252.961L242.766 122.773C242.547 123.414 242.258 124.102 241.898 124.836C241.539 125.586 241.047 126.297 240.422 126.969C239.797 127.641 238.992 128.188 238.008 128.609C237.039 129.031 235.836 129.242 234.398 129.242C233.633 129.242 233.07 129.203 232.711 129.125C232.367 129.062 231.836 128.945 231.117 128.773V123.125C231.32 123.125 231.492 123.125 231.633 123.125C231.789 123.125 231.961 123.125 232.148 123.125C232.992 123.125 233.664 123.039 234.164 122.867C234.68 122.695 235.07 122.445 235.336 122.117C235.617 121.789 235.836 121.391 235.992 120.922L237.914 116.023ZM236.25 93.6406L241.242 111.383L242.109 119.75H236.812L227.789 93.6406H236.25ZM262.992 98.5156V128.75H255.094V93.6406H262.453L262.992 98.5156ZM278.555 106.016V106.508C278.555 108.352 278.344 110.062 277.922 111.641C277.5 113.219 276.875 114.594 276.047 115.766C275.219 116.938 274.188 117.852 272.953 118.508C271.734 119.148 270.32 119.469 268.711 119.469C267.195 119.469 265.891 119.133 264.797 118.461C263.703 117.789 262.789 116.859 262.055 115.672C261.32 114.484 260.727 113.125 260.273 111.594C259.82 110.062 259.461 108.445 259.195 106.742V106.109C259.461 104.281 259.82 102.586 260.273 101.023C260.727 99.4453 261.32 98.0703 262.055 96.8984C262.789 95.7266 263.695 94.8125 264.773 94.1562C265.867 93.5 267.172 93.1719 268.688 93.1719C270.297 93.1719 271.711 93.4766 272.93 94.0859C274.164 94.6953 275.195 95.5703 276.023 96.7109C276.867 97.8359 277.5 99.1875 277.922 100.766C278.344 102.344 278.555 104.094 278.555 106.016ZM270.656 106.508V106.016C270.656 105.031 270.586 104.133 270.445 103.32C270.305 102.492 270.078 101.773 269.766 101.164C269.469 100.555 269.07 100.086 268.57 99.7578C268.07 99.4297 267.453 99.2656 266.719 99.2656C265.875 99.2656 265.164 99.3984 264.586 99.6641C264.023 99.9141 263.57 100.305 263.227 100.836C262.898 101.352 262.664 102 262.523 102.781C262.398 103.547 262.344 104.445 262.359 105.477V107.398C262.328 108.586 262.445 109.633 262.711 110.539C262.977 111.43 263.438 112.125 264.094 112.625C264.75 113.125 265.641 113.375 266.766 113.375C267.516 113.375 268.141 113.203 268.641 112.859C269.141 112.5 269.539 112.008 269.836 111.383C270.133 110.742 270.344 110.008 270.469 109.18C270.594 108.352 270.656 107.461 270.656 106.508ZM290.414 93.6406V119H282.492V93.6406H290.414ZM282.023 87.1016C282.023 85.9766 282.43 85.0547 283.242 84.3359C284.055 83.6172 285.109 83.2578 286.406 83.2578C287.703 83.2578 288.758 83.6172 289.57 84.3359C290.383 85.0547 290.789 85.9766 290.789 87.1016C290.789 88.2266 290.383 89.1484 289.57 89.8672C288.758 90.5859 287.703 90.9453 286.406 90.9453C285.109 90.9453 284.055 90.5859 283.242 89.8672C282.43 89.1484 282.023 88.2266 282.023 87.1016ZM303.047 99.0547V119H295.148V93.6406H302.555L303.047 99.0547ZM302.109 105.453L300.258 105.5C300.258 103.562 300.492 101.836 300.961 100.32C301.43 98.7891 302.094 97.4922 302.953 96.4297C303.812 95.3672 304.836 94.5625 306.023 94.0156C307.227 93.4531 308.562 93.1719 310.031 93.1719C311.203 93.1719 312.273 93.3438 313.242 93.6875C314.227 94.0312 315.07 94.5859 315.773 95.3516C316.492 96.1172 317.039 97.1328 317.414 98.3984C317.805 99.6484 318 101.195 318 103.039V119H310.055V103.016C310.055 102 309.914 101.227 309.633 100.695C309.352 100.148 308.945 99.7734 308.414 99.5703C307.883 99.3672 307.234 99.2656 306.469 99.2656C305.656 99.2656 304.969 99.4219 304.406 99.7344C303.844 100.047 303.391 100.484 303.047 101.047C302.719 101.594 302.477 102.242 302.32 102.992C302.18 103.742 302.109 104.562 302.109 105.453ZM338.32 93.6406H345.492V118.016C345.492 120.359 344.953 122.344 343.875 123.969C342.797 125.609 341.289 126.852 339.352 127.695C337.43 128.555 335.18 128.984 332.602 128.984C331.461 128.984 330.297 128.836 329.109 128.539C327.922 128.258 326.812 127.836 325.781 127.273C324.75 126.711 323.883 126.016 323.18 125.188L326.484 120.547C327.125 121.266 327.93 121.875 328.898 122.375C329.867 122.891 331.008 123.148 332.32 123.148C333.461 123.148 334.414 122.945 335.18 122.539C335.961 122.133 336.555 121.539 336.961 120.758C337.367 119.992 337.57 119.062 337.57 117.969V99.6406L338.32 93.6406ZM321.469 106.625V106.133C321.469 104.211 321.703 102.461 322.172 100.883C322.656 99.2891 323.344 97.9219 324.234 96.7812C325.141 95.625 326.234 94.7344 327.516 94.1094C328.797 93.4844 330.242 93.1719 331.852 93.1719C333.586 93.1719 335.008 93.5078 336.117 94.1797C337.242 94.8359 338.141 95.7578 338.812 96.9453C339.5 98.1328 340.031 99.5234 340.406 101.117C340.797 102.695 341.125 104.398 341.391 106.227V106.812C341.125 108.531 340.758 110.156 340.289 111.688C339.836 113.203 339.242 114.547 338.508 115.719C337.773 116.891 336.852 117.812 335.742 118.484C334.648 119.141 333.336 119.469 331.805 119.469C330.211 119.469 328.773 119.148 327.492 118.508C326.227 117.867 325.141 116.969 324.234 115.812C323.344 114.656 322.656 113.297 322.172 111.734C321.703 110.172 321.469 108.469 321.469 106.625ZM329.367 106.133V106.625C329.367 107.578 329.453 108.461 329.625 109.273C329.812 110.086 330.094 110.805 330.469 111.43C330.844 112.039 331.305 112.516 331.852 112.859C332.414 113.203 333.07 113.375 333.82 113.375C334.961 113.375 335.883 113.133 336.586 112.648C337.289 112.164 337.797 111.477 338.109 110.586C338.422 109.695 338.555 108.648 338.508 107.445V105.594C338.539 104.562 338.469 103.656 338.297 102.875C338.125 102.078 337.852 101.414 337.477 100.883C337.117 100.352 336.633 99.9531 336.023 99.6875C335.43 99.4062 334.711 99.2656 333.867 99.2656C333.133 99.2656 332.484 99.4375 331.922 99.7812C331.359 100.125 330.891 100.609 330.516 101.234C330.141 101.844 329.852 102.57 329.648 103.414C329.461 104.242 329.367 105.148 329.367 106.133Z" fill="black"/>
<path d="M1134 0H1348C1356.28 0 1363 6.71573 1363 15V148C1363 156.284 1356.28 163 1348 163H1134V0Z" fill="#006942"/>
<path fill-rule="evenodd" clip-rule="evenodd" d="M1202.75 46.5018C1202.75 45.3973 1203.65 44.5018 1204.75 44.5018H1292.25C1293.35 44.5018 1294.25 45.3973 1294.25 46.5018V116.498C1294.25 117.603 1293.35 118.498 1292.25 118.498H1204.75C1203.65 118.498 1202.75 117.603 1202.75 116.498V46.5018ZM1206.75 48.5018V52.9963H1290.25V48.5018H1206.75ZM1290.25 56.9963H1235.19V114.498H1290.25V56.9963ZM1231.19 114.498V56.9963H1206.75V114.498H1231.19Z" fill="white"/>
<path fill-rule="evenodd" clip-rule="evenodd" d="M1209.72 62.3022C1209.72 61.1976 1210.62 60.3022 1211.72 60.3022H1225.72C1226.83 60.3022 1227.72 61.1976 1227.72 62.3022V81.6974C1227.72 82.802 1226.83 83.6974 1225.72 83.6974H1211.72C1210.62 83.6974 1209.72 82.802 1209.72 81.6974V62.3022ZM1213.72 64.3022V79.6974H1223.72V64.3022H1213.72ZM1239.33 63.1982C1239.33 62.0936 1240.22 61.1982 1241.33 61.1982H1284.25C1285.36 61.1982 1286.25 62.0936 1286.25 63.1982V109.407C1286.25 110.511 1285.36 111.407 1284.25 111.407H1241.33C1240.22 111.407 1239.33 110.511 1239.33 109.407V63.1982ZM1243.33 65.1982V107.407H1282.25V65.1982H1243.33ZM1209.56 93.4381C1209.56 92.3336 1210.46 91.4381 1211.56 91.4381H1220.48C1221.59 91.4381 1222.48 92.3336 1222.48 93.4381C1222.48 94.5427 1221.59 95.4381 1220.48 95.4381H1211.56C1210.46 95.4381 1209.56 94.5427 1209.56 93.4381ZM1209.56 100.438C1209.56 99.3335 1210.46 98.4381 1211.56 98.4381H1226.1C1227.21 98.4381 1228.1 99.3335 1228.1 100.438C1228.1 101.543 1227.21 102.438 1226.1 102.438H1211.56C1210.46 102.438 1209.56 101.543 1209.56 100.438ZM1209.56 107.438C1209.56 106.334 1210.46 105.438 1211.56 105.438H1220.48C1221.59 105.438 1222.48 106.334 1222.48 107.438C1222.48 108.543 1221.59 109.438 1220.48 109.438H1211.56C1210.46 109.438 1209.56 108.543 1209.56 107.438Z" fill="white"/>
</svg>
