<svg width="1363" height="163" viewBox="0 0 1363 163" fill="none" xmlns="http://www.w3.org/2000/svg">
<path d="M0 15C0 6.71573 6.71573 0 15 0H37V163H15C6.71573 163 0 156.284 0 148V15Z" fill="#424242"/>
<rect width="1097" height="163" transform="translate(37)" fill="#F0F0F0"/>
<path d="M101.906 53.9219L94.3945 51.2383V48.0859L104.602 52.375V54.6367L101.906 53.9219ZM94.3945 56.1719L101.918 53.4297L104.602 52.7852V55.0352L94.3945 59.3242V56.1719ZM126.785 43.9375V61H123.27L116.414 49.5625V61H112.898V43.9375H116.414L123.281 55.3867V43.9375H126.785ZM129.094 54.7891V54.543C129.094 53.6133 129.227 52.7578 129.492 51.9766C129.758 51.1875 130.145 50.5039 130.652 49.9258C131.16 49.3477 131.785 48.8984 132.527 48.5781C133.27 48.25 134.121 48.0859 135.082 48.0859C136.043 48.0859 136.898 48.25 137.648 48.5781C138.398 48.8984 139.027 49.3477 139.535 49.9258C140.051 50.5039 140.441 51.1875 140.707 51.9766C140.973 52.7578 141.105 53.6133 141.105 54.543V54.7891C141.105 55.7109 140.973 56.5664 140.707 57.3555C140.441 58.1367 140.051 58.8203 139.535 59.4062C139.027 59.9844 138.402 60.4336 137.66 60.7539C136.918 61.0742 136.066 61.2344 135.105 61.2344C134.145 61.2344 133.289 61.0742 132.539 60.7539C131.797 60.4336 131.168 59.9844 130.652 59.4062C130.145 58.8203 129.758 58.1367 129.492 57.3555C129.227 56.5664 129.094 55.7109 129.094 54.7891ZM132.469 54.543V54.7891C132.469 55.3203 132.516 55.8164 132.609 56.2773C132.703 56.7383 132.852 57.1445 133.055 57.4961C133.266 57.8398 133.539 58.1094 133.875 58.3047C134.211 58.5 134.621 58.5977 135.105 58.5977C135.574 58.5977 135.977 58.5 136.312 58.3047C136.648 58.1094 136.918 57.8398 137.121 57.4961C137.324 57.1445 137.473 56.7383 137.566 56.2773C137.668 55.8164 137.719 55.3203 137.719 54.7891V54.543C137.719 54.0273 137.668 53.543 137.566 53.0898C137.473 52.6289 137.32 52.2227 137.109 51.8711C136.906 51.5117 136.637 51.2305 136.301 51.0273C135.965 50.8242 135.559 50.7227 135.082 50.7227C134.605 50.7227 134.199 50.8242 133.863 51.0273C133.535 51.2305 133.266 51.5117 133.055 51.8711C132.852 52.2227 132.703 52.6289 132.609 53.0898C132.516 53.543 132.469 54.0273 132.469 54.543ZM150.68 57.9648V48.3203H154.055V61H150.879L150.68 57.9648ZM151.055 55.3633L152.051 55.3398C152.051 56.1836 151.953 56.9688 151.758 57.6953C151.562 58.4141 151.27 59.0391 150.879 59.5703C150.488 60.0938 149.996 60.5039 149.402 60.8008C148.809 61.0898 148.109 61.2344 147.305 61.2344C146.688 61.2344 146.117 61.1484 145.594 60.9766C145.078 60.7969 144.633 60.5195 144.258 60.1445C143.891 59.7617 143.602 59.2734 143.391 58.6797C143.188 58.0781 143.086 57.3555 143.086 56.5117V48.3203H146.461V56.5352C146.461 56.9102 146.504 57.2266 146.59 57.4844C146.684 57.7422 146.812 57.9531 146.977 58.1172C147.141 58.2812 147.332 58.3984 147.551 58.4688C147.777 58.5391 148.027 58.5742 148.301 58.5742C148.996 58.5742 149.543 58.4336 149.941 58.1523C150.348 57.8711 150.633 57.4883 150.797 57.0039C150.969 56.5117 151.055 55.9648 151.055 55.3633ZM160.008 51.0859V61H156.633V48.3203H159.809L160.008 51.0859ZM163.828 48.2383L163.77 51.3672C163.605 51.3438 163.406 51.3242 163.172 51.3086C162.945 51.2852 162.738 51.2734 162.551 51.2734C162.074 51.2734 161.66 51.3359 161.309 51.4609C160.965 51.5781 160.676 51.7539 160.441 51.9883C160.215 52.2227 160.043 52.5078 159.926 52.8438C159.816 53.1797 159.754 53.5625 159.738 53.9922L159.059 53.7812C159.059 52.9609 159.141 52.207 159.305 51.5195C159.469 50.8242 159.707 50.2188 160.02 49.7031C160.34 49.1875 160.73 48.7891 161.191 48.5078C161.652 48.2266 162.18 48.0859 162.773 48.0859C162.961 48.0859 163.152 48.1016 163.348 48.1328C163.543 48.1562 163.703 48.1914 163.828 48.2383ZM168.984 48.3203V61H165.598V48.3203H168.984ZM165.387 45.0156C165.387 44.5234 165.559 44.1172 165.902 43.7969C166.246 43.4766 166.707 43.3164 167.285 43.3164C167.855 43.3164 168.312 43.4766 168.656 43.7969C169.008 44.1172 169.184 44.5234 169.184 45.0156C169.184 45.5078 169.008 45.9141 168.656 46.2344C168.312 46.5547 167.855 46.7148 167.285 46.7148C166.707 46.7148 166.246 46.5547 165.902 46.2344C165.559 45.9141 165.387 45.5078 165.387 45.0156ZM178.629 57.4961C178.629 57.2539 178.559 57.0352 178.418 56.8398C178.277 56.6445 178.016 56.4648 177.633 56.3008C177.258 56.1289 176.715 55.9727 176.004 55.832C175.363 55.6914 174.766 55.5156 174.211 55.3047C173.664 55.0859 173.188 54.8242 172.781 54.5195C172.383 54.2148 172.07 53.8555 171.844 53.4414C171.617 53.0195 171.504 52.5391 171.504 52C171.504 51.4688 171.617 50.9688 171.844 50.5C172.078 50.0312 172.41 49.6172 172.84 49.2578C173.277 48.8906 173.809 48.6055 174.434 48.4023C175.066 48.1914 175.777 48.0859 176.566 48.0859C177.668 48.0859 178.613 48.2617 179.402 48.6133C180.199 48.9648 180.809 49.4492 181.23 50.0664C181.66 50.6758 181.875 51.3711 181.875 52.1523H178.5C178.5 51.8242 178.43 51.5312 178.289 51.2734C178.156 51.0078 177.945 50.8008 177.656 50.6523C177.375 50.4961 177.008 50.418 176.555 50.418C176.18 50.418 175.855 50.4844 175.582 50.6172C175.309 50.7422 175.098 50.9141 174.949 51.1328C174.809 51.3438 174.738 51.5781 174.738 51.8359C174.738 52.0312 174.777 52.207 174.855 52.3633C174.941 52.5117 175.078 52.6484 175.266 52.7734C175.453 52.8984 175.695 53.0156 175.992 53.125C176.297 53.2266 176.672 53.3203 177.117 53.4062C178.031 53.5938 178.848 53.8398 179.566 54.1445C180.285 54.4414 180.855 54.8477 181.277 55.3633C181.699 55.8711 181.91 56.5391 181.91 57.3672C181.91 57.9297 181.785 58.4453 181.535 58.9141C181.285 59.3828 180.926 59.793 180.457 60.1445C179.988 60.4883 179.426 60.7578 178.77 60.9531C178.121 61.1406 177.391 61.2344 176.578 61.2344C175.398 61.2344 174.398 61.0234 173.578 60.6016C172.766 60.1797 172.148 59.6445 171.727 58.9961C171.312 58.3398 171.105 57.668 171.105 56.9805H174.305C174.32 57.4414 174.438 57.8125 174.656 58.0938C174.883 58.375 175.168 58.5781 175.512 58.7031C175.863 58.8281 176.242 58.8906 176.648 58.8906C177.086 58.8906 177.449 58.832 177.738 58.7148C178.027 58.5898 178.246 58.4258 178.395 58.2227C178.551 58.0117 178.629 57.7695 178.629 57.4961ZM187.395 43V61H184.02V43H187.395ZM186.914 54.2148H185.988C185.996 53.332 186.113 52.5195 186.34 51.7773C186.566 51.0273 186.891 50.3789 187.312 49.832C187.734 49.2773 188.238 48.8477 188.824 48.543C189.418 48.2383 190.074 48.0859 190.793 48.0859C191.418 48.0859 191.984 48.1758 192.492 48.3555C193.008 48.5273 193.449 48.8086 193.816 49.1992C194.191 49.582 194.48 50.0859 194.684 50.7109C194.887 51.3359 194.988 52.0938 194.988 52.9844V61H191.59V52.9609C191.59 52.3984 191.508 51.957 191.344 51.6367C191.188 51.3086 190.957 51.0781 190.652 50.9453C190.355 50.8047 189.988 50.7344 189.551 50.7344C189.066 50.7344 188.652 50.8242 188.309 51.0039C187.973 51.1836 187.703 51.4336 187.5 51.7539C187.297 52.0664 187.148 52.4336 187.055 52.8555C186.961 53.2773 186.914 53.7305 186.914 54.2148ZM213.633 55.3398H217.137C217.066 56.4883 216.75 57.5078 216.188 58.3984C215.633 59.2891 214.855 59.9844 213.855 60.4844C212.863 60.9844 211.668 61.2344 210.27 61.2344C209.176 61.2344 208.195 61.0469 207.328 60.6719C206.461 60.2891 205.719 59.7422 205.102 59.0312C204.492 58.3203 204.027 57.4609 203.707 56.4531C203.387 55.4453 203.227 54.3164 203.227 53.0664V51.8828C203.227 50.6328 203.391 49.5039 203.719 48.4961C204.055 47.4805 204.531 46.6172 205.148 45.9062C205.773 45.1953 206.52 44.6484 207.387 44.2656C208.254 43.8828 209.223 43.6914 210.293 43.6914C211.715 43.6914 212.914 43.9492 213.891 44.4648C214.875 44.9805 215.637 45.6914 216.176 46.5977C216.723 47.5039 217.051 48.5352 217.16 49.6914H213.645C213.605 49.0039 213.469 48.4219 213.234 47.9453C213 47.4609 212.645 47.0977 212.168 46.8555C211.699 46.6055 211.074 46.4805 210.293 46.4805C209.707 46.4805 209.195 46.5898 208.758 46.8086C208.32 47.0273 207.953 47.3594 207.656 47.8047C207.359 48.25 207.137 48.8125 206.988 49.4922C206.848 50.1641 206.777 50.9531 206.777 51.8594V53.0664C206.777 53.9492 206.844 54.7266 206.977 55.3984C207.109 56.0625 207.312 56.625 207.586 57.0859C207.867 57.5391 208.227 57.8828 208.664 58.1172C209.109 58.3438 209.645 58.457 210.27 58.457C211.004 58.457 211.609 58.3398 212.086 58.1055C212.562 57.8711 212.926 57.5234 213.176 57.0625C213.434 56.6016 213.586 56.0273 213.633 55.3398ZM218.695 54.7891V54.543C218.695 53.6133 218.828 52.7578 219.094 51.9766C219.359 51.1875 219.746 50.5039 220.254 49.9258C220.762 49.3477 221.387 48.8984 222.129 48.5781C222.871 48.25 223.723 48.0859 224.684 48.0859C225.645 48.0859 226.5 48.25 227.25 48.5781C228 48.8984 228.629 49.3477 229.137 49.9258C229.652 50.5039 230.043 51.1875 230.309 51.9766C230.574 52.7578 230.707 53.6133 230.707 54.543V54.7891C230.707 55.7109 230.574 56.5664 230.309 57.3555C230.043 58.1367 229.652 58.8203 229.137 59.4062C228.629 59.9844 228.004 60.4336 227.262 60.7539C226.52 61.0742 225.668 61.2344 224.707 61.2344C223.746 61.2344 222.891 61.0742 222.141 60.7539C221.398 60.4336 220.77 59.9844 220.254 59.4062C219.746 58.8203 219.359 58.1367 219.094 57.3555C218.828 56.5664 218.695 55.7109 218.695 54.7891ZM222.07 54.543V54.7891C222.07 55.3203 222.117 55.8164 222.211 56.2773C222.305 56.7383 222.453 57.1445 222.656 57.4961C222.867 57.8398 223.141 58.1094 223.477 58.3047C223.812 58.5 224.223 58.5977 224.707 58.5977C225.176 58.5977 225.578 58.5 225.914 58.3047C226.25 58.1094 226.52 57.8398 226.723 57.4961C226.926 57.1445 227.074 56.7383 227.168 56.2773C227.27 55.8164 227.32 55.3203 227.32 54.7891V54.543C227.32 54.0273 227.27 53.543 227.168 53.0898C227.074 52.6289 226.922 52.2227 226.711 51.8711C226.508 51.5117 226.238 51.2305 225.902 51.0273C225.566 50.8242 225.16 50.7227 224.684 50.7227C224.207 50.7227 223.801 50.8242 223.465 51.0273C223.137 51.2305 222.867 51.5117 222.656 51.8711C222.453 52.2227 222.305 52.6289 222.211 53.0898C222.117 53.543 222.07 54.0273 222.07 54.543ZM236.086 51.0273V61H232.711V48.3203H235.875L236.086 51.0273ZM235.594 54.2148H234.68C234.68 53.2773 234.801 52.4336 235.043 51.6836C235.285 50.9258 235.625 50.2812 236.062 49.75C236.5 49.2109 237.02 48.8008 237.621 48.5195C238.23 48.2305 238.91 48.0859 239.66 48.0859C240.254 48.0859 240.797 48.1719 241.289 48.3438C241.781 48.5156 242.203 48.7891 242.555 49.1641C242.914 49.5391 243.188 50.0352 243.375 50.6523C243.57 51.2695 243.668 52.0234 243.668 52.9141V61H240.27V52.9023C240.27 52.3398 240.191 51.9023 240.035 51.5898C239.879 51.2773 239.648 51.0586 239.344 50.9336C239.047 50.8008 238.68 50.7344 238.242 50.7344C237.789 50.7344 237.395 50.8242 237.059 51.0039C236.73 51.1836 236.457 51.4336 236.238 51.7539C236.027 52.0664 235.867 52.4336 235.758 52.8555C235.648 53.2773 235.594 53.7305 235.594 54.2148ZM249.539 51.0273V61H246.164V48.3203H249.328L249.539 51.0273ZM249.047 54.2148H248.133C248.133 53.2773 248.254 52.4336 248.496 51.6836C248.738 50.9258 249.078 50.2812 249.516 49.75C249.953 49.2109 250.473 48.8008 251.074 48.5195C251.684 48.2305 252.363 48.0859 253.113 48.0859C253.707 48.0859 254.25 48.1719 254.742 48.3438C255.234 48.5156 255.656 48.7891 256.008 49.1641C256.367 49.5391 256.641 50.0352 256.828 50.6523C257.023 51.2695 257.121 52.0234 257.121 52.9141V61H253.723V52.9023C253.723 52.3398 253.645 51.9023 253.488 51.5898C253.332 51.2773 253.102 51.0586 252.797 50.9336C252.5 50.8008 252.133 50.7344 251.695 50.7344C251.242 50.7344 250.848 50.8242 250.512 51.0039C250.184 51.1836 249.91 51.4336 249.691 51.7539C249.48 52.0664 249.32 52.4336 249.211 52.8555C249.102 53.2773 249.047 53.7305 249.047 54.2148ZM265.523 61.2344C264.539 61.2344 263.656 61.0781 262.875 60.7656C262.094 60.4453 261.43 60.0039 260.883 59.4414C260.344 58.8789 259.93 58.2266 259.641 57.4844C259.352 56.7344 259.207 55.9375 259.207 55.0938V54.625C259.207 53.6641 259.344 52.7852 259.617 51.9883C259.891 51.1914 260.281 50.5 260.789 49.9141C261.305 49.3281 261.93 48.8789 262.664 48.5664C263.398 48.2461 264.227 48.0859 265.148 48.0859C266.047 48.0859 266.844 48.2344 267.539 48.5312C268.234 48.8281 268.816 49.25 269.285 49.7969C269.762 50.3438 270.121 51 270.363 51.7656C270.605 52.5234 270.727 53.3672 270.727 54.2969V55.7031H260.648V53.4531H267.41V53.1953C267.41 52.7266 267.324 52.3086 267.152 51.9414C266.988 51.5664 266.738 51.2695 266.402 51.0508C266.066 50.832 265.637 50.7227 265.113 50.7227C264.668 50.7227 264.285 50.8203 263.965 51.0156C263.645 51.2109 263.383 51.4844 263.18 51.8359C262.984 52.1875 262.836 52.6016 262.734 53.0781C262.641 53.5469 262.594 54.0625 262.594 54.625V55.0938C262.594 55.6016 262.664 56.0703 262.805 56.5C262.953 56.9297 263.16 57.3008 263.426 57.6133C263.699 57.9258 264.027 58.168 264.41 58.3398C264.801 58.5117 265.242 58.5977 265.734 58.5977C266.344 58.5977 266.91 58.4805 267.434 58.2461C267.965 58.0039 268.422 57.6406 268.805 57.1562L270.445 58.9375C270.18 59.3203 269.816 59.6875 269.355 60.0391C268.902 60.3906 268.355 60.6797 267.715 60.9062C267.074 61.125 266.344 61.2344 265.523 61.2344ZM277.887 58.5977C278.301 58.5977 278.668 58.5195 278.988 58.3633C279.309 58.1992 279.559 57.9727 279.738 57.6836C279.926 57.3867 280.023 57.0391 280.031 56.6406H283.207C283.199 57.5312 282.961 58.3242 282.492 59.0195C282.023 59.707 281.395 60.25 280.605 60.6484C279.816 61.0391 278.934 61.2344 277.957 61.2344C276.973 61.2344 276.113 61.0703 275.379 60.7422C274.652 60.4141 274.047 59.9609 273.562 59.3828C273.078 58.7969 272.715 58.1172 272.473 57.3438C272.23 56.5625 272.109 55.7266 272.109 54.8359V54.4961C272.109 53.5977 272.23 52.7617 272.473 51.9883C272.715 51.207 273.078 50.5273 273.562 49.9492C274.047 49.3633 274.652 48.9062 275.379 48.5781C276.105 48.25 276.957 48.0859 277.934 48.0859C278.973 48.0859 279.883 48.2852 280.664 48.6836C281.453 49.082 282.07 49.6523 282.516 50.3945C282.969 51.1289 283.199 52 283.207 53.0078H280.031C280.023 52.5859 279.934 52.2031 279.762 51.8594C279.598 51.5156 279.355 51.2422 279.035 51.0391C278.723 50.8281 278.336 50.7227 277.875 50.7227C277.383 50.7227 276.98 50.8281 276.668 51.0391C276.355 51.2422 276.113 51.5234 275.941 51.8828C275.77 52.2344 275.648 52.6367 275.578 53.0898C275.516 53.5352 275.484 54.0039 275.484 54.4961V54.8359C275.484 55.3281 275.516 55.8008 275.578 56.2539C275.641 56.707 275.758 57.1094 275.93 57.4609C276.109 57.8125 276.355 58.0898 276.668 58.293C276.98 58.4961 277.387 58.5977 277.887 58.5977ZM291.375 48.3203V50.7109H283.992V48.3203H291.375ZM285.82 45.1914H289.195V57.1797C289.195 57.5469 289.242 57.8281 289.336 58.0234C289.438 58.2188 289.586 58.3555 289.781 58.4336C289.977 58.5039 290.223 58.5391 290.52 58.5391C290.73 58.5391 290.918 58.5312 291.082 58.5156C291.254 58.4922 291.398 58.4688 291.516 58.4453L291.527 60.9297C291.238 61.0234 290.926 61.0977 290.59 61.1523C290.254 61.207 289.883 61.2344 289.477 61.2344C288.734 61.2344 288.086 61.1133 287.531 60.8711C286.984 60.6211 286.562 60.2227 286.266 59.6758C285.969 59.1289 285.82 58.4102 285.82 57.5195V45.1914Z" fill="#888888"/>
<path d="M104.344 84.875V119H96.1406V84.875H104.344ZM117.727 99.0078V119H109.828V93.6406H117.234L117.727 99.0078ZM116.766 105.453L114.961 105.5C114.961 103.719 115.172 102.078 115.594 100.578C116.016 99.0781 116.641 97.7734 117.469 96.6641C118.297 95.5547 119.312 94.6953 120.516 94.0859C121.734 93.4766 123.141 93.1719 124.734 93.1719C125.844 93.1719 126.852 93.3438 127.758 93.6875C128.664 94.0156 129.445 94.5391 130.102 95.2578C130.758 95.9609 131.258 96.8828 131.602 98.0234C131.961 99.1484 132.141 100.5 132.141 102.078V119H124.242V103.086C124.242 102.008 124.117 101.195 123.867 100.648C123.633 100.102 123.289 99.7344 122.836 99.5469C122.383 99.3594 121.828 99.2656 121.172 99.2656C120.484 99.2656 119.867 99.4219 119.32 99.7344C118.773 100.047 118.305 100.484 117.914 101.047C117.539 101.594 117.25 102.242 117.047 102.992C116.859 103.742 116.766 104.562 116.766 105.453ZM131.25 105.453L129.047 105.5C129.047 103.719 129.242 102.078 129.633 100.578C130.039 99.0781 130.641 97.7734 131.438 96.6641C132.25 95.5547 133.258 94.6953 134.461 94.0859C135.664 93.4766 137.062 93.1719 138.656 93.1719C139.812 93.1719 140.875 93.3438 141.844 93.6875C142.812 94.0312 143.648 94.5859 144.352 95.3516C145.055 96.1172 145.602 97.1328 145.992 98.3984C146.383 99.6484 146.578 101.195 146.578 103.039V119H138.656V103.039C138.656 101.992 138.531 101.203 138.281 100.672C138.047 100.125 137.703 99.7578 137.25 99.5703C136.797 99.3672 136.258 99.2656 135.633 99.2656C134.883 99.2656 134.234 99.4219 133.688 99.7344C133.141 100.047 132.68 100.484 132.305 101.047C131.945 101.594 131.68 102.242 131.508 102.992C131.336 103.742 131.25 104.562 131.25 105.453ZM159.07 98.5156V128.75H151.172V93.6406H158.531L159.07 98.5156ZM174.633 106.016V106.508C174.633 108.352 174.422 110.062 174 111.641C173.578 113.219 172.953 114.594 172.125 115.766C171.297 116.938 170.266 117.852 169.031 118.508C167.812 119.148 166.398 119.469 164.789 119.469C163.273 119.469 161.969 119.133 160.875 118.461C159.781 117.789 158.867 116.859 158.133 115.672C157.398 114.484 156.805 113.125 156.352 111.594C155.898 110.062 155.539 108.445 155.273 106.742V106.109C155.539 104.281 155.898 102.586 156.352 101.023C156.805 99.4453 157.398 98.0703 158.133 96.8984C158.867 95.7266 159.773 94.8125 160.852 94.1562C161.945 93.5 163.25 93.1719 164.766 93.1719C166.375 93.1719 167.789 93.4766 169.008 94.0859C170.242 94.6953 171.273 95.5703 172.102 96.7109C172.945 97.8359 173.578 99.1875 174 100.766C174.422 102.344 174.633 104.094 174.633 106.016ZM166.734 106.508V106.016C166.734 105.031 166.664 104.133 166.523 103.32C166.383 102.492 166.156 101.773 165.844 101.164C165.547 100.555 165.148 100.086 164.648 99.7578C164.148 99.4297 163.531 99.2656 162.797 99.2656C161.953 99.2656 161.242 99.3984 160.664 99.6641C160.102 99.9141 159.648 100.305 159.305 100.836C158.977 101.352 158.742 102 158.602 102.781C158.477 103.547 158.422 104.445 158.438 105.477V107.398C158.406 108.586 158.523 109.633 158.789 110.539C159.055 111.43 159.516 112.125 160.172 112.625C160.828 113.125 161.719 113.375 162.844 113.375C163.594 113.375 164.219 113.203 164.719 112.859C165.219 112.5 165.617 112.008 165.914 111.383C166.211 110.742 166.422 110.008 166.547 109.18C166.672 108.352 166.734 107.461 166.734 106.508ZM186.492 83V119H178.57V83H186.492ZM203.648 119.469C201.586 119.469 199.742 119.148 198.117 118.508C196.492 117.852 195.117 116.953 193.992 115.812C192.883 114.672 192.031 113.359 191.438 111.875C190.859 110.391 190.57 108.82 190.57 107.164V106.273C190.57 104.414 190.828 102.695 191.344 101.117C191.859 99.5234 192.625 98.1328 193.641 96.9453C194.656 95.7578 195.93 94.8359 197.461 94.1797C198.992 93.5078 200.773 93.1719 202.805 93.1719C204.602 93.1719 206.211 93.4609 207.633 94.0391C209.055 94.6172 210.258 95.4453 211.242 96.5234C212.242 97.6016 213 98.9062 213.516 100.438C214.047 101.969 214.312 103.688 214.312 105.594V108.805H193.594V103.859H206.602V103.25C206.617 102.406 206.469 101.688 206.156 101.094C205.859 100.5 205.422 100.047 204.844 99.7344C204.266 99.4219 203.562 99.2656 202.734 99.2656C201.875 99.2656 201.164 99.4531 200.602 99.8281C200.055 100.203 199.625 100.719 199.312 101.375C199.016 102.016 198.805 102.758 198.68 103.602C198.555 104.445 198.492 105.336 198.492 106.273V107.164C198.492 108.102 198.617 108.953 198.867 109.719C199.133 110.484 199.508 111.141 199.992 111.688C200.492 112.219 201.086 112.633 201.773 112.93C202.477 113.227 203.273 113.375 204.164 113.375C205.242 113.375 206.305 113.172 207.352 112.766C208.398 112.359 209.297 111.688 210.047 110.75L213.633 115.016C213.117 115.75 212.383 116.461 211.43 117.148C210.492 117.836 209.367 118.398 208.055 118.836C206.742 119.258 205.273 119.469 203.648 119.469ZM225.492 99.0078V119H217.594V93.6406H225L225.492 99.0078ZM224.531 105.453L222.727 105.5C222.727 103.719 222.938 102.078 223.359 100.578C223.781 99.0781 224.406 97.7734 225.234 96.6641C226.062 95.5547 227.078 94.6953 228.281 94.0859C229.5 93.4766 230.906 93.1719 232.5 93.1719C233.609 93.1719 234.617 93.3438 235.523 93.6875C236.43 94.0156 237.211 94.5391 237.867 95.2578C238.523 95.9609 239.023 96.8828 239.367 98.0234C239.727 99.1484 239.906 100.5 239.906 102.078V119H232.008V103.086C232.008 102.008 231.883 101.195 231.633 100.648C231.398 100.102 231.055 99.7344 230.602 99.5469C230.148 99.3594 229.594 99.2656 228.938 99.2656C228.25 99.2656 227.633 99.4219 227.086 99.7344C226.539 100.047 226.07 100.484 225.68 101.047C225.305 101.594 225.016 102.242 224.812 102.992C224.625 103.742 224.531 104.562 224.531 105.453ZM239.016 105.453L236.812 105.5C236.812 103.719 237.008 102.078 237.398 100.578C237.805 99.0781 238.406 97.7734 239.203 96.6641C240.016 95.5547 241.023 94.6953 242.227 94.0859C243.43 93.4766 244.828 93.1719 246.422 93.1719C247.578 93.1719 248.641 93.3438 249.609 93.6875C250.578 94.0312 251.414 94.5859 252.117 95.3516C252.82 96.1172 253.367 97.1328 253.758 98.3984C254.148 99.6484 254.344 101.195 254.344 103.039V119H246.422V103.039C246.422 101.992 246.297 101.203 246.047 100.672C245.812 100.125 245.469 99.7578 245.016 99.5703C244.562 99.3672 244.023 99.2656 243.398 99.2656C242.648 99.2656 242 99.4219 241.453 99.7344C240.906 100.047 240.445 100.484 240.07 101.047C239.711 101.594 239.445 102.242 239.273 102.992C239.102 103.742 239.016 104.562 239.016 105.453ZM271.148 119.469C269.086 119.469 267.242 119.148 265.617 118.508C263.992 117.852 262.617 116.953 261.492 115.812C260.383 114.672 259.531 113.359 258.938 111.875C258.359 110.391 258.07 108.82 258.07 107.164V106.273C258.07 104.414 258.328 102.695 258.844 101.117C259.359 99.5234 260.125 98.1328 261.141 96.9453C262.156 95.7578 263.43 94.8359 264.961 94.1797C266.492 93.5078 268.273 93.1719 270.305 93.1719C272.102 93.1719 273.711 93.4609 275.133 94.0391C276.555 94.6172 277.758 95.4453 278.742 96.5234C279.742 97.6016 280.5 98.9062 281.016 100.438C281.547 101.969 281.812 103.688 281.812 105.594V108.805H261.094V103.859H274.102V103.25C274.117 102.406 273.969 101.688 273.656 101.094C273.359 100.5 272.922 100.047 272.344 99.7344C271.766 99.4219 271.062 99.2656 270.234 99.2656C269.375 99.2656 268.664 99.4531 268.102 99.8281C267.555 100.203 267.125 100.719 266.812 101.375C266.516 102.016 266.305 102.758 266.18 103.602C266.055 104.445 265.992 105.336 265.992 106.273V107.164C265.992 108.102 266.117 108.953 266.367 109.719C266.633 110.484 267.008 111.141 267.492 111.688C267.992 112.219 268.586 112.633 269.273 112.93C269.977 113.227 270.773 113.375 271.664 113.375C272.742 113.375 273.805 113.172 274.852 112.766C275.898 112.359 276.797 111.688 277.547 110.75L281.133 115.016C280.617 115.75 279.883 116.461 278.93 117.148C277.992 117.836 276.867 118.398 275.555 118.836C274.242 119.258 272.773 119.469 271.148 119.469ZM292.781 99.0547V119H284.883V93.6406H292.289L292.781 99.0547ZM291.844 105.453L289.992 105.5C289.992 103.562 290.227 101.836 290.695 100.32C291.164 98.7891 291.828 97.4922 292.688 96.4297C293.547 95.3672 294.57 94.5625 295.758 94.0156C296.961 93.4531 298.297 93.1719 299.766 93.1719C300.938 93.1719 302.008 93.3438 302.977 93.6875C303.961 94.0312 304.805 94.5859 305.508 95.3516C306.227 96.1172 306.773 97.1328 307.148 98.3984C307.539 99.6484 307.734 101.195 307.734 103.039V119H299.789V103.016C299.789 102 299.648 101.227 299.367 100.695C299.086 100.148 298.68 99.7734 298.148 99.5703C297.617 99.3672 296.969 99.2656 296.203 99.2656C295.391 99.2656 294.703 99.4219 294.141 99.7344C293.578 100.047 293.125 100.484 292.781 101.047C292.453 101.594 292.211 102.242 292.055 102.992C291.914 103.742 291.844 104.562 291.844 105.453ZM325.477 93.6406V99.125H310.195V93.6406H325.477ZM313.406 87.3359H321.305V110.727C321.305 111.398 321.383 111.922 321.539 112.297C321.695 112.656 321.961 112.914 322.336 113.07C322.727 113.211 323.242 113.281 323.883 113.281C324.336 113.281 324.711 113.273 325.008 113.258C325.305 113.227 325.586 113.188 325.852 113.141V118.789C325.18 119.008 324.477 119.172 323.742 119.281C323.008 119.406 322.227 119.469 321.398 119.469C319.711 119.469 318.266 119.203 317.062 118.672C315.875 118.141 314.969 117.305 314.344 116.164C313.719 115.023 313.406 113.539 313.406 111.711V87.3359ZM341.789 112.625V102.172C341.789 101.453 341.688 100.836 341.484 100.32C341.281 99.8047 340.961 99.4062 340.523 99.125C340.086 98.8281 339.5 98.6797 338.766 98.6797C338.172 98.6797 337.664 98.7812 337.242 98.9844C336.82 99.1875 336.5 99.4922 336.281 99.8984C336.062 100.305 335.953 100.82 335.953 101.445H328.055C328.055 100.273 328.312 99.1875 328.828 98.1875C329.359 97.1719 330.109 96.2891 331.078 95.5391C332.062 94.7891 333.234 94.2109 334.594 93.8047C335.969 93.3828 337.5 93.1719 339.188 93.1719C341.203 93.1719 343 93.5078 344.578 94.1797C346.172 94.8516 347.43 95.8594 348.352 97.2031C349.273 98.5312 349.734 100.203 349.734 102.219V112.602C349.734 114.258 349.828 115.516 350.016 116.375C350.203 117.219 350.469 117.961 350.812 118.602V119H342.891C342.516 118.219 342.234 117.266 342.047 116.141C341.875 115 341.789 113.828 341.789 112.625ZM342.75 103.508L342.797 107.727H339.305C338.57 107.727 337.945 107.828 337.43 108.031C336.93 108.234 336.523 108.516 336.211 108.875C335.914 109.219 335.695 109.609 335.555 110.047C335.43 110.484 335.367 110.945 335.367 111.43C335.367 111.898 335.477 112.32 335.695 112.695C335.93 113.055 336.242 113.336 336.633 113.539C337.023 113.742 337.461 113.844 337.945 113.844C338.82 113.844 339.562 113.68 340.172 113.352C340.797 113.008 341.273 112.594 341.602 112.109C341.93 111.625 342.094 111.172 342.094 110.75L343.828 113.984C343.516 114.609 343.156 115.242 342.75 115.883C342.359 116.523 341.867 117.117 341.273 117.664C340.695 118.195 339.984 118.633 339.141 118.977C338.297 119.305 337.273 119.469 336.07 119.469C334.508 119.469 333.07 119.148 331.758 118.508C330.461 117.867 329.422 116.977 328.641 115.836C327.859 114.68 327.469 113.352 327.469 111.852C327.469 110.539 327.703 109.367 328.172 108.336C328.656 107.305 329.383 106.43 330.352 105.711C331.32 104.992 332.555 104.445 334.055 104.07C335.555 103.695 337.32 103.508 339.352 103.508H342.75ZM367.477 93.6406V99.125H352.195V93.6406H367.477ZM355.406 87.3359H363.305V110.727C363.305 111.398 363.383 111.922 363.539 112.297C363.695 112.656 363.961 112.914 364.336 113.07C364.727 113.211 365.242 113.281 365.883 113.281C366.336 113.281 366.711 113.273 367.008 113.258C367.305 113.227 367.586 113.188 367.852 113.141V118.789C367.18 119.008 366.477 119.172 365.742 119.281C365.008 119.406 364.227 119.469 363.398 119.469C361.711 119.469 360.266 119.203 359.062 118.672C357.875 118.141 356.969 117.305 356.344 116.164C355.719 115.023 355.406 113.539 355.406 111.711V87.3359ZM378.961 93.6406V119H371.039V93.6406H378.961ZM370.57 87.1016C370.57 85.9766 370.977 85.0547 371.789 84.3359C372.602 83.6172 373.656 83.2578 374.953 83.2578C376.25 83.2578 377.305 83.6172 378.117 84.3359C378.93 85.0547 379.336 85.9766 379.336 87.1016C379.336 88.2266 378.93 89.1484 378.117 89.8672C377.305 90.5859 376.25 90.9453 374.953 90.9453C373.656 90.9453 372.602 90.5859 371.789 89.8672C370.977 89.1484 370.57 88.2266 370.57 87.1016ZM382.852 106.578V106.086C382.852 104.227 383.117 102.516 383.648 100.953C384.18 99.375 384.961 98.0078 385.992 96.8516C387.023 95.6953 388.297 94.7969 389.812 94.1562C391.328 93.5 393.078 93.1719 395.062 93.1719C397.062 93.1719 398.82 93.5 400.336 94.1562C401.867 94.7969 403.148 95.6953 404.18 96.8516C405.211 98.0078 405.992 99.375 406.523 100.953C407.055 102.516 407.32 104.227 407.32 106.086V106.578C407.32 108.422 407.055 110.133 406.523 111.711C405.992 113.273 405.211 114.641 404.18 115.812C403.148 116.969 401.875 117.867 400.359 118.508C398.844 119.148 397.094 119.469 395.109 119.469C393.125 119.469 391.367 119.148 389.836 118.508C388.305 117.867 387.023 116.969 385.992 115.812C384.961 114.641 384.18 113.273 383.648 111.711C383.117 110.133 382.852 108.422 382.852 106.578ZM390.75 106.086V106.578C390.75 107.531 390.82 108.422 390.961 109.25C391.102 110.078 391.336 110.805 391.664 111.43C391.992 112.039 392.438 112.516 393 112.859C393.562 113.203 394.266 113.375 395.109 113.375C395.938 113.375 396.625 113.203 397.172 112.859C397.734 112.516 398.18 112.039 398.508 111.43C398.836 110.805 399.07 110.078 399.211 109.25C399.352 108.422 399.422 107.531 399.422 106.578V106.086C399.422 105.164 399.352 104.297 399.211 103.484C399.07 102.656 398.836 101.93 398.508 101.305C398.18 100.664 397.734 100.164 397.172 99.8047C396.609 99.4453 395.906 99.2656 395.062 99.2656C394.234 99.2656 393.539 99.4453 392.977 99.8047C392.43 100.164 391.992 100.664 391.664 101.305C391.336 101.93 391.102 102.656 390.961 103.484C390.82 104.297 390.75 105.164 390.75 106.086ZM418.594 99.0547V119H410.695V93.6406H418.102L418.594 99.0547ZM417.656 105.453L415.805 105.5C415.805 103.562 416.039 101.836 416.508 100.32C416.977 98.7891 417.641 97.4922 418.5 96.4297C419.359 95.3672 420.383 94.5625 421.57 94.0156C422.773 93.4531 424.109 93.1719 425.578 93.1719C426.75 93.1719 427.82 93.3438 428.789 93.6875C429.773 94.0312 430.617 94.5859 431.32 95.3516C432.039 96.1172 432.586 97.1328 432.961 98.3984C433.352 99.6484 433.547 101.195 433.547 103.039V119H425.602V103.016C425.602 102 425.461 101.227 425.18 100.695C424.898 100.148 424.492 99.7734 423.961 99.5703C423.43 99.3672 422.781 99.2656 422.016 99.2656C421.203 99.2656 420.516 99.4219 419.953 99.7344C419.391 100.047 418.938 100.484 418.594 101.047C418.266 101.594 418.023 102.242 417.867 102.992C417.727 103.742 417.656 104.562 417.656 105.453Z" fill="black"/>
<path d="M1134 0H1348C1356.28 0 1363 6.71573 1363 15V148C1363 156.284 1356.28 163 1348 163H1134V0Z" fill="#006942"/>
<path d="M1281 46.5H1216L1213.5 49V114L1216 116.5H1281L1283.5 114V49L1281 46.5ZM1278.5 111.5H1233.5V101.5H1245C1246.5 104.5 1250 106.5 1253.5 106.5C1259 106.5 1263.5 102 1263.5 96.5C1263.5 91 1259 86.5 1253.5 86.5C1248 86.5 1243.5 91 1243.5 96.5H1228.5V111.5H1218.5V51.5H1228.5V63C1225.5 64.5 1223.5 68 1223.5 71.5C1223.5 77 1228 81.5 1233.5 81.5C1239 81.5 1243.5 77 1243.5 71.5H1253.5C1253.5 77 1258 81.5 1263.5 81.5C1269 81.5 1273.5 77 1273.5 71.5C1273.5 66 1269 61.5 1263.5 61.5C1260 61.5 1256.5 63.5 1255 66.5H1242C1240.5 63.5 1237 61.5 1233.5 61.5V51.5H1278.5V111.5ZM1248.5 96.5C1248.5 93.5 1250.5 91.5 1253.5 91.5C1256.5 91.5 1258.5 93.5 1258.5 96.5C1258.5 99.5 1256.5 101.5 1253.5 101.5C1250.5 101.5 1248.5 99.5 1248.5 96.5ZM1233.5 66.5C1236.5 66.5 1238.5 68.5 1238.5 71.5C1238.5 74.5 1236.5 76.5 1233.5 76.5C1230.5 76.5 1228.5 74.5 1228.5 71.5C1228.5 68.5 1230.5 66.5 1233.5 66.5ZM1263.5 66.5C1266.5 66.5 1268.5 68.5 1268.5 71.5C1268.5 74.5 1266.5 76.5 1263.5 76.5C1260.5 76.5 1258.5 74.5 1258.5 71.5C1258.5 68.5 1260.5 66.5 1263.5 66.5Z" fill="white"/>
</svg>
