<svg width="197" height="201" viewBox="0 0 197 201" fill="none" xmlns="http://www.w3.org/2000/svg">
<path d="M0.828125 200.5V0.34375H53.4648L129.07 103.293C130.984 106.118 133.4 110.357 136.316 116.008C140.053 123.299 143.699 130.819 147.254 138.566C145.887 128.085 145.112 120.747 144.93 116.555C144.383 109.992 144.109 104.204 144.109 99.1914V0.34375H196.473V200.5H144.109L68.5039 97.1406C67.4102 95.6823 64.9948 91.3984 61.2578 84.2891C57.9766 78.4557 54.3307 71.0729 50.3203 62.1406C51.2318 69.25 52.0977 76.6328 52.918 84.2891C53.2826 92.8568 53.4648 98.6445 53.4648 101.652V200.5H0.828125Z" fill="url(#paint0_linear_121_1993)"/>
<defs>
<linearGradient id="paint0_linear_121_1993" x1="21.7114" y1="194.952" x2="183.953" y2="-12.2951" gradientUnits="userSpaceOnUse">
<stop stop-color="#01965E"/>
<stop offset="1" stop-color="#1B2A24"/>
<stop offset="1" stop-color="#ABFFDD"/>
</linearGradient>
</defs>
</svg>
